{
.appVersion = "1075";
DisplayStrings = (
"/koKai-thai/thoThung-thai/phoSamphao-thai/ru-thai/ru-thai.short/lu-thai/lu-thai.short/doChada-thai/doChada-thai.short/toPatak-thai/toPatak-thai.short/ru_lakkhangyao-thai/lu_lakkhangyao-thai/yoYing-thai/yoYing-thai.less \012/boBaimai-thai/poPla-thai"
);
copyright = "Copyright © 2018 by Cadson Demak Co.,Ltd.. All rights reserved.";
customParameters = (
{
name = vendorID;
value = CDK;
},
{
name = description;
value = "Copyright (c) 2018, Cadson Demak (info@cadsondemak.com)";
},
{
name = license;

glyphs = (
{
glyphname = A;
lastChange = "2018-02-05 08:42:07 +0000";
layers = (
{
layerId = "0B1DFD06-3317-40CA-B510-4969A0718C16";
paths = (
{
closed = 1;
nodes = (
"625 700 OFFCURVE",
"602 701 OFFCURVE",
"581 701 CURVE SMOOTH",
"511 701 OFFCURVE",
"449 689 OFFCURVE",
"395 660 CURVE SMOOTH",
"338 633 OFFCURVE",
"289 595 OFFCURVE",
"244 547 CURVE SMOOTH",
"198 500 OFFCURVE",
"162 458 OFFCURVE",
"138 421 CURVE SMOOTH",
"112 384 OFFCURVE",
"95 344 OFFCURVE",
"84 303 CURVE SMOOTH",
"74 261 OFFCURVE",
"74 216 OFFCURVE",
"85 168 CURVE SMOOTH",
"88 155 OFFCURVE",
"94 136 OFFCURVE",
"104 110 CURVE SMOOTH",
"113 84 OFFCURVE",
"128 60 OFFCURVE",
"148 39 CURVE",
"170 17 OFFCURVE",
"191 4 OFFCURVE",
"212 -1 CURVE",
"233 -5 OFFCURVE",
"249 -7 OFFCURVE",
"263 -7 CURVE SMOOTH",
"305 -7 OFFCURVE",
"347 6 OFFCURVE",
"389 35 CURVE SMOOTH",
"429 61 OFFCURVE",
"464 94 OFFCURVE",
"493 130 CURVE",
"524 163 OFFCURVE",
"547 196 OFFCURVE",
"567 230 CURVE",
"563 201 OFFCURVE",
"558 178 OFFCURVE",
"551 163 CURVE SMOOTH",
"533 119 LINE SMOOTH",
"526 104 OFFCURVE",
"517 84 OFFCURVE",
"503 57 CURVE SMOOTH",
"489 30 OFFCURVE",
"481 12 OFFCURVE",
"481 4 CURVE",
"486 4 OFFCURVE",
"497 5 OFFCURVE",
"517 1 CURVE",
"536 0 OFFCURVE",
"548 -1 OFFCURVE",
"557 -1 CURVE SMOOTH",
"573 -1 OFFCURVE",
"585 0 OFFCURVE",
"593 4 CURVE",
"597 70 OFFCURVE",
"603 136 OFFCURVE",
"613 202 CURVE SMOOTH",
"625 267 OFFCURVE",
"636 324 OFFCURVE",
"649 373 CURVE SMOOTH",
"662 422 OFFCURVE",
"679 498 OFFCURVE",
"709 603 CURVE",
"705 619 LINE",
"701 619 LINE",
"682 575 OFFCURVE",
"664 540 OFFCURVE",
"646 507 CURVE SMOOTH",
"627 473 OFFCURVE",
"603 447 OFFCURVE",
"575 426 CURVE SMOOTH",
"545 403 OFFCURVE",
"510 392 OFFCURVE",
"470 392 CURVE SMOOTH",
"462 392 LINE SMOOTH",
"458 392 OFFCURVE",
"453 393 OFFCURVE",
"445 393 CURVE",
"436 394 OFFCURVE",
"426 398 OFFCURVE",
"418 403 CURVE",
"408 407 OFFCURVE",
"402 413 OFFCURVE",
"397 421 CURVE SMOOTH",
"395 424 OFFCURVE",
"394 428 OFFCURVE",
"393 434 CURVE SMOOTH",
"391 443 OFFCURVE",
"392 449 OFFCURVE",
"395 453 CURVE SMOOTH",
"398 457 OFFCURVE",
"402 461 OFFCURVE",
"409 466 CURVE",
"414 470 OFFCURVE",
"419 472 OFFCURVE",
"424 475 CURVE",
"433 477 OFFCURVE",
"440 478 OFFCURVE",
"447 478 CURVE SMOOTH",
"453 478 OFFCURVE",
"460 477 OFFCURVE",
"470 475 CURVE",
"481 472 OFFCURVE",
"495 473 OFFCURVE",
"512 469 CURVE",
"486 480 LINE",
"476 484 OFFCURVE",
"467 485 OFFCURVE",
"456 489 CURVE",
"445 492 OFFCURVE",
"432 493 OFFCURVE",
"418 493 CURVE SMOOTH",
"397 493 OFFCURVE",
"380 489 OFFCURVE",
"368 480 CURVE",
"357 473 OFFCURVE",
"349 464 OFFCURVE",
"347 453 CURVE SMOOTH",
"344 442 OFFCURVE",
"343 433 OFFCURVE",
"344 429 CURVE SMOOTH",
"346 422 OFFCURVE",
"352 413 OFFCURVE",
"360 404 CURVE",
"367 397 OFFCURVE",
"381 389 OFFCURVE",
"398 381 CURVE SMOOTH",
"416 372 OFFCURVE",
"436 368 OFFCURVE",
"459 368 CURVE SMOOTH",
"488 368 OFFCURVE",
"520 378 OFFCURVE",
"551 397 CURVE SMOOTH",
"583 416 OFFCURVE",
"618 448 OFFCURVE",
"655 497 CURVE",
"662 493 LINE",
"643 398 OFFCURVE",
"611 318 OFFCURVE",
"563 247 CURVE SMOOTH",
"517 177 OFFCURVE",
"469 125 OFFCURVE",
"421 91 CURVE SMOOTH",
"373 57 OFFCURVE",
"336 40 OFFCURVE",
"308 40 CURVE SMOOTH",
"278 40 OFFCURVE",
"252 47 OFFCURVE",
"232 62 CURVE SMOOTH",
"209 79 OFFCURVE",
"196 90 OFFCURVE",
"190 104 CURVE SMOOTH",
"183 116 OFFCURVE",
"177 130 OFFCURVE",
"173 146 CURVE SMOOTH",
"171 156 LINE",
"172 161 OFFCURVE",
"166 191 OFFCURVE",
"161 250 CURVE SMOOTH",
"155 307 OFFCURVE",
"176 379 OFFCURVE",
"224 468 CURVE SMOOTH",
"273 558 OFFCURVE",
"328 613 OFFCURVE",
"389 639 CURVE SMOOTH",
"451 664 OFFCURVE",
"492 680 OFFCURVE",
"515 685 CURVE SMOOTH",
"538 690 OFFCURVE",
"560 694 OFFCURVE",
"584 694 CURVE SMOOTH",
"609 694 OFFCURVE",
"635 689 OFFCURVE",
"662 680 CURVE SMOOTH",
"686 671 OFFCURVE",
"711 656 OFFCURVE",
"736 635 CURVE SMOOTH",
"759 614 OFFCURVE",
"776 585 OFFCURVE",
"784 550 CURVE SMOOTH",
"789 527 OFFCURVE",
"790 504 OFFCURVE",
"785 483 CURVE SMOOTH",
"780 461 OFFCURVE",
"769 442 OFFCURVE",
"754 428 CURVE SMOOTH",
"739 414 OFFCURVE",
"721 403 OFFCURVE",
"701 397 CURVE",
"732 397 OFFCURVE",
"759 406 OFFCURVE",
"782 422 CURVE",
"803 441 OFFCURVE",
"815 459 OFFCURVE",
"820 479 CURVE SMOOTH",
"824 499 OFFCURVE",
"825 515 OFFCURVE",
"824 525 CURVE",
"824 535 OFFCURVE",
"823 545 OFFCURVE",
"821 555 CURVE SMOOTH",
"814 585 OFFCURVE",
"799 612 OFFCURVE",
"778 633 CURVE SMOOTH",
"756 654 OFFCURVE",
"737 668 OFFCURVE",
"720 676 CURVE",
"704 685 OFFCURVE",
"681 691 OFFCURVE",
"648 698 CURVE"
);
}
);
width = 736;
}
);
note = A;
unicode = 0041;
},
{
glyphname = B;
lastChange = "2018-02-05 08:42:07 +0000";
layers = (
{
layerId = "0B1DFD06-3317-40CA-B510-4969A0718C16";
paths = (
{
closed = 1;
nodes = (
"266 670 OFFCURVE",
"227 643 OFFCURVE",
"197 599 CURVE SMOOTH",
"167 555 OFFCURVE",
"147 504 OFFCURVE",
"135 448 CURVE",
"129 447 OFFCURVE",
"125 446 OFFCURVE",
"121 446 CURVE",
"120 444 OFFCURVE",
"116 444 OFFCURVE",
"110 444 CURVE SMOOTH",
"97 444 OFFCURVE",
"84 447 OFFCURVE",
"70 452 CURVE",
"58 456 OFFCURVE",
"46 462 OFFCURVE",
"39 469 CURVE",
"29 477 OFFCURVE",
"23 484 OFFCURVE",
"21 493 CURVE SMOOTH",
"17 512 OFFCURVE",
"22 524 OFFCURVE",
"34 532 CURVE",
"45 540 OFFCURVE",
"61 545 OFFCURVE",
"77 545 CURVE SMOOTH",
"86 545 OFFCURVE",
"93 544 OFFCURVE",
"103 543 CURVE SMOOTH",
"135 538 LINE",
"134 543 LINE",
"110 554 OFFCURVE",
"86 560 OFFCURVE",
"61 560 CURVE SMOOTH",
"30 560 OFFCURVE",
"6 554 OFFCURVE",
"-8 540 CURVE",
"-22 527 OFFCURVE",
"-25 510 OFFCURVE",
"-21 494 CURVE SMOOTH",
"-20 488 OFFCURVE",
"-17 482 OFFCURVE",
"-12 473 CURVE",
"-10 466 OFFCURVE",
"-3 459 OFFCURVE",
"4 453 CURVE",
"15 447 OFFCURVE",
"28 443 OFFCURVE",
"47 439 CURVE",
"67 434 OFFCURVE",
"80 433 OFFCURVE",
"90 433 CURVE SMOOTH",
"99 433 OFFCURVE",
"105 433 OFFCURVE",
"114 434 CURVE SMOOTH",
"135 438 LINE",
"137 417 OFFCURVE",
"137 403 OFFCURVE",
"138 397 CURVE SMOOTH",
"141 387 OFFCURVE",
"144 369 OFFCURVE",
"150 344 CURVE SMOOTH",
"151 336 OFFCURVE",
"154 331 OFFCURVE",
"158 322 CURVE SMOOTH",
"161 313 OFFCURVE",
"164 308 OFFCURVE",
"167 306 CURVE",
"164 321 OFFCURVE",
"159 341 OFFCURVE",
"154 367 CURVE",
"148 393 OFFCURVE",
"147 416 OFFCURVE",
"145 439 CURVE",
"168 444 OFFCURVE",
"189 453 OFFCURVE",
"207 466 CURVE",
"226 477 OFFCURVE",
"241 489 OFFCURVE",
"253 502 CURVE SMOOTH",
"311 564 LINE",
"316 560 LINE",
"302 515 OFFCURVE",
"288 459 OFFCURVE",
"267 393 CURVE SMOOTH",
"207 198 LINE",
"146 5 LINE",
"155 1 OFFCURVE",
"164 0 OFFCURVE",
"173 0 CURVE",
"182 -1 OFFCURVE",
"187 -1 OFFCURVE",
"193 -1 CURVE SMOOTH",
"194 -1 OFFCURVE",
"202 0 OFFCURVE",
"217 0 CURVE SMOOTH",
"233 0 OFFCURVE",
"245 1 OFFCURVE",
"254 1 CURVE",
"252 34 LINE",
"253 49 OFFCURVE",
"252 77 OFFCURVE",
"257 119 CURVE SMOOTH",
"261 162 OFFCURVE",
"266 212 OFFCURVE",
"276 273 CURVE SMOOTH",
"285 337 OFFCURVE",
"294 397 OFFCURVE",
"309 458 CURVE SMOOTH",
"347 638 LINE",
"327 599 OFFCURVE",
"308 570 OFFCURVE",
"290 547 CURVE SMOOTH",
"274 525 OFFCURVE",
"254 507 OFFCURVE",
"233 490 CURVE",
"211 475 OFFCURVE",
"197 466 OFFCURVE",
"185 461 CURVE",
"175 456 OFFCURVE",
"162 452 OFFCURVE",
"146 451 CURVE",
"149 473 OFFCURVE",
"155 497 OFFCURVE",
"165 523 CURVE",
"174 548 OFFCURVE",
"187 573 OFFCURVE",
"203 598 CURVE SMOOTH",
"217 622 OFFCURVE",
"241 641 OFFCURVE",
"274 656 CURVE SMOOTH",
"305 671 OFFCURVE",
"340 679 OFFCURVE",
"380 679 CURVE SMOOTH",
"406 679 OFFCURVE",
"432 676 OFFCURVE",
"460 670 CURVE SMOOTH",
"488 664 OFFCURVE",
"515 651 OFFCURVE",
"540 631 CURVE SMOOTH",
"563 613 OFFCURVE",
"579 594 OFFCURVE",
"587 574 CURVE SMOOTH",
"595 554 OFFCURVE",
"601 543 OFFCURVE",
"602 539 CURVE SMOOTH",
"603 535 OFFCURVE",
"605 530 OFFCURVE",
"606 524 CURVE SMOOTH",
"613 493 OFFCURVE",
"611 463 OFFCURVE",
"601 437 CURVE",
"593 411 OFFCURVE",
"576 388 OFFCURVE",
"552 369 CURVE",
"505 383 OFFCURVE",
"477 389 OFFCURVE",
"465 393 CURVE",
"453 396 OFFCURVE",
"438 397 OFFCURVE",
"422 397 CURVE SMOOTH",
"409 397 OFFCURVE",
"396 394 OFFCURVE",
"382 391 CURVE",
"371 387 OFFCURVE",
"361 382 OFFCURVE",
"353 376 CURVE",
"347 369 OFFCURVE",
"345 362 OFFCURVE",
"347 356 CURVE SMOOTH",
"349 348 OFFCURVE",
"353 342 OFFCURVE",
"363 336 CURVE SMOOTH",
"374 329 OFFCURVE",
"385 324 OFFCURVE",
"400 321 CURVE SMOOTH",
"414 317 OFFCURVE",
"430 314 OFFCURVE",
"445 314 CURVE SMOOTH",
"464 314 OFFCURVE",
"484 318 OFFCURVE",
"503 323 CURVE SMOOTH",
"526 329 OFFCURVE",
"544 336 OFFCURVE",
"563 344 CURVE",
"579 337 OFFCURVE",
"593 327 OFFCURVE",
"604 313 CURVE SMOOTH",
"614 300 OFFCURVE",
"622 283 OFFCURVE",
"626 266 CURVE SMOOTH",
"661 111 OFFCURVE",
"558 1 OFFCURVE",
"402 1 CURVE SMOOTH",
"358 1 OFFCURVE",
"315 14 OFFCURVE",
"275 37 CURVE",
"277 29 LINE",
"302 12 OFFCURVE",
"328 0 OFFCURVE",
"352 -7 CURVE SMOOTH",
"377 -15 OFFCURVE",
"403 -19 OFFCURVE",
"431 -19 CURVE SMOOTH",
"518 -19 OFFCURVE",
"629 11 OFFCURVE",
"669 89 CURVE SMOOTH",
"689 125 OFFCURVE",
"697 172 OFFCURVE",
"686 221 CURVE SMOOTH",
"681 241 OFFCURVE",
"672 261 OFFCURVE",
"657 281 CURVE SMOOTH",
"642 302 OFFCURVE",
"617 326 OFFCURVE",
"580 354 CURVE",
"583 358 OFFCURVE",
"595 368 OFFCURVE",
"613 384 CURVE SMOOTH",
"631 399 OFFCURVE",
"643 416 OFFCURVE",
"651 433 CURVE",
"669 489 OFFCURVE",
"669 537 OFFCURVE",
"631 600 CURVE SMOOTH",
"614 629 OFFCURVE",
"587 651 OFFCURVE",
"547 669 CURVE SMOOTH",
"508 686 OFFCURVE",
"465 695 OFFCURVE",
"416 695 CURVE SMOOTH",
"398 695 OFFCURVE",
"381 694 OFFCURVE",
"365 691 CURVE",
"346 688 OFFCURVE",
"331 686 OFFCURVE",
"315 681 CURVE"
);
},
{
closed = 1;
nodes = (
"388 373 OFFCURVE",
"395 377 OFFCURVE",
"405 378 CURVE",
"413 381 OFFCURVE",
"422 382 OFFCURVE",
"433 382 CURVE SMOOTH",
"467 382 OFFCURVE",
"500 373 OFFCURVE",
"533 357 CURVE",
"521 348 OFFCURVE",
"507 341 OFFCURVE",
"492 337 CURVE",
"477 331 OFFCURVE",
"460 328 OFFCURVE",
"441 328 CURVE SMOOTH",
"420 328 OFFCURVE",
"406 331 OFFCURVE",
"396 337 CURVE",
"385 341 OFFCURVE",
"379 346 OFFCURVE",
"377 354 CURVE SMOOTH",
"375 362 OFFCURVE",
"376 367 OFFCURVE",
"382 369 CURVE"
);
}
);
width = 695;
}
);
note = B;
unicode = 0042;
},
{
glyphname = C;
lastChange = "2018-02-05 08:42:07 +0000";
layers = (
{
layerId = "0B1DFD06-3317-40CA-B510-4969A0718C16";
paths = (
{
closed = 1;
nodes = (
"381 698 OFFCURVE",
"338 684 OFFCURVE",
"302 661 CURVE SMOOTH",
"265 638 OFFCURVE",
"234 610 OFFCURVE",
"209 578 CURVE SMOOTH",
"183 544 OFFCURVE",
"161 505 OFFCURVE",
"137 461 CURVE",
"133 461 OFFCURVE",
"131 461 OFFCURVE",
"130 459 CURVE SMOOTH",
"127 458 OFFCURVE",
"121 458 OFFCURVE",
"112 458 CURVE SMOOTH",
"98 458 OFFCURVE",
"85 461 OFFCURVE",
"74 466 CURVE",
"63 469 OFFCURVE",
"56 475 OFFCURVE",
"52 482 CURVE",
"49 490 OFFCURVE",
"47 494 OFFCURVE",
"47 498 CURVE SMOOTH",
"45 504 OFFCURVE",
"45 512 OFFCURVE",
"48 518 CURVE SMOOTH",
"51 524 OFFCURVE",
"53 530 OFFCURVE",
"57 537 CURVE",
"61 543 OFFCURVE",
"66 547 OFFCURVE",
"71 548 CURVE",
"76 550 OFFCURVE",
"81 552 OFFCURVE",
"89 552 CURVE SMOOTH",
"95 552 OFFCURVE",
"106 550 OFFCURVE",
"120 548 CURVE",
"135 547 OFFCURVE",
"144 545 OFFCURVE",
"152 547 CURVE",
"136 555 OFFCURVE",
"122 562 OFFCURVE",
"109 565 CURVE",
"97 570 OFFCURVE",
"83 572 OFFCURVE",
"69 572 CURVE SMOOTH",
"48 572 OFFCURVE",
"32 565 OFFCURVE",
"23 554 CURVE",
"11 543 OFFCURVE",
"3 533 OFFCURVE",
"0 524 CURVE SMOOTH",
"-5 515 OFFCURVE",
"-4 505 OFFCURVE",
"-1 494 CURVE",
"6 480 OFFCURVE",
"14 470 OFFCURVE",
"24 464 CURVE",
"37 458 OFFCURVE",
"48 453 OFFCURVE",
"60 449 CURVE SMOOTH",
"74 446 OFFCURVE",
"81 443 OFFCURVE",
"84 443 CURVE SMOOTH",
"89 443 OFFCURVE",
"94 442 OFFCURVE",
"99 442 CURVE SMOOTH",
"103 442 OFFCURVE",
"106 443 OFFCURVE",
"110 443 CURVE",
"130 446 LINE",
"121 412 OFFCURVE",
"115 381 OFFCURVE",
"112 347 CURVE SMOOTH",
"110 313 OFFCURVE",
"113 278 OFFCURVE",
"122 242 CURVE SMOOTH",
"126 222 OFFCURVE",
"131 207 OFFCURVE",
"137 196 CURVE",
"144 182 OFFCURVE",
"154 165 OFFCURVE",
"174 141 CURVE",
"190 117 OFFCURVE",
"208 96 OFFCURVE",
"226 77 CURVE SMOOTH",
"244 59 OFFCURVE",
"264 45 OFFCURVE",
"287 34 CURVE SMOOTH",
"309 22 OFFCURVE",
"333 14 OFFCURVE",
"357 10 CURVE",
"383 4 OFFCURVE",
"408 1 OFFCURVE",
"434 1 CURVE SMOOTH",
"478 1 OFFCURVE",
"522 10 OFFCURVE",
"565 26 CURVE SMOOTH",
"609 42 OFFCURVE",
"636 57 OFFCURVE",
"651 74 CURVE SMOOTH",
"665 89 OFFCURVE",
"672 97 OFFCURVE",
"671 101 CURVE SMOOTH",
"669 112 OFFCURVE",
"664 116 OFFCURVE",
"657 114 CURVE",
"632 86 OFFCURVE",
"611 67 OFFCURVE",
"597 59 CURVE SMOOTH",
"579 49 OFFCURVE",
"560 40 OFFCURVE",
"536 35 CURVE",
"513 29 OFFCURVE",
"490 25 OFFCURVE",
"468 25 CURVE SMOOTH",
"418 25 OFFCURVE",
"370 40 OFFCURVE",
"328 69 CURVE SMOOTH",
"286 96 OFFCURVE",
"252 130 OFFCURVE",
"228 168 CURVE SMOOTH",
"202 206 OFFCURVE",
"185 247 OFFCURVE",
"175 291 CURVE SMOOTH",
"169 319 OFFCURVE",
"165 346 OFFCURVE",
"165 368 CURVE",
"164 389 OFFCURVE",
"164 404 OFFCURVE",
"167 416 CURVE SMOOTH",
"179 452 LINE",
"230 464 OFFCURVE",
"263 473 OFFCURVE",
"278 478 CURVE SMOOTH",
"293 483 OFFCURVE",
"310 492 OFFCURVE",
"328 503 CURVE SMOOTH",
"346 514 OFFCURVE",
"362 529 OFFCURVE",
"383 545 CURVE",
"401 563 OFFCURVE",
"413 573 OFFCURVE",
"418 577 CURVE",
"398 500 OFFCURVE",
"376 426 OFFCURVE",
"353 354 CURVE SMOOTH",
"330 283 OFFCURVE",
"308 217 OFFCURVE",
"284 154 CURVE",
"287 139 LINE",
"302 137 OFFCURVE",
"316 136 OFFCURVE",
"335 136 CURVE SMOOTH",
"340 136 LINE SMOOTH",
"346 136 OFFCURVE",
"351 136 OFFCURVE",
"355 137 CURVE",
"369 137 OFFCURVE",
"378 137 OFFCURVE",
"380 139 CURVE",
"380 187 OFFCURVE",
"383 237 OFFCURVE",
"389 286 CURVE",
"396 337 OFFCURVE",
"406 397 OFFCURVE",
"420 468 CURVE SMOOTH",
"434 543 OFFCURVE",
"443 595 OFFCURVE",
"448 634 CURVE",
"439 634 LINE",
"413 590 OFFCURVE",
"379 557 OFFCURVE",
"336 530 CURVE SMOOTH",
"293 505 OFFCURVE",
"242 484 OFFCURVE",
"182 466 CURVE",
"199 510 OFFCURVE",
"212 542 OFFCURVE",
"223 558 CURVE",
"232 573 OFFCURVE",
"248 590 OFFCURVE",
"269 612 CURVE SMOOTH",
"289 630 OFFCURVE",
"307 643 OFFCURVE",
"324 648 CURVE SMOOTH",
"342 653 OFFCURVE",
"359 655 OFFCURVE",
"381 655 CURVE SMOOTH",
"397 655 OFFCURVE",
"425 653 OFFCURVE",
"462 649 CURVE SMOOTH",
"500 644 OFFCURVE",
"528 641 OFFCURVE",
"547 641 CURVE SMOOTH",
"564 641 OFFCURVE",
"579 643 OFFCURVE",
"592 646 CURVE",
"608 649 OFFCURVE",
"621 653 OFFCURVE",
"630 659 CURVE",
"673 678 LINE",
"686 685 OFFCURVE",
"692 694 OFFCURVE",
"694 704 CURVE",
"669 696 OFFCURVE",
"642 693 OFFCURVE",
"616 693 CURVE SMOOTH",
"601 693 OFFCURVE",
"576 695 OFFCURVE",
"540 699 CURVE SMOOTH",
"506 703 OFFCURVE",
"481 705 OFFCURVE",
"467 705 CURVE SMOOTH",
"456 705 OFFCURVE",
"444 704 OFFCURVE",
"431 703 CURVE SMOOTH"
);
}
);
width = 649;
}
);
note = C;
unicode = 0043;
},
{
glyphname = D;
lastChange = "2018-02-05 08:42:07 +0000";
layers = (
{
layerId = "0B1DFD06-3317-40CA-B510-4969A0718C16";
paths = (
{
closed = 1;
nodes = (
"383 710 OFFCURVE",
"325 701 OFFCURVE",
"274 680 CURVE SMOOTH",
"184 640 OFFCURVE",
"139 535 OFFCURVE",
"147 457 CURVE",
"135 457 OFFCURVE",
"124 458 OFFCURVE",
"113 461 CURVE",
"85 464 OFFCURVE",
"42 488 OFFCURVE",
"37 520 CURVE SMOOTH",
"37 532 OFFCURVE",
"40 542 OFFCURVE",
"49 548 CURVE SMOOTH",
"58 554 OFFCURVE",
"76 558 OFFCURVE",
"139 558 CURVE",
"74 573 OFFCURVE",
"47 575 OFFCURVE",
"22 564 CURVE SMOOTH",
"6 555 OFFCURVE",
"-15 539 OFFCURVE",
"-9 515 CURVE SMOOTH",
"-3 489 OFFCURVE",
"30 466 OFFCURVE",
"59 457 CURVE",
"85 451 OFFCURVE",
"114 447 OFFCURVE",
"147 447 CURVE",
"140 417 OFFCURVE",
"167 362 OFFCURVE",
"199 341 CURVE",
"177 374 OFFCURVE",
"161 407 OFFCURVE",
"160 447 CURVE",
"224 462 OFFCURVE",
"265 478 OFFCURVE",
"284 494 CURVE",
"307 510 OFFCURVE",
"333 533 OFFCURVE",
"360 559 CURVE",
"303 418 OFFCURVE",
"262 265 OFFCURVE",
"204 94 CURVE",
"204 90 OFFCURVE",
"200 86 OFFCURVE",
"204 82 CURVE",
"295 80 LINE",
"312 268 OFFCURVE",
"360 446 OFFCURVE",
"397 635 CURVE",
"390 635 LINE",
"367 597 OFFCURVE",
"350 570 OFFCURVE",
"335 552 CURVE SMOOTH",
"320 533 OFFCURVE",
"300 517 OFFCURVE",
"273 500 CURVE SMOOTH",
"247 484 OFFCURVE",
"209 469 OFFCURVE",
"160 458 CURVE",
"164 538 OFFCURVE",
"201 605 OFFCURVE",
"269 646 CURVE SMOOTH",
"312 673 OFFCURVE",
"362 673 OFFCURVE",
"418 659 CURVE SMOOTH",
"487 644 OFFCURVE",
"554 589 OFFCURVE",
"585 519 CURVE SMOOTH",
"637 396 OFFCURVE",
"647 277 OFFCURVE",
"581 172 CURVE SMOOTH",
"554 129 OFFCURVE",
"517 92 OFFCURVE",
"473 62 CURVE",
"364 9 OFFCURVE",
"249 10 OFFCURVE",
"129 69 CURVE",
"130 62 LINE",
"161 41 OFFCURVE",
"197 25 OFFCURVE",
"235 14 CURVE SMOOTH",
"318 -11 OFFCURVE",
"388 -12 OFFCURVE",
"475 14 CURVE SMOOTH",
"527 30 OFFCURVE",
"580 64 OFFCURVE",
"630 127 CURVE SMOOTH",
"711 232 OFFCURVE",
"726 391 OFFCURVE",
"649 540 CURVE SMOOTH",
"604 625 OFFCURVE",
"529 670 OFFCURVE",
"439 694 CURVE SMOOTH"
);
}
);
width = 673;
}
);
note = D;
unicode = 0044;
},
{
glyphname = E;
lastChange = "2018-02-05 08:42:07 +0000";
layers = (
{
layerId = "0B1DFD06-3317-40CA-B510-4969A0718C16";
paths = (
{
closed = 1;
nodes = (
"393 708 OFFCURVE",
"349 696 OFFCURVE",
"310 673 CURVE SMOOTH",
"271 650 OFFCURVE",
"238 622 OFFCURVE",
"210 585 CURVE SMOOTH",
"181 550 OFFCURVE",
"154 509 OFFCURVE",
"130 462 CURVE",
"104 462 LINE SMOOTH",
"94 462 OFFCURVE",
"84 464 OFFCURVE",
"74 469 CURVE",
"66 473 OFFCURVE",
"57 479 OFFCURVE",
"46 488 CURVE",
"38 497 OFFCURVE",
"32 504 OFFCURVE",
"30 512 CURVE SMOOTH",
"29 518 OFFCURVE",
"30 524 OFFCURVE",
"31 532 CURVE",
"33 540 OFFCURVE",
"40 547 OFFCURVE",
"51 550 CURVE",
"60 555 OFFCURVE",
"74 558 OFFCURVE",
"93 558 CURVE SMOOTH",
"98 558 OFFCURVE",
"107 558 OFFCURVE",
"116 557 CURVE",
"126 557 OFFCURVE",
"131 555 OFFCURVE",
"135 555 CURVE",
"120 562 LINE",
"114 565 OFFCURVE",
"106 567 OFFCURVE",
"94 570 CURVE",
"80 573 OFFCURVE",
"66 574 OFFCURVE",
"53 574 CURVE SMOOTH",
"34 574 OFFCURVE",
"19 572 OFFCURVE",
"8 565 CURVE",
"-2 559 OFFCURVE",
"-9 552 OFFCURVE",
"-10 542 CURVE SMOOTH",
"-11 532 OFFCURVE",
"-12 524 OFFCURVE",
"-11 520 CURVE SMOOTH",
"-10 514 OFFCURVE",
"-5 507 OFFCURVE",
"1 498 CURVE",
"7 492 OFFCURVE",
"15 484 OFFCURVE",
"26 475 CURVE",
"38 467 OFFCURVE",
"49 463 OFFCURVE",
"61 459 CURVE SMOOTH",
"72 456 OFFCURVE",
"87 454 OFFCURVE",
"103 454 CURVE SMOOTH",
"129 454 LINE",
"116 421 OFFCURVE",
"109 384 OFFCURVE",
"105 348 CURVE",
"102 310 OFFCURVE",
"105 272 OFFCURVE",
"113 238 CURVE SMOOTH",
"119 212 OFFCURVE",
"129 186 OFFCURVE",
"144 157 CURVE",
"158 129 OFFCURVE",
"180 101 OFFCURVE",
"213 76 CURVE SMOOTH",
"242 52 OFFCURVE",
"277 32 OFFCURVE",
"319 19 CURVE SMOOTH",
"361 5 OFFCURVE",
"395 -1 OFFCURVE",
"429 -1 CURVE SMOOTH",
"471 -1 OFFCURVE",
"512 9 OFFCURVE",
"550 27 CURVE SMOOTH",
"589 46 OFFCURVE",
"624 72 OFFCURVE",
"656 106 CURVE",
"654 116 LINE",
"578 61 OFFCURVE",
"516 34 OFFCURVE",
"467 34 CURVE SMOOTH",
"448 34 OFFCURVE",
"427 35 OFFCURVE",
"396 40 CURVE",
"367 44 OFFCURVE",
"335 59 OFFCURVE",
"301 82 CURVE SMOOTH",
"264 107 OFFCURVE",
"237 134 OFFCURVE",
"221 162 CURVE",
"205 191 OFFCURVE",
"193 216 OFFCURVE",
"184 235 CURVE SMOOTH",
"177 255 OFFCURVE",
"170 275 OFFCURVE",
"165 296 CURVE SMOOTH",
"159 322 OFFCURVE",
"157 348 OFFCURVE",
"157 377 CURVE SMOOTH",
"157 403 OFFCURVE",
"159 431 OFFCURVE",
"164 457 CURVE",
"202 462 OFFCURVE",
"234 469 OFFCURVE",
"262 480 CURVE SMOOTH",
"289 492 OFFCURVE",
"312 502 OFFCURVE",
"327 515 CURVE SMOOTH",
"343 529 OFFCURVE",
"361 540 OFFCURVE",
"380 554 CURVE SMOOTH",
"397 567 OFFCURVE",
"407 577 OFFCURVE",
"415 585 CURVE",
"360 409 LINE SMOOTH",
"348 371 OFFCURVE",
"334 331 OFFCURVE",
"319 286 CURVE SMOOTH",
"272 151 LINE",
"270 141 LINE",
"365 141 LINE",
"357 176 OFFCURVE",
"355 207 OFFCURVE",
"360 233 CURVE",
"363 262 OFFCURVE",
"376 287 OFFCURVE",
"394 312 CURVE SMOOTH",
"413 337 OFFCURVE",
"432 353 OFFCURVE",
"449 367 CURVE",
"466 379 OFFCURVE",
"485 386 OFFCURVE",
"509 386 CURVE SMOOTH",
"522 386 OFFCURVE",
"535 384 OFFCURVE",
"544 381 CURVE",
"555 377 OFFCURVE",
"564 371 OFFCURVE",
"570 363 CURVE",
"583 342 LINE",
"594 346 OFFCURVE",
"598 352 OFFCURVE",
"600 361 CURVE",
"603 369 OFFCURVE",
"603 379 OFFCURVE",
"600 393 CURVE SMOOTH",
"595 413 OFFCURVE",
"583 426 OFFCURVE",
"566 431 CURVE SMOOTH",
"549 436 OFFCURVE",
"533 438 OFFCURVE",
"520 438 CURVE SMOOTH",
"499 438 OFFCURVE",
"481 433 OFFCURVE",
"464 423 CURVE SMOOTH",
"449 413 OFFCURVE",
"435 399 OFFCURVE",
"422 383 CURVE",
"408 367 OFFCURVE",
"396 347 OFFCURVE",
"382 326 CURVE",
"385 357 OFFCURVE",
"389 388 OFFCURVE",
"394 419 CURVE SMOOTH",
"400 451 OFFCURVE",
"405 480 OFFCURVE",
"412 509 CURVE SMOOTH",
"429 583 LINE SMOOTH",
"434 604 OFFCURVE",
"437 624 OFFCURVE",
"437 643 CURVE",
"413 593 OFFCURVE",
"376 552 OFFCURVE",
"328 520 CURVE SMOOTH",
"279 492 OFFCURVE",
"225 472 OFFCURVE",
"165 463 CURVE",
"171 494 OFFCURVE",
"185 525 OFFCURVE",
"205 557 CURVE SMOOTH",
"226 587 OFFCURVE",
"248 610 OFFCURVE",
"269 629 CURVE",
"294 648 OFFCURVE",
"312 659 OFFCURVE",
"331 664 CURVE SMOOTH",
"349 669 OFFCURVE",
"370 671 OFFCURVE",
"395 671 CURVE SMOOTH",
"411 671 OFFCURVE",
"440 669 OFFCURVE",
"482 664 CURVE SMOOTH",
"524 659 OFFCURVE",
"552 656 OFFCURVE",
"564 656 CURVE SMOOTH",
"593 656 OFFCURVE",
"617 660 OFFCURVE",
"637 668 CURVE SMOOTH",
"660 676 OFFCURVE",
"678 689 OFFCURVE",
"691 708 CURVE",
"679 701 OFFCURVE",
"666 698 OFFCURVE",
"656 696 CURVE",
"646 693 OFFCURVE",
"631 694 OFFCURVE",
"615 694 CURVE SMOOTH",
"600 694 OFFCURVE",
"574 696 OFFCURVE",
"533 700 CURVE SMOOTH",
"492 705 OFFCURVE",
"462 708 OFFCURVE",
"445 708 CURVE SMOOTH"
);
}
);
width = 619;
}
);
note = E;
unicode = 0045;
},
{
glyphname = F;
lastChange = "2018-02-05 08:42:07 +0000";
layers = (
{
layerId = "0B1DFD06-3317-40CA-B510-4969A0718C16";
paths = (
{
closed = 1;
nodes = (
"209 644 OFFCURVE",
"183 614 OFFCURVE",
"166 577 CURVE SMOOTH",
"152 540 OFFCURVE",
"144 498 OFFCURVE",
"145 451 CURVE",
"129 451 LINE SMOOTH",
"109 451 OFFCURVE",
"92 453 OFFCURVE",
"76 457 CURVE",
"61 462 OFFCURVE",
"49 469 OFFCURVE",
"43 479 CURVE",
"36 489 OFFCURVE",
"32 497 OFFCURVE",
"31 502 CURVE SMOOTH",
"28 513 OFFCURVE",
"30 523 OFFCURVE",
"36 530 CURVE",
"43 539 OFFCURVE",
"51 544 OFFCURVE",
"59 547 CURVE",
"65 550 OFFCURVE",
"74 552 OFFCURVE",
"86 552 CURVE SMOOTH",
"95 552 OFFCURVE",
"100 550 OFFCURVE",
"109 549 CURVE",
"116 545 OFFCURVE",
"122 547 OFFCURVE",
"128 543 CURVE",
"127 550 LINE",
"103 562 OFFCURVE",
"81 567 OFFCURVE",
"60 567 CURVE SMOOTH",
"46 567 OFFCURVE",
"33 564 OFFCURVE",
"21 559 CURVE",
"9 555 OFFCURVE",
"1 549 OFFCURVE",
"-4 542 CURVE",
"-11 533 OFFCURVE",
"-13 528 OFFCURVE",
"-15 522 CURVE SMOOTH",
"-17 515 OFFCURVE",
"-17 509 OFFCURVE",
"-16 503 CURVE SMOOTH",
"-14 494 OFFCURVE",
"-9 487 OFFCURVE",
"-1 475 CURVE",
"10 464 OFFCURVE",
"26 454 OFFCURVE",
"44 447 CURVE SMOOTH",
"65 439 OFFCURVE",
"87 436 OFFCURVE",
"111 436 CURVE SMOOTH",
"123 436 LINE SMOOTH",
"130 436 OFFCURVE",
"138 437 OFFCURVE",
"148 439 CURVE",
"152 431 OFFCURVE",
"152 423 OFFCURVE",
"159 409 CURVE",
"164 394 OFFCURVE",
"170 383 OFFCURVE",
"176 376 CURVE",
"182 366 OFFCURVE",
"187 357 OFFCURVE",
"195 351 CURVE",
"202 344 OFFCURVE",
"210 337 OFFCURVE",
"221 328 CURVE",
"189 371 LINE",
"179 387 OFFCURVE",
"170 408 OFFCURVE",
"163 439 CURVE",
"205 446 OFFCURVE",
"242 461 OFFCURVE",
"278 484 CURVE SMOOTH",
"315 508 OFFCURVE",
"349 535 OFFCURVE",
"379 567 CURVE",
"383 564 LINE",
"365 494 OFFCURVE",
"347 434 OFFCURVE",
"331 376 CURVE SMOOTH",
"314 317 OFFCURVE",
"293 256 OFFCURVE",
"270 190 CURVE SMOOTH",
"247 121 OFFCURVE",
"223 60 OFFCURVE",
"197 0 CURVE",
"216 0 OFFCURVE",
"236 0 OFFCURVE",
"257 1 CURVE SMOOTH",
"311 5 LINE",
"307 71 OFFCURVE",
"313 130 OFFCURVE",
"328 181 CURVE SMOOTH",
"344 232 OFFCURVE",
"366 273 OFFCURVE",
"395 305 CURVE SMOOTH",
"427 336 OFFCURVE",
"463 351 OFFCURVE",
"507 351 CURVE SMOOTH",
"523 351 LINE SMOOTH",
"534 351 OFFCURVE",
"546 344 OFFCURVE",
"555 332 CURVE",
"564 321 OFFCURVE",
"571 313 OFFCURVE",
"580 310 CURVE",
"586 316 OFFCURVE",
"589 322 OFFCURVE",
"591 328 CURVE",
"594 333 OFFCURVE",
"594 343 OFFCURVE",
"591 359 CURVE SMOOTH",
"588 369 OFFCURVE",
"582 379 OFFCURVE",
"574 388 CURVE",
"566 394 OFFCURVE",
"554 401 OFFCURVE",
"540 406 CURVE",
"525 409 OFFCURVE",
"510 412 OFFCURVE",
"496 412 CURVE SMOOTH",
"463 412 OFFCURVE",
"437 402 OFFCURVE",
"421 381 CURVE",
"401 361 OFFCURVE",
"379 328 OFFCURVE",
"352 282 CURVE",
"348 286 LINE",
"351 292 OFFCURVE",
"359 342 OFFCURVE",
"378 432 CURVE SMOOTH",
"395 524 OFFCURVE",
"405 588 OFFCURVE",
"406 624 CURVE",
"379 584 OFFCURVE",
"350 552 OFFCURVE",
"321 527 CURVE SMOOTH",
"292 502 OFFCURVE",
"265 484 OFFCURVE",
"239 474 CURVE SMOOTH",
"189 454 LINE SMOOTH",
"182 452 OFFCURVE",
"172 451 OFFCURVE",
"160 451 CURVE",
"160 527 OFFCURVE",
"176 577 OFFCURVE",
"212 603 CURVE",
"250 628 OFFCURVE",
"298 641 OFFCURVE",
"368 641 CURVE SMOOTH",
"390 641 OFFCURVE",
"423 640 OFFCURVE",
"473 636 CURVE SMOOTH",
"520 634 OFFCURVE",
"555 633 OFFCURVE",
"579 633 CURVE SMOOTH",
"630 633 OFFCURVE",
"672 638 OFFCURVE",
"706 649 CURVE",
"741 659 OFFCURVE",
"770 678 OFFCURVE",
"793 706 CURVE",
"773 695 OFFCURVE",
"754 688 OFFCURVE",
"731 684 CURVE",
"711 679 OFFCURVE",
"688 676 OFFCURVE",
"661 676 CURVE SMOOTH",
"641 676 OFFCURVE",
"600 680 OFFCURVE",
"534 689 CURVE SMOOTH",
"468 698 OFFCURVE",
"423 701 OFFCURVE",
"393 701 CURVE SMOOTH",
"362 701 OFFCURVE",
"334 699 OFFCURVE",
"313 693 CURVE",
"289 688 OFFCURVE",
"266 679 OFFCURVE",
"244 666 CURVE"
);
}
);
width = 607;
}
);
note = F;
unicode = 0046;
},
{
glyphname = G;
lastChange = "2018-02-05 08:42:07 +0000";
layers = (
{
layerId = "0B1DFD06-3317-40CA-B510-4969A0718C16";
paths = (
{
closed = 1;
nodes = (
"551 700 OFFCURVE",
"508 705 OFFCURVE",
"467 705 CURVE SMOOTH",
"398 705 OFFCURVE",
"340 690 OFFCURVE",
"293 660 CURVE SMOOTH",
"246 629 OFFCURVE",
"213 599 OFFCURVE",
"193 570 CURVE SMOOTH",
"150 503 LINE SMOOTH",
"141 489 OFFCURVE",
"134 475 OFFCURVE",
"130 462 CURVE",
"105 466 OFFCURVE",
"86 467 OFFCURVE",
"72 472 CURVE SMOOTH",
"56 477 OFFCURVE",
"47 484 OFFCURVE",
"44 493 CURVE SMOOTH",
"41 502 OFFCURVE",
"38 508 OFFCURVE",
"37 513 CURVE SMOOTH",
"33 529 OFFCURVE",
"36 540 OFFCURVE",
"45 549 CURVE",
"53 558 OFFCURVE",
"66 563 OFFCURVE",
"84 563 CURVE SMOOTH",
"96 563 OFFCURVE",
"105 564 OFFCURVE",
"114 560 CURVE",
"125 557 OFFCURVE",
"136 555 OFFCURVE",
"150 550 CURVE",
"134 560 OFFCURVE",
"120 568 OFFCURVE",
"106 573 CURVE SMOOTH",
"93 578 OFFCURVE",
"80 580 OFFCURVE",
"67 580 CURVE SMOOTH",
"58 580 OFFCURVE",
"47 579 OFFCURVE",
"34 577 CURVE",
"21 573 OFFCURVE",
"12 569 OFFCURVE",
"3 564 CURVE",
"-6 558 OFFCURVE",
"-11 552 OFFCURVE",
"-13 543 CURVE",
"-15 537 OFFCURVE",
"-15 529 OFFCURVE",
"-13 520 CURVE SMOOTH",
"-9 505 OFFCURVE",
"0 492 OFFCURVE",
"17 479 CURVE",
"36 466 OFFCURVE",
"52 457 OFFCURVE",
"64 453 CURVE SMOOTH",
"79 448 OFFCURVE",
"99 446 OFFCURVE",
"124 446 CURVE",
"109 417 OFFCURVE",
"99 387 OFFCURVE",
"95 354 CURVE",
"92 319 OFFCURVE",
"92 286 OFFCURVE",
"100 252 CURVE SMOOTH",
"104 236 OFFCURVE",
"111 215 OFFCURVE",
"123 186 CURVE SMOOTH",
"134 157 OFFCURVE",
"154 129 OFFCURVE",
"182 101 CURVE SMOOTH",
"210 72 OFFCURVE",
"242 49 OFFCURVE",
"280 31 CURVE SMOOTH",
"325 11 OFFCURVE",
"369 1 OFFCURVE",
"414 1 CURVE SMOOTH",
"450 1 OFFCURVE",
"486 7 OFFCURVE",
"518 21 CURVE SMOOTH",
"550 35 OFFCURVE",
"583 56 OFFCURVE",
"616 86 CURVE SMOOTH",
"648 117 OFFCURVE",
"674 154 OFFCURVE",
"690 195 CURVE SMOOTH",
"708 237 OFFCURVE",
"711 282 OFFCURVE",
"700 331 CURVE SMOOTH",
"696 347 OFFCURVE",
"690 367 OFFCURVE",
"680 389 CURVE SMOOTH",
"670 411 OFFCURVE",
"655 431 OFFCURVE",
"637 449 CURVE",
"616 468 OFFCURVE",
"597 478 OFFCURVE",
"580 482 CURVE",
"562 487 OFFCURVE",
"547 489 OFFCURVE",
"534 489 CURVE SMOOTH",
"502 489 OFFCURVE",
"474 479 OFFCURVE",
"452 461 CURVE SMOOTH",
"429 441 OFFCURVE",
"406 416 OFFCURVE",
"384 384 CURVE",
"380 388 LINE",
"383 424 OFFCURVE",
"392 467 OFFCURVE",
"404 520 CURVE SMOOTH",
"418 574 OFFCURVE",
"425 607 OFFCURVE",
"428 618 CURVE",
"424 633 LINE",
"405 594 OFFCURVE",
"380 563 OFFCURVE",
"350 538 CURVE",
"320 514 OFFCURVE",
"290 497 OFFCURVE",
"261 484 CURVE SMOOTH",
"229 470 OFFCURVE",
"207 466 OFFCURVE",
"198 462 CURVE",
"163 457 LINE",
"178 497 OFFCURVE",
"195 533 OFFCURVE",
"221 568 CURVE SMOOTH",
"245 600 OFFCURVE",
"271 623 OFFCURVE",
"298 636 CURVE SMOOTH",
"323 650 OFFCURVE",
"343 655 OFFCURVE",
"358 659 CURVE",
"373 661 OFFCURVE",
"390 663 OFFCURVE",
"410 663 CURVE SMOOTH",
"425 663 OFFCURVE",
"452 660 OFFCURVE",
"492 656 CURVE SMOOTH",
"531 653 OFFCURVE",
"556 650 OFFCURVE",
"575 650 CURVE SMOOTH",
"600 650 OFFCURVE",
"624 654 OFFCURVE",
"643 661 CURVE SMOOTH",
"661 669 OFFCURVE",
"677 683 OFFCURVE",
"689 701 CURVE",
"655 691 LINE SMOOTH",
"642 688 OFFCURVE",
"633 686 OFFCURVE",
"623 686 CURVE SMOOTH",
"619 686 OFFCURVE",
"614 688 OFFCURVE",
"611 688 CURVE SMOOTH",
"606 688 OFFCURVE",
"601 689 OFFCURVE",
"597 690 CURVE"
);
},
{
closed = 1;
nodes = (
"247 157 LINE",
"248 152 LINE SMOOTH",
"250 147 OFFCURVE",
"251 145 OFFCURVE",
"254 144 CURVE",
"267 140 LINE",
"350 144 LINE",
"350 187 OFFCURVE",
"353 227 OFFCURVE",
"361 266 CURVE SMOOTH",
"368 307 OFFCURVE",
"381 342 OFFCURVE",
"399 371 CURVE",
"416 401 OFFCURVE",
"442 423 OFFCURVE",
"478 437 CURVE",
"487 439 OFFCURVE",
"495 441 OFFCURVE",
"504 441 CURVE SMOOTH",
"525 441 OFFCURVE",
"547 433 OFFCURVE",
"569 417 CURVE SMOOTH",
"592 401 OFFCURVE",
"608 384 OFFCURVE",
"621 366 CURVE",
"632 347 OFFCURVE",
"641 327 OFFCURVE",
"646 307 CURVE SMOOTH",
"650 286 OFFCURVE",
"653 267 OFFCURVE",
"650 248 CURVE",
"650 231 OFFCURVE",
"643 205 OFFCURVE",
"632 170 CURVE",
"620 136 OFFCURVE",
"602 106 OFFCURVE",
"577 82 CURVE SMOOTH",
"551 56 OFFCURVE",
"514 44 OFFCURVE",
"470 44 CURVE SMOOTH",
"424 44 OFFCURVE",
"384 51 OFFCURVE",
"347 65 CURVE SMOOTH",
"310 79 OFFCURVE",
"279 100 OFFCURVE",
"252 129 CURVE SMOOTH",
"221 160 OFFCURVE",
"199 187 OFFCURVE",
"188 211 CURVE SMOOTH",
"174 236 OFFCURVE",
"165 263 OFFCURVE",
"158 292 CURVE SMOOTH",
"152 318 OFFCURVE",
"149 346 OFFCURVE",
"150 372 CURVE",
"152 398 OFFCURVE",
"152 422 OFFCURVE",
"161 446 CURVE",
"192 446 OFFCURVE",
"220 451 OFFCURVE",
"246 461 CURVE SMOOTH",
"270 470 OFFCURVE",
"294 484 OFFCURVE",
"317 500 CURVE",
"390 559 LINE"
);
}
);
width = 714;
}
);
note = G;
unicode = 0047;
},
{
glyphname = H;
lastChange = "2018-02-05 08:42:07 +0000";
layers = (
{
layerId = "0B1DFD06-3317-40CA-B510-4969A0718C16";
paths = (
{
closed = 1;
nodes = (
"275 684 OFFCURVE",
"235 668 OFFCURVE",
"203 639 CURVE SMOOTH",
"171 612 OFFCURVE",
"152 583 OFFCURVE",
"145 552 CURVE SMOOTH",
"139 522 OFFCURVE",
"137 500 OFFCURVE",
"137 487 CURVE",
"138 473 OFFCURVE",
"141 459 OFFCURVE",
"144 443 CURVE",
"117 443 LINE SMOOTH",
"102 443 OFFCURVE",
"88 444 OFFCURVE",
"75 447 CURVE",
"62 451 OFFCURVE",
"51 456 OFFCURVE",
"43 463 CURVE",
"35 472 OFFCURVE",
"28 482 OFFCURVE",
"26 490 CURVE SMOOTH",
"24 499 OFFCURVE",
"24 507 OFFCURVE",
"27 513 CURVE",
"29 520 OFFCURVE",
"34 527 OFFCURVE",
"41 530 CURVE",
"50 534 OFFCURVE",
"63 537 OFFCURVE",
"82 537 CURVE SMOOTH",
"121 537 LINE",
"99 547 OFFCURVE",
"77 552 OFFCURVE",
"56 552 CURVE SMOOTH",
"42 552 OFFCURVE",
"28 549 OFFCURVE",
"15 545 CURVE",
"-7 528 LINE SMOOTH",
"-17 520 OFFCURVE",
"-21 510 OFFCURVE",
"-18 498 CURVE SMOOTH",
"-18 494 OFFCURVE",
"-17 490 OFFCURVE",
"-14 487 CURVE SMOOTH",
"0 461 OFFCURVE",
"21 444 OFFCURVE",
"49 437 CURVE SMOOTH",
"72 431 OFFCURVE",
"106 428 OFFCURVE",
"149 428 CURVE",
"162 393 LINE",
"167 379 OFFCURVE",
"171 369 OFFCURVE",
"177 361 CURVE",
"183 351 OFFCURVE",
"187 343 OFFCURVE",
"193 338 CURVE",
"211 318 LINE",
"211 318 OFFCURVE",
"207 323 OFFCURVE",
"200 334 CURVE SMOOTH",
"181 369 LINE",
"168 397 LINE",
"165 401 OFFCURVE",
"163 411 OFFCURVE",
"159 428 CURVE",
"196 433 OFFCURVE",
"231 447 OFFCURVE",
"266 468 CURVE SMOOTH",
"300 489 OFFCURVE",
"333 514 OFFCURVE",
"362 544 CURVE",
"366 542 LINE",
"349 482 OFFCURVE",
"329 421 OFFCURVE",
"310 357 CURVE SMOOTH",
"292 293 OFFCURVE",
"272 233 OFFCURVE",
"250 178 CURVE SMOOTH",
"231 124 OFFCURVE",
"208 70 OFFCURVE",
"181 19 CURVE",
"186 0 LINE",
"196 -2 OFFCURVE",
"206 -4 OFFCURVE",
"217 -4 CURVE SMOOTH",
"226 -4 OFFCURVE",
"237 -2 OFFCURVE",
"253 -1 CURVE SMOOTH",
"270 0 OFFCURVE",
"279 1 OFFCURVE",
"284 1 CURVE SMOOTH",
"291 1 LINE SMOOTH",
"295 1 OFFCURVE",
"297 0 OFFCURVE",
"301 0 CURVE",
"295 24 OFFCURVE",
"292 44 OFFCURVE",
"295 62 CURVE",
"296 81 OFFCURVE",
"301 107 OFFCURVE",
"308 142 CURVE",
"337 265 LINE SMOOTH",
"351 311 OFFCURVE",
"369 351 OFFCURVE",
"393 382 CURVE SMOOTH",
"416 413 OFFCURVE",
"442 432 OFFCURVE",
"472 437 CURVE SMOOTH",
"499 442 OFFCURVE",
"517 444 OFFCURVE",
"526 444 CURVE SMOOTH",
"537 444 OFFCURVE",
"550 442 OFFCURVE",
"565 438 CURVE SMOOTH",
"578 434 OFFCURVE",
"593 427 OFFCURVE",
"607 416 CURVE",
"624 404 OFFCURVE",
"635 392 OFFCURVE",
"645 378 CURVE",
"655 362 OFFCURVE",
"663 346 OFFCURVE",
"667 329 CURVE SMOOTH",
"668 321 OFFCURVE",
"671 298 OFFCURVE",
"676 260 CURVE SMOOTH",
"682 221 OFFCURVE",
"672 176 OFFCURVE",
"650 125 CURVE SMOOTH",
"626 74 OFFCURVE",
"593 40 OFFCURVE",
"551 25 CURVE SMOOTH",
"505 10 OFFCURVE",
"475 1 OFFCURVE",
"451 1 CURVE SMOOTH",
"435 1 OFFCURVE",
"420 4 OFFCURVE",
"401 10 CURVE SMOOTH",
"387 15 OFFCURVE",
"371 22 OFFCURVE",
"357 34 CURVE",
"359 22 OFFCURVE",
"366 15 OFFCURVE",
"378 10 CURVE",
"391 1 OFFCURVE",
"406 -1 OFFCURVE",
"423 -5 CURVE",
"438 -9 OFFCURVE",
"454 -10 OFFCURVE",
"473 -10 CURVE SMOOTH",
"503 -10 OFFCURVE",
"530 -6 OFFCURVE",
"557 2 CURVE SMOOTH",
"584 11 OFFCURVE",
"608 22 OFFCURVE",
"631 36 CURVE",
"677 72 OFFCURVE",
"711 115 OFFCURVE",
"732 166 CURVE SMOOTH",
"755 215 OFFCURVE",
"761 267 OFFCURVE",
"748 323 CURVE SMOOTH",
"743 344 OFFCURVE",
"735 366 OFFCURVE",
"724 388 CURVE",
"714 409 OFFCURVE",
"701 427 OFFCURVE",
"683 442 CURVE",
"667 456 OFFCURVE",
"645 468 OFFCURVE",
"622 479 CURVE SMOOTH",
"597 490 OFFCURVE",
"575 495 OFFCURVE",
"553 495 CURVE SMOOTH",
"519 495 OFFCURVE",
"490 485 OFFCURVE",
"462 467 CURVE SMOOTH",
"434 447 OFFCURVE",
"413 428 OFFCURVE",
"396 409 CURVE",
"361 366 LINE",
"354 354 OFFCURVE",
"347 347 OFFCURVE",
"343 342 CURVE",
"346 366 OFFCURVE",
"353 401 OFFCURVE",
"365 449 CURVE SMOOTH",
"378 498 OFFCURVE",
"385 530 OFFCURVE",
"388 545 CURVE",
"393 562 OFFCURVE",
"394 584 OFFCURVE",
"396 613 CURVE",
"391 613 LINE",
"365 568 OFFCURVE",
"334 532 OFFCURVE",
"294 505 CURVE SMOOTH",
"255 479 OFFCURVE",
"209 458 OFFCURVE",
"154 444 CURVE",
"150 463 OFFCURVE",
"147 479 OFFCURVE",
"147 490 CURVE SMOOTH",
"147 502 OFFCURVE",
"151 523 OFFCURVE",
"159 552 CURVE SMOOTH",
"167 582 OFFCURVE",
"187 604 OFFCURVE",
"219 620 CURVE SMOOTH",
"250 636 OFFCURVE",
"292 644 OFFCURVE",
"345 644 CURVE SMOOTH",
"370 644 OFFCURVE",
"410 641 OFFCURVE",
"463 636 CURVE SMOOTH",
"518 631 OFFCURVE",
"557 628 OFFCURVE",
"581 628 CURVE SMOOTH",
"604 628 OFFCURVE",
"624 629 OFFCURVE",
"643 631 CURVE SMOOTH",
"661 634 OFFCURVE",
"677 638 OFFCURVE",
"692 644 CURVE",
"710 649 OFFCURVE",
"723 656 OFFCURVE",
"737 665 CURVE SMOOTH",
"750 674 OFFCURVE",
"758 685 OFFCURVE",
"763 699 CURVE",
"742 688 OFFCURVE",
"722 681 OFFCURVE",
"707 678 CURVE",
"688 674 OFFCURVE",
"665 673 OFFCURVE",
"640 673 CURVE SMOOTH",
"618 673 OFFCURVE",
"576 676 OFFCURVE",
"515 684 CURVE SMOOTH",
"453 691 OFFCURVE",
"411 695 OFFCURVE",
"387 695 CURVE SMOOTH",
"363 695 OFFCURVE",
"341 694 OFFCURVE",
"322 690 CURVE"
);
}
);
width = 748;
}
);
note = H;
unicode = 0048;
},
{
glyphname = I;
lastChange = "2018-02-05 08:42:07 +0000";
layers = (
{
layerId = "0B1DFD06-3317-40CA-B510-4969A0718C16";
paths = (
{
closed = 1;
nodes = (
"459 580 LINE SMOOTH",
"428 559 OFFCURVE",
"393 548 OFFCURVE",
"356 548 CURVE SMOOTH",
"341 548 OFFCURVE",
"328 549 OFFCURVE",
"313 553 CURVE",
"296 557 OFFCURVE",
"285 562 OFFCURVE",
"277 567 CURVE",
"270 570 OFFCURVE",
"263 577 OFFCURVE",
"260 585 CURVE",
"255 593 OFFCURVE",
"252 599 OFFCURVE",
"251 603 CURVE SMOOTH",
"248 618 OFFCURVE",
"250 630 OFFCURVE",
"259 639 CURVE",
"267 648 OFFCURVE",
"275 653 OFFCURVE",
"282 654 CURVE",
"289 656 OFFCURVE",
"298 658 OFFCURVE",
"306 658 CURVE SMOOTH",
"323 658 OFFCURVE",
"338 655 OFFCURVE",
"355 649 CURVE",
"372 644 OFFCURVE",
"387 638 OFFCURVE",
"402 631 CURVE",
"392 641 LINE",
"386 646 OFFCURVE",
"380 651 OFFCURVE",
"369 660 CURVE SMOOTH",
"358 669 OFFCURVE",
"346 675 OFFCURVE",
"331 680 CURVE",
"313 685 OFFCURVE",
"298 689 OFFCURVE",
"282 689 CURVE SMOOTH",
"261 689 OFFCURVE",
"239 684 OFFCURVE",
"218 673 CURVE",
"205 666 OFFCURVE",
"195 658 OFFCURVE",
"191 649 CURVE",
"184 640 OFFCURVE",
"184 628 OFFCURVE",
"187 613 CURVE SMOOTH",
"191 594 OFFCURVE",
"202 577 OFFCURVE",
"221 562 CURVE SMOOTH",
"239 547 OFFCURVE",
"257 537 OFFCURVE",
"272 532 CURVE",
"286 525 OFFCURVE",
"305 523 OFFCURVE",
"324 523 CURVE SMOOTH",
"342 523 OFFCURVE",
"359 525 OFFCURVE",
"375 530 CURVE",
"394 534 OFFCURVE",
"412 539 OFFCURVE",
"430 548 CURVE SMOOTH",
"448 557 OFFCURVE",
"468 567 OFFCURVE",
"489 582 CURVE",
"511 595 OFFCURVE",
"527 605 OFFCURVE",
"540 609 CURVE",
"518 573 OFFCURVE",
"503 537 OFFCURVE",
"491 502 CURVE SMOOTH",
"479 467 OFFCURVE",
"468 433 OFFCURVE",
"460 399 CURVE SMOOTH",
"452 366 OFFCURVE",
"441 317 OFFCURVE",
"427 252 CURVE",
"401 262 OFFCURVE",
"374 271 OFFCURVE",
"347 276 CURVE",
"320 282 OFFCURVE",
"291 285 OFFCURVE",
"265 285 CURVE SMOOTH",
"231 285 OFFCURVE",
"199 280 OFFCURVE",
"168 270 CURVE SMOOTH",
"139 260 OFFCURVE",
"113 245 OFFCURVE",
"93 225 CURVE SMOOTH",
"73 205 OFFCURVE",
"58 185 OFFCURVE",
"50 165 CURVE SMOOTH",
"40 144 OFFCURVE",
"40 121 OFFCURVE",
"45 99 CURVE SMOOTH",
"46 92 OFFCURVE",
"51 79 OFFCURVE",
"60 57 CURVE SMOOTH",
"69 39 OFFCURVE",
"83 24 OFFCURVE",
"106 10 CURVE SMOOTH",
"129 -4 OFFCURVE",
"155 -10 OFFCURVE",
"183 -10 CURVE SMOOTH",
"264 -10 OFFCURVE",
"330 7 OFFCURVE",
"381 42 CURVE SMOOTH",
"433 77 OFFCURVE",
"468 129 OFFCURVE",
"487 196 CURVE",
"504 185 OFFCURVE",
"517 173 OFFCURVE",
"528 163 CURVE",
"539 151 OFFCURVE",
"550 135 OFFCURVE",
"564 116 CURVE",
"555 135 OFFCURVE",
"547 151 OFFCURVE",
"538 162 CURVE",
"527 173 OFFCURVE",
"514 188 OFFCURVE",
"492 208 CURVE",
"498 242 OFFCURVE",
"504 297 OFFCURVE",
"510 378 CURVE SMOOTH",
"516 459 OFFCURVE",
"527 524 OFFCURVE",
"541 573 CURVE SMOOTH",
"557 622 OFFCURVE",
"589 661 OFFCURVE",
"635 691 CURVE",
"616 685 OFFCURVE",
"601 678 OFFCURVE",
"587 669 CURVE SMOOTH",
"575 661 OFFCURVE",
"559 650 OFFCURVE",
"539 635 CURVE SMOOTH"
);
},
{
closed = 1;
nodes = (
"280 268 OFFCURVE",
"292 270 OFFCURVE",
"303 270 CURVE SMOOTH",
"323 270 OFFCURVE",
"343 267 OFFCURVE",
"360 261 CURVE",
"381 255 OFFCURVE",
"401 246 OFFCURVE",
"422 236 CURVE",
"412 197 OFFCURVE",
"404 163 OFFCURVE",
"394 137 CURVE",
"384 109 OFFCURVE",
"370 86 OFFCURVE",
"349 62 CURVE",
"331 39 OFFCURVE",
"308 24 OFFCURVE",
"283 16 CURVE",
"260 7 OFFCURVE",
"246 4 OFFCURVE",
"238 2 CURVE SMOOTH",
"229 1 OFFCURVE",
"223 0 OFFCURVE",
"211 0 CURVE SMOOTH",
"190 0 OFFCURVE",
"171 5 OFFCURVE",
"155 16 CURVE SMOOTH",
"138 27 OFFCURVE",
"126 37 OFFCURVE",
"120 47 CURVE",
"115 56 OFFCURVE",
"110 67 OFFCURVE",
"107 81 CURVE SMOOTH",
"105 91 OFFCURVE",
"102 109 OFFCURVE",
"104 137 CURVE",
"105 163 OFFCURVE",
"119 190 OFFCURVE",
"148 216 CURVE",
"178 241 OFFCURVE",
"217 257 OFFCURVE",
"267 266 CURVE SMOOTH"
);
}
);
width = 522;
}
);
note = I;
unicode = 0049;
},
{
glyphname = J;
lastChange = "2018-02-05 08:42:07 +0000";
layers = (
{
layerId = "0B1DFD06-3317-40CA-B510-4969A0718C16";
paths = (
{
closed = 1;
nodes = (
"170 689 OFFCURVE",
"157 684 OFFCURVE",
"144 675 CURVE",
"132 666 OFFCURVE",
"124 658 OFFCURVE",
"121 648 CURVE",
"120 636 OFFCURVE",
"119 629 OFFCURVE",
"120 624 CURVE SMOOTH",
"123 614 OFFCURVE",
"127 605 OFFCURVE",
"136 597 CURVE",
"144 587 OFFCURVE",
"153 578 OFFCURVE",
"164 570 CURVE",
"182 559 OFFCURVE",
"202 553 OFFCURVE",
"219 548 CURVE",
"239 544 OFFCURVE",
"257 542 OFFCURVE",
"276 542 CURVE SMOOTH",
"312 542 OFFCURVE",
"348 549 OFFCURVE",
"380 564 CURVE SMOOTH",
"413 579 OFFCURVE",
"443 598 OFFCURVE",
"470 622 CURVE",
"475 619 LINE",
"442 565 OFFCURVE",
"414 512 OFFCURVE",
"395 453 CURVE SMOOTH",
"374 394 OFFCURVE",
"361 339 OFFCURVE",
"351 288 CURVE SMOOTH",
"342 237 OFFCURVE",
"329 161 OFFCURVE",
"315 57 CURVE",
"300 20 LINE",
"256 39 OFFCURVE",
"208 49 OFFCURVE",
"158 49 CURVE SMOOTH",
"133 49 OFFCURVE",
"113 47 OFFCURVE",
"90 42 CURVE SMOOTH",
"67 37 OFFCURVE",
"46 27 OFFCURVE",
"24 12 CURVE",
"-2 -1 OFFCURVE",
"-18 -22 OFFCURVE",
"-37 -47 CURVE",
"-51 -74 OFFCURVE",
"-57 -104 OFFCURVE",
"-49 -137 CURVE SMOOTH",
"-47 -146 OFFCURVE",
"-43 -152 OFFCURVE",
"-40 -161 CURVE",
"-28 -176 OFFCURVE",
"-15 -188 OFFCURVE",
"-1 -202 CURVE",
"12 -212 OFFCURVE",
"29 -220 OFFCURVE",
"47 -226 CURVE",
"64 -228 OFFCURVE",
"81 -230 OFFCURVE",
"97 -230 CURVE SMOOTH",
"157 -230 OFFCURVE",
"208 -212 OFFCURVE",
"254 -176 CURVE SMOOTH",
"299 -140 OFFCURVE",
"337 -92 OFFCURVE",
"369 -34 CURVE",
"378 -37 OFFCURVE",
"416 -72 OFFCURVE",
"416 -71 CURVE",
"412 -62 OFFCURVE",
"403 -51 OFFCURVE",
"392 -41 CURVE",
"388 -35 OFFCURVE",
"381 -30 OFFCURVE",
"375 -24 CURVE",
"378 -17 OFFCURVE",
"379 -11 OFFCURVE",
"382 -7 CURVE",
"385 -1 LINE",
"392 44 OFFCURVE",
"402 117 OFFCURVE",
"408 221 CURVE SMOOTH",
"416 324 OFFCURVE",
"425 407 OFFCURVE",
"439 470 CURVE SMOOTH",
"453 534 OFFCURVE",
"470 580 OFFCURVE",
"491 608 CURVE SMOOTH",
"512 636 OFFCURVE",
"526 655 OFFCURVE",
"535 664 CURVE SMOOTH",
"544 673 OFFCURVE",
"549 680 OFFCURVE",
"548 686 CURVE",
"544 688 OFFCURVE",
"540 689 OFFCURVE",
"539 689 CURVE SMOOTH",
"533 689 OFFCURVE",
"435 609 OFFCURVE",
"422 602 CURVE SMOOTH",
"406 592 OFFCURVE",
"388 580 OFFCURVE",
"360 572 CURVE SMOOTH",
"335 563 OFFCURVE",
"309 558 OFFCURVE",
"282 558 CURVE",
"258 562 OFFCURVE",
"239 565 OFFCURVE",
"223 572 CURVE",
"211 575 OFFCURVE",
"200 583 OFFCURVE",
"194 593 CURVE",
"187 602 OFFCURVE",
"185 609 OFFCURVE",
"184 613 CURVE SMOOTH",
"182 620 OFFCURVE",
"184 626 OFFCURVE",
"188 633 CURVE",
"196 650 LINE",
"208 660 OFFCURVE",
"223 665 OFFCURVE",
"242 665 CURVE SMOOTH",
"258 665 OFFCURVE",
"275 661 OFFCURVE",
"290 655 CURVE",
"308 649 OFFCURVE",
"325 640 OFFCURVE",
"344 630 CURVE",
"315 651 OFFCURVE",
"289 666 OFFCURVE",
"264 676 CURVE",
"241 688 OFFCURVE",
"214 693 OFFCURVE",
"185 693 CURVE"
);
},
{
closed = 1;
nodes = (
"92 11 OFFCURVE",
"110 17 OFFCURVE",
"129 24 CURVE",
"149 29 OFFCURVE",
"170 32 OFFCURVE",
"191 32 CURVE SMOOTH",
"209 32 OFFCURVE",
"228 30 OFFCURVE",
"247 26 CURVE",
"267 21 OFFCURVE",
"283 15 OFFCURVE",
"297 6 CURVE",
"282 -34 OFFCURVE",
"267 -70 OFFCURVE",
"250 -102 CURVE SMOOTH",
"234 -135 OFFCURVE",
"211 -161 OFFCURVE",
"184 -182 CURVE SMOOTH",
"158 -205 OFFCURVE",
"125 -216 OFFCURVE",
"87 -216 CURVE SMOOTH",
"78 -216 OFFCURVE",
"68 -216 OFFCURVE",
"58 -215 CURVE",
"47 -212 OFFCURVE",
"39 -207 OFFCURVE",
"30 -198 CURVE",
"22 -188 OFFCURVE",
"15 -178 OFFCURVE",
"8 -167 CURVE",
"0 -131 OFFCURVE",
"2 -99 OFFCURVE",
"18 -70 CURVE SMOOTH",
"32 -40 OFFCURVE",
"52 -16 OFFCURVE",
"78 0 CURVE"
);
}
);
width = 458;
}
);
note = J;
unicode = 004A;
},
{
glyphname = K;
lastChange = "2018-02-05 08:42:07 +0000";
layers = (
{
layerId = "0B1DFD06-3317-40CA-B510-4969A0718C16";
paths = (
{
closed = 1;
nodes = (
"451 562 OFFCURVE",
"402 490 OFFCURVE",
"362 418 CURVE SMOOTH",
"324 344 OFFCURVE",
"287 263 OFFCURVE",
"254 172 CURVE",
"250 172 LINE",
"265 257 OFFCURVE",
"278 342 OFFCURVE",
"296 428 CURVE SMOOTH",
"315 517 OFFCURVE",
"332 602 OFFCURVE",
"355 691 CURVE",
"343 694 LINE",
"329 678 OFFCURVE",
"313 651 OFFCURVE",
"289 613 CURVE",
"266 583 OFFCURVE",
"245 564 OFFCURVE",
"223 557 CURVE SMOOTH",
"177 542 LINE",
"168 538 OFFCURVE",
"158 539 OFFCURVE",
"148 539 CURVE SMOOTH",
"134 539 OFFCURVE",
"122 542 OFFCURVE",
"112 547 CURVE",
"100 553 OFFCURVE",
"94 559 OFFCURVE",
"92 565 CURVE",
"87 573 OFFCURVE",
"84 579 OFFCURVE",
"83 584 CURVE SMOOTH",
"81 595 OFFCURVE",
"84 604 OFFCURVE",
"91 612 CURVE",
"99 619 OFFCURVE",
"108 624 OFFCURVE",
"117 626 CURVE SMOOTH",
"128 629 OFFCURVE",
"140 630 OFFCURVE",
"155 630 CURVE SMOOTH",
"164 630 OFFCURVE",
"171 631 OFFCURVE",
"185 628 CURVE",
"223 624 LINE",
"207 633 OFFCURVE",
"189 641 OFFCURVE",
"168 648 CURVE SMOOTH",
"151 653 OFFCURVE",
"136 656 OFFCURVE",
"117 656 CURVE SMOOTH",
"108 656 OFFCURVE",
"97 655 OFFCURVE",
"81 653 CURVE SMOOTH",
"68 650 OFFCURVE",
"54 644 OFFCURVE",
"40 635 CURVE",
"29 625 OFFCURVE",
"23 612 OFFCURVE",
"25 594 CURVE",
"29 574 OFFCURVE",
"39 559 OFFCURVE",
"54 549 CURVE",
"70 539 OFFCURVE",
"84 533 OFFCURVE",
"96 529 CURVE",
"111 525 OFFCURVE",
"124 523 OFFCURVE",
"137 523 CURVE SMOOTH",
"172 523 OFFCURVE",
"206 533 OFFCURVE",
"237 554 CURVE",
"270 574 OFFCURVE",
"296 598 OFFCURVE",
"314 624 CURVE",
"297 560 OFFCURVE",
"279 497 OFFCURVE",
"258 433 CURVE SMOOTH",
"238 369 OFFCURVE",
"212 301 OFFCURVE",
"184 222 CURVE SMOOTH",
"156 144 OFFCURVE",
"129 74 OFFCURVE",
"105 4 CURVE",
"117 0 OFFCURVE",
"127 -1 OFFCURVE",
"136 -2 CURVE",
"144 -2 OFFCURVE",
"155 -4 OFFCURVE",
"169 -4 CURVE",
"177 -2 OFFCURVE",
"186 -2 OFFCURVE",
"194 -2 CURVE SMOOTH",
"219 -2 LINE",
"236 62 OFFCURVE",
"256 127 OFFCURVE",
"280 196 CURVE SMOOTH",
"306 265 OFFCURVE",
"332 328 OFFCURVE",
"363 389 CURVE",
"385 341 OFFCURVE",
"406 293 OFFCURVE",
"431 245 CURVE",
"454 196 OFFCURVE",
"481 145 OFFCURVE",
"514 89 CURVE SMOOTH",
"548 34 OFFCURVE",
"595 -37 OFFCURVE",
"658 -124 CURVE",
"616 -29 OFFCURVE",
"579 52 OFFCURVE",
"552 119 CURVE SMOOTH",
"524 187 OFFCURVE",
"500 248 OFFCURVE",
"480 303 CURVE SMOOTH",
"458 359 OFFCURVE",
"439 416 OFFCURVE",
"417 470 CURVE",
"431 494 OFFCURVE",
"445 518 OFFCURVE",
"460 540 CURVE SMOOTH",
"475 564 OFFCURVE",
"490 582 OFFCURVE",
"505 600 CURVE SMOOTH",
"521 619 OFFCURVE",
"539 633 OFFCURVE",
"557 646 CURVE SMOOTH",
"577 661 OFFCURVE",
"592 671 OFFCURVE",
"602 675 CURVE",
"615 681 OFFCURVE",
"625 684 OFFCURVE",
"634 684 CURVE SMOOTH",
"645 684 OFFCURVE",
"656 680 OFFCURVE",
"669 675 CURVE SMOOTH",
"678 671 OFFCURVE",
"689 664 OFFCURVE",
"700 655 CURVE",
"709 646 OFFCURVE",
"714 639 OFFCURVE",
"715 635 CURVE SMOOTH",
"717 629 OFFCURVE",
"717 624 OFFCURVE",
"715 619 CURVE SMOOTH",
"714 614 OFFCURVE",
"711 607 OFFCURVE",
"705 597 CURVE",
"701 587 OFFCURVE",
"693 579 OFFCURVE",
"680 574 CURVE",
"668 570 OFFCURVE",
"652 568 OFFCURVE",
"636 568 CURVE SMOOTH",
"625 568 OFFCURVE",
"614 567 OFFCURVE",
"601 570 CURVE",
"590 572 OFFCURVE",
"578 574 OFFCURVE",
"567 578 CURVE",
"568 572 LINE",
"582 567 OFFCURVE",
"596 562 OFFCURVE",
"612 558 CURVE",
"627 553 OFFCURVE",
"641 550 OFFCURVE",
"655 550 CURVE SMOOTH",
"686 550 OFFCURVE",
"713 554 OFFCURVE",
"734 563 CURVE SMOOTH",
"755 572 OFFCURVE",
"767 583 OFFCURVE",
"773 598 CURVE",
"778 612 OFFCURVE",
"779 623 OFFCURVE",
"777 631 CURVE SMOOTH",
"773 650 OFFCURVE",
"759 668 OFFCURVE",
"736 683 CURVE",
"712 696 OFFCURVE",
"685 704 OFFCURVE",
"655 704 CURVE SMOOTH",
"628 704 OFFCURVE",
"602 698 OFFCURVE",
"578 684 CURVE SMOOTH",
"552 670 OFFCURVE",
"530 653 OFFCURVE",
"511 631 CURVE SMOOTH"
);
}
);
width = 659;
}
);
note = K;
unicode = 004B;
},
{
glyphname = L;
lastChange = "2018-02-05 08:42:07 +0000";
layers = (
{
layerId = "0B1DFD06-3317-40CA-B510-4969A0718C16";
paths = (
{
closed = 1;
nodes = (
"583 695 OFFCURVE",
"531 671 OFFCURVE",
"490 629 CURVE SMOOTH",
"448 588 OFFCURVE",
"418 537 OFFCURVE",
"398 474 CURVE",
"375 489 OFFCURVE",
"358 500 OFFCURVE",
"347 509 CURVE SMOOTH",
"337 518 OFFCURVE",
"327 530 OFFCURVE",
"316 545 CURVE",
"321 527 OFFCURVE",
"330 510 OFFCURVE",
"344 497 CURVE",
"356 483 OFFCURVE",
"374 469 OFFCURVE",
"394 457 CURVE",
"387 433 OFFCURVE",
"381 401 OFFCURVE",
"377 359 CURVE SMOOTH",
"373 321 OFFCURVE",
"368 286 OFFCURVE",
"363 257 CURVE SMOOTH",
"358 231 OFFCURVE",
"349 206 OFFCURVE",
"335 180 CURVE SMOOTH",
"322 155 OFFCURVE",
"307 134 OFFCURVE",
"290 116 CURVE",
"272 124 OFFCURVE",
"253 129 OFFCURVE",
"237 131 CURVE",
"220 135 OFFCURVE",
"201 137 OFFCURVE",
"185 137 CURVE SMOOTH",
"176 137 LINE SMOOTH",
"173 137 OFFCURVE",
"160 136 OFFCURVE",
"139 134 CURVE",
"118 130 OFFCURVE",
"96 129 OFFCURVE",
"77 120 CURVE",
"57 112 OFFCURVE",
"46 102 OFFCURVE",
"45 91 CURVE",
"44 69 LINE",
"47 57 LINE SMOOTH",
"49 47 OFFCURVE",
"52 39 OFFCURVE",
"59 30 CURVE SMOOTH",
"66 21 OFFCURVE",
"77 14 OFFCURVE",
"91 9 CURVE SMOOTH",
"107 4 OFFCURVE",
"125 0 OFFCURVE",
"145 0 CURVE SMOOTH",
"172 0 OFFCURVE",
"198 7 OFFCURVE",
"221 21 CURVE",
"244 34 OFFCURVE",
"264 51 OFFCURVE",
"281 74 CURVE",
"286 72 OFFCURVE",
"310 60 OFFCURVE",
"359 39 CURVE SMOOTH",
"405 17 OFFCURVE",
"437 5 OFFCURVE",
"453 4 CURVE SMOOTH",
"468 2 OFFCURVE",
"480 1 OFFCURVE",
"487 1 CURVE SMOOTH",
"492 1 OFFCURVE",
"498 0 OFFCURVE",
"503 0 CURVE SMOOTH",
"544 0 OFFCURVE",
"581 7 OFFCURVE",
"611 22 CURVE SMOOTH",
"644 37 OFFCURVE",
"674 59 OFFCURVE",
"704 85 CURVE",
"702 87 OFFCURVE",
"701 91 OFFCURVE",
"700 95 CURVE",
"697 100 LINE",
"680 79 OFFCURVE",
"659 64 OFFCURVE",
"636 55 CURVE SMOOTH",
"612 46 OFFCURVE",
"586 41 OFFCURVE",
"558 41 CURVE SMOOTH",
"524 41 OFFCURVE",
"493 46 OFFCURVE",
"457 55 CURVE SMOOTH",
"422 65 OFFCURVE",
"385 76 OFFCURVE",
"342 95 CURVE",
"311 107 LINE",
"334 136 OFFCURVE",
"354 163 OFFCURVE",
"369 197 CURVE SMOOTH",
"385 231 OFFCURVE",
"398 268 OFFCURVE",
"412 310 CURVE SMOOTH",
"427 349 OFFCURVE",
"439 388 OFFCURVE",
"450 427 CURVE",
"500 412 OFFCURVE",
"550 404 OFFCURVE",
"598 404 CURVE SMOOTH",
"647 404 OFFCURVE",
"689 413 OFFCURVE",
"727 431 CURVE SMOOTH",
"764 448 OFFCURVE",
"791 470 OFFCURVE",
"805 497 CURVE SMOOTH",
"817 523 OFFCURVE",
"826 543 OFFCURVE",
"829 558 CURVE SMOOTH",
"833 573 OFFCURVE",
"832 587 OFFCURVE",
"830 599 CURVE SMOOTH",
"827 610 OFFCURVE",
"820 626 OFFCURVE",
"808 646 CURVE SMOOTH",
"796 666 OFFCURVE",
"776 680 OFFCURVE",
"748 689 CURVE SMOOTH",
"721 696 OFFCURVE",
"687 700 OFFCURVE",
"645 700 CURVE"
);
},
{
closed = 1;
nodes = (
"661 688 OFFCURVE",
"670 689 OFFCURVE",
"678 689 CURVE SMOOTH",
"698 689 OFFCURVE",
"715 684 OFFCURVE",
"730 673 CURVE",
"744 661 OFFCURVE",
"752 654 OFFCURVE",
"756 648 CURVE",
"762 641 OFFCURVE",
"764 635 OFFCURVE",
"766 626 CURVE SMOOTH",
"768 618 OFFCURVE",
"769 610 OFFCURVE",
"768 603 CURVE",
"769 594 OFFCURVE",
"768 575 OFFCURVE",
"766 547 CURVE",
"765 518 OFFCURVE",
"747 492 OFFCURVE",
"712 466 CURVE SMOOTH",
"678 441 OFFCURVE",
"633 428 OFFCURVE",
"577 428 CURVE SMOOTH",
"557 428 OFFCURVE",
"540 429 OFFCURVE",
"520 431 CURVE",
"501 434 OFFCURVE",
"484 436 OFFCURVE",
"459 442 CURVE",
"499 543 LINE SMOOTH",
"514 578 OFFCURVE",
"533 608 OFFCURVE",
"557 631 CURVE SMOOTH",
"582 658 OFFCURVE",
"614 676 OFFCURVE",
"651 685 CURVE SMOOTH"
);
},
{
closed = 1;
nodes = (
"97 97 OFFCURVE",
"103 104 OFFCURVE",
"112 107 CURVE SMOOTH",
"121 111 OFFCURVE",
"130 114 OFFCURVE",
"140 114 CURVE SMOOTH",
"154 114 OFFCURVE",
"174 110 OFFCURVE",
"198 102 CURVE SMOOTH",
"263 82 LINE",
"246 65 OFFCURVE",
"235 55 OFFCURVE",
"231 54 CURVE",
"229 50 OFFCURVE",
"222 47 OFFCURVE",
"211 45 CURVE SMOOTH",
"183 37 LINE",
"173 36 OFFCURVE",
"165 35 OFFCURVE",
"157 35 CURVE SMOOTH",
"145 35 OFFCURVE",
"134 36 OFFCURVE",
"127 40 CURVE",
"117 44 OFFCURVE",
"109 50 OFFCURVE",
"104 56 CURVE",
"96 62 OFFCURVE",
"92 69 OFFCURVE",
"90 75 CURVE SMOOTH",
"89 81 OFFCURVE",
"91 86 OFFCURVE",
"94 90 CURVE"
);
}
);
width = 693;
}
);
note = L;
unicode = 004C;
},
{
glyphname = M;
lastChange = "2018-02-05 08:42:07 +0000";
layers = (
{
layerId = "0B1DFD06-3317-40CA-B510-4969A0718C16";
paths = (
{
closed = 1;
nodes = (
"264 658 OFFCURVE",
"230 628 OFFCURVE",
"201 585 CURVE SMOOTH",
"175 544 OFFCURVE",
"167 499 OFFCURVE",
"178 453 CURVE",
"160 453 OFFCURVE",
"150 454 OFFCURVE",
"140 456 CURVE SMOOTH",
"131 457 OFFCURVE",
"120 461 OFFCURVE",
"108 464 CURVE SMOOTH",
"95 468 OFFCURVE",
"84 474 OFFCURVE",
"75 482 CURVE",
"67 490 OFFCURVE",
"62 498 OFFCURVE",
"60 505 CURVE SMOOTH",
"59 509 OFFCURVE",
"60 517 OFFCURVE",
"63 525 CURVE",
"65 535 OFFCURVE",
"73 542 OFFCURVE",
"86 544 CURVE",
"99 548 OFFCURVE",
"119 549 OFFCURVE",
"144 549 CURVE SMOOTH",
"158 549 LINE SMOOTH",
"164 549 OFFCURVE",
"169 549 OFFCURVE",
"171 550 CURVE",
"150 563 OFFCURVE",
"125 569 OFFCURVE",
"100 569 CURVE SMOOTH",
"80 569 OFFCURVE",
"64 565 OFFCURVE",
"49 559 CURVE",
"37 553 OFFCURVE",
"27 547 OFFCURVE",
"21 539 CURVE",
"17 530 OFFCURVE",
"15 522 OFFCURVE",
"17 513 CURVE SMOOTH",
"18 509 OFFCURVE",
"20 505 OFFCURVE",
"27 492 CURVE",
"34 480 OFFCURVE",
"48 468 OFFCURVE",
"74 456 CURVE",
"99 444 OFFCURVE",
"135 438 OFFCURVE",
"184 438 CURVE",
"195 412 OFFCURVE",
"211 389 OFFCURVE",
"230 371 CURVE",
"250 352 OFFCURVE",
"274 337 OFFCURVE",
"297 326 CURVE",
"267 232 LINE",
"224 124 LINE SMOOTH",
"206 80 OFFCURVE",
"192 42 OFFCURVE",
"179 7 CURVE",
"195 2 OFFCURVE",
"214 0 OFFCURVE",
"234 0 CURVE SMOOTH",
"252 0 OFFCURVE",
"270 1 OFFCURVE",
"289 4 CURVE",
"290 56 OFFCURVE",
"296 107 OFFCURVE",
"305 158 CURVE SMOOTH",
"313 210 OFFCURVE",
"327 263 OFFCURVE",
"343 322 CURVE",
"398 322 OFFCURVE",
"449 332 OFFCURVE",
"492 353 CURVE SMOOTH",
"536 374 OFFCURVE",
"575 404 OFFCURVE",
"608 443 CURVE",
"593 409 OFFCURVE",
"578 366 OFFCURVE",
"558 307 CURVE SMOOTH",
"540 248 OFFCURVE",
"522 191 OFFCURVE",
"502 132 CURVE SMOOTH",
"484 74 OFFCURVE",
"468 32 OFFCURVE",
"456 4 CURVE",
"473 1 OFFCURVE",
"487 0 OFFCURVE",
"494 0 CURVE SMOOTH",
"542 0 LINE",
"576 4 LINE",
"574 67 OFFCURVE",
"575 129 OFFCURVE",
"583 187 CURVE SMOOTH",
"591 246 OFFCURVE",
"601 308 OFFCURVE",
"618 378 CURVE SMOOTH",
"636 448 OFFCURVE",
"650 514 OFFCURVE",
"666 575 CURVE",
"626 508 LINE SMOOTH",
"613 484 OFFCURVE",
"600 466 OFFCURVE",
"585 447 CURVE",
"562 423 OFFCURVE",
"544 404 OFFCURVE",
"524 389 CURVE SMOOTH",
"505 374 OFFCURVE",
"483 362 OFFCURVE",
"457 351 CURVE SMOOTH",
"434 341 OFFCURVE",
"408 336 OFFCURVE",
"380 336 CURVE SMOOTH",
"366 336 OFFCURVE",
"355 337 OFFCURVE",
"345 338 CURVE",
"348 363 OFFCURVE",
"353 392 OFFCURVE",
"362 426 CURVE SMOOTH",
"391 524 LINE SMOOTH",
"399 557 OFFCURVE",
"405 585 OFFCURVE",
"408 610 CURVE",
"384 570 OFFCURVE",
"352 537 OFFCURVE",
"314 508 CURVE SMOOTH",
"277 480 OFFCURVE",
"236 463 OFFCURVE",
"189 457 CURVE",
"186 472 OFFCURVE",
"184 483 OFFCURVE",
"184 489 CURVE",
"183 494 OFFCURVE",
"188 514 OFFCURVE",
"199 549 CURVE",
"207 583 OFFCURVE",
"234 610 OFFCURVE",
"275 633 CURVE SMOOTH",
"316 655 OFFCURVE",
"369 666 OFFCURVE",
"433 666 CURVE SMOOTH",
"469 666 OFFCURVE",
"509 663 OFFCURVE",
"553 655 CURVE SMOOTH",
"596 646 OFFCURVE",
"648 636 OFFCURVE",
"710 623 CURVE SMOOTH",
"821 597 LINE",
"869 589 LINE",
"887 588 OFFCURVE",
"897 585 OFFCURVE",
"907 584 CURVE",
"812 428 LINE SMOOTH",
"779 373 OFFCURVE",
"756 317 OFFCURVE",
"743 260 CURVE SMOOTH",
"728 203 OFFCURVE",
"728 142 OFFCURVE",
"743 76 CURVE SMOOTH",
"747 57 OFFCURVE",
"756 40 OFFCURVE",
"769 24 CURVE SMOOTH",
"780 10 OFFCURVE",
"793 0 OFFCURVE",
"807 -6 CURVE",
"837 -15 LINE SMOOTH",
"841 -16 OFFCURVE",
"848 -16 OFFCURVE",
"858 -16 CURVE SMOOTH",
"883 -16 OFFCURVE",
"907 -9 OFFCURVE",
"927 5 CURVE",
"987 50 LINE",
"989 52 OFFCURVE",
"989 56 OFFCURVE",
"988 60 CURVE SMOOTH",
"987 64 OFFCURVE",
"984 69 OFFCURVE",
"979 72 CURVE",
"943 36 LINE SMOOTH",
"930 21 OFFCURVE",
"912 14 OFFCURVE",
"892 14 CURVE SMOOTH",
"891 14 OFFCURVE",
"885 15 OFFCURVE",
"876 16 CURVE SMOOTH",
"867 17 OFFCURVE",
"859 21 OFFCURVE",
"851 30 CURVE SMOOTH",
"842 39 OFFCURVE",
"833 54 OFFCURVE",
"827 72 CURVE SMOOTH",
"819 92 OFFCURVE",
"813 114 OFFCURVE",
"808 136 CURVE SMOOTH",
"795 195 OFFCURVE",
"792 248 OFFCURVE",
"799 300 CURVE SMOOTH",
"808 349 OFFCURVE",
"822 396 OFFCURVE",
"842 438 CURVE SMOOTH",
"863 482 OFFCURVE",
"891 530 OFFCURVE",
"925 583 CURVE",
"960 583 LINE SMOOTH",
"1010 583 OFFCURVE",
"1051 588 OFFCURVE",
"1084 597 CURVE",
"1115 607 OFFCURVE",
"1135 620 OFFCURVE",
"1145 639 CURVE",
"1154 658 OFFCURVE",
"1157 669 OFFCURVE",
"1156 675 CURVE SMOOTH",
"1154 683 OFFCURVE",
"1151 689 OFFCURVE",
"1147 693 CURVE",
"1141 699 OFFCURVE",
"1137 701 OFFCURVE",
"1134 701 CURVE",
"1118 705 LINE",
"1100 705 LINE SMOOTH",
"1083 705 OFFCURVE",
"1066 701 OFFCURVE",
"1048 695 CURVE",
"1000 669 LINE",
"980 660 OFFCURVE",
"967 651 OFFCURVE",
"956 643 CURVE SMOOTH",
"943 633 OFFCURVE",
"929 619 OFFCURVE",
"913 600 CURVE",
"892 605 OFFCURVE",
"847 619 OFFCURVE",
"773 640 CURVE SMOOTH",
"700 663 OFFCURVE",
"641 679 OFFCURVE",
"593 689 CURVE SMOOTH",
"547 700 OFFCURVE",
"500 705 OFFCURVE",
"454 705 CURVE SMOOTH",
"427 705 OFFCURVE",
"401 703 OFFCURVE",
"375 698 CURVE SMOOTH",
"351 693 OFFCURVE",
"327 685 OFFCURVE",
"306 675 CURVE"
);
},
{
closed = 1;
nodes = (
"350 493 OFFCURVE",
"336 454 OFFCURVE",
"322 416 CURVE",
"312 376 OFFCURVE",
"305 352 OFFCURVE",
"302 344 CURVE",
"281 351 OFFCURVE",
"262 362 OFFCURVE",
"242 381 CURVE SMOOTH",
"220 399 OFFCURVE",
"206 419 OFFCURVE",
"196 438 CURVE",
"215 439 OFFCURVE",
"230 443 OFFCURVE",
"243 447 CURVE",
"257 452 OFFCURVE",
"272 457 OFFCURVE",
"289 466 CURVE",
"306 473 OFFCURVE",
"321 482 OFFCURVE",
"333 493 CURVE",
"345 503 OFFCURVE",
"358 514 OFFCURVE",
"369 528 CURVE"
);
},
{
closed = 1;
nodes = (
"1086 671 OFFCURVE",
"1092 666 OFFCURVE",
"1095 656 CURVE",
"1099 646 OFFCURVE",
"1099 638 OFFCURVE",
"1093 630 CURVE",
"1089 622 OFFCURVE",
"1077 613 OFFCURVE",
"1058 604 CURVE SMOOTH",
"1040 595 OFFCURVE",
"1011 592 OFFCURVE",
"973 592 CURVE SMOOTH",
"964 592 OFFCURVE",
"956 592 OFFCURVE",
"948 593 CURVE",
"943 593 OFFCURVE",
"937 594 OFFCURVE",
"932 595 CURVE",
"946 612 LINE SMOOTH",
"966 633 OFFCURVE",
"987 648 OFFCURVE",
"1006 656 CURVE SMOOTH",
"1027 666 OFFCURVE",
"1051 671 OFFCURVE",
"1077 671 CURVE SMOOTH"
);
}
);
width = 997;
}
);
note = M;
unicode = 004D;
},
{
glyphname = N;
lastChange = "2018-02-05 08:42:07 +0000";
layers = (
{
layerId = "0B1DFD06-3317-40CA-B510-4969A0718C16";
paths = (
{
closed = 1;
nodes = (
"784 681 OFFCURVE",
"762 668 OFFCURVE",
"739 649 CURVE SMOOTH",
"715 630 OFFCURVE",
"701 618 OFFCURVE",
"692 613 CURVE",
"536 663 LINE SMOOTH",
"481 679 OFFCURVE",
"431 688 OFFCURVE",
"390 688 CURVE SMOOTH",
"335 688 OFFCURVE",
"291 674 OFFCURVE",
"253 646 CURVE SMOOTH",
"213 619 OFFCURVE",
"184 582 OFFCURVE",
"165 534 CURVE",
"140 543 OFFCURVE",
"115 548 OFFCURVE",
"90 548 CURVE SMOOTH",
"71 548 OFFCURVE",
"55 545 OFFCURVE",
"42 540 CURVE SMOOTH",
"28 535 OFFCURVE",
"18 528 OFFCURVE",
"10 519 CURVE",
"3 510 OFFCURVE",
"1 502 OFFCURVE",
"4 492 CURVE SMOOTH",
"5 488 OFFCURVE",
"10 478 OFFCURVE",
"19 463 CURVE",
"28 447 OFFCURVE",
"46 436 OFFCURVE",
"72 429 CURVE",
"98 421 OFFCURVE",
"130 419 OFFCURVE",
"171 419 CURVE",
"194 388 LINE SMOOTH",
"201 377 OFFCURVE",
"210 368 OFFCURVE",
"218 359 CURVE",
"226 352 OFFCURVE",
"236 346 OFFCURVE",
"247 339 CURVE",
"258 334 OFFCURVE",
"268 327 OFFCURVE",
"283 321 CURVE",
"261 265 OFFCURVE",
"243 211 OFFCURVE",
"226 157 CURVE SMOOTH",
"180 -2 LINE",
"186 -2 OFFCURVE",
"201 -2 OFFCURVE",
"229 -1 CURVE SMOOTH",
"255 0 OFFCURVE",
"275 2 OFFCURVE",
"287 6 CURVE",
"283 51 OFFCURVE",
"285 100 OFFCURVE",
"295 152 CURVE SMOOTH",
"303 206 OFFCURVE",
"312 256 OFFCURVE",
"321 305 CURVE",
"356 305 OFFCURVE",
"388 317 OFFCURVE",
"415 343 CURVE",
"446 368 OFFCURVE",
"462 397 OFFCURVE",
"461 429 CURVE",
"458 429 LINE",
"449 399 OFFCURVE",
"432 373 OFFCURVE",
"408 352 CURVE",
"387 331 OFFCURVE",
"358 321 OFFCURVE",
"324 321 CURVE",
"336 362 OFFCURVE",
"349 407 OFFCURVE",
"361 458 CURVE SMOOTH",
"375 508 OFFCURVE",
"385 557 OFFCURVE",
"395 603 CURVE",
"384 603 LINE",
"364 557 OFFCURVE",
"335 518 OFFCURVE",
"300 488 CURVE SMOOTH",
"265 458 OFFCURVE",
"225 443 OFFCURVE",
"179 443 CURVE",
"176 454 OFFCURVE",
"175 466 OFFCURVE",
"177 474 CURVE",
"176 485 OFFCURVE",
"180 507 OFFCURVE",
"189 535 CURVE",
"196 565 OFFCURVE",
"220 590 OFFCURVE",
"264 609 CURVE SMOOTH",
"308 626 OFFCURVE",
"363 635 OFFCURVE",
"429 635 CURVE SMOOTH",
"474 635 OFFCURVE",
"517 631 OFFCURVE",
"556 625 CURVE SMOOTH",
"596 619 OFFCURVE",
"638 612 OFFCURVE",
"686 598 CURVE",
"679 583 OFFCURVE",
"665 560 OFFCURVE",
"643 530 CURVE SMOOTH",
"621 500 OFFCURVE",
"606 473 OFFCURVE",
"594 448 CURVE SMOOTH",
"547 353 LINE SMOOTH",
"529 316 OFFCURVE",
"515 278 OFFCURVE",
"508 240 CURVE",
"500 205 OFFCURVE",
"501 167 OFFCURVE",
"510 126 CURVE SMOOTH",
"515 107 OFFCURVE",
"523 85 OFFCURVE",
"534 57 CURVE",
"546 31 OFFCURVE",
"566 14 OFFCURVE",
"592 6 CURVE SMOOTH",
"617 -1 OFFCURVE",
"635 -5 OFFCURVE",
"646 -5 CURVE SMOOTH",
"660 -5 OFFCURVE",
"674 -2 OFFCURVE",
"684 2 CURVE",
"697 7 OFFCURVE",
"707 15 OFFCURVE",
"718 25 CURVE SMOOTH",
"730 35 OFFCURVE",
"739 42 OFFCURVE",
"742 49 CURVE",
"744 52 OFFCURVE",
"747 62 OFFCURVE",
"748 77 CURVE",
"740 67 OFFCURVE",
"728 57 OFFCURVE",
"718 46 CURVE SMOOTH",
"703 34 OFFCURVE",
"687 27 OFFCURVE",
"668 27 CURVE SMOOTH",
"658 27 LINE SMOOTH",
"646 27 OFFCURVE",
"632 34 OFFCURVE",
"622 45 CURVE",
"611 56 OFFCURVE",
"603 71 OFFCURVE",
"596 90 CURVE",
"590 109 OFFCURVE",
"585 125 OFFCURVE",
"582 141 CURVE SMOOTH",
"569 197 OFFCURVE",
"566 251 OFFCURVE",
"575 303 CURVE SMOOTH",
"583 357 OFFCURVE",
"599 406 OFFCURVE",
"620 452 CURVE",
"643 497 OFFCURVE",
"669 545 OFFCURVE",
"704 594 CURVE",
"722 588 OFFCURVE",
"739 584 OFFCURVE",
"756 584 CURVE SMOOTH",
"775 584 OFFCURVE",
"795 588 OFFCURVE",
"818 595 CURVE",
"841 602 OFFCURVE",
"860 610 OFFCURVE",
"882 620 CURVE SMOOTH",
"901 629 OFFCURVE",
"907 648 OFFCURVE",
"900 676 CURVE SMOOTH",
"898 685 OFFCURVE",
"894 690 OFFCURVE",
"887 694 CURVE SMOOTH",
"880 698 OFFCURVE",
"871 700 OFFCURVE",
"861 700 CURVE SMOOTH",
"853 700 OFFCURVE",
"844 699 OFFCURVE",
"837 696 CURVE",
"829 695 OFFCURVE",
"818 691 OFFCURVE",
"805 688 CURVE SMOOTH"
);
},
{
closed = 1;
nodes = (
"276 456 OFFCURVE",
"297 464 OFFCURVE",
"309 473 CURVE SMOOTH",
"321 482 OFFCURVE",
"333 492 OFFCURVE",
"343 504 CURVE",
"335 468 OFFCURVE",
"327 436 OFFCURVE",
"318 407 CURVE SMOOTH",
"310 378 OFFCURVE",
"300 352 OFFCURVE",
"286 331 CURVE",
"265 339 OFFCURVE",
"246 352 OFFCURVE",
"227 368 CURVE SMOOTH",
"207 387 OFFCURVE",
"194 403 OFFCURVE",
"186 419 CURVE",
"214 428 LINE SMOOTH",
"227 432 OFFCURVE",
"238 433 OFFCURVE",
"244 437 CURVE"
);
},
{
closed = 1;
nodes = (
"97 534 OFFCURVE",
"107 533 OFFCURVE",
"115 533 CURVE SMOOTH",
"125 533 OFFCURVE",
"133 533 OFFCURVE",
"137 532 CURVE",
"160 528 LINE",
"158 512 OFFCURVE",
"156 497 OFFCURVE",
"156 484 CURVE SMOOTH",
"158 470 OFFCURVE",
"160 457 OFFCURVE",
"163 443 CURVE",
"138 443 OFFCURVE",
"118 444 OFFCURVE",
"103 448 CURVE",
"86 452 OFFCURVE",
"74 459 OFFCURVE",
"67 468 CURVE",
"61 477 OFFCURVE",
"58 483 OFFCURVE",
"56 489 CURVE SMOOTH",
"54 498 OFFCURVE",
"55 508 OFFCURVE",
"61 517 CURVE",
"66 524 OFFCURVE",
"75 529 OFFCURVE",
"87 530 CURVE"
);
},
{
closed = 1;
nodes = (
"850 659 OFFCURVE",
"854 655 OFFCURVE",
"855 649 CURVE SMOOTH",
"857 640 OFFCURVE",
"855 634 OFFCURVE",
"847 628 CURVE",
"838 619 OFFCURVE",
"828 614 OFFCURVE",
"816 610 CURVE SMOOTH",
"803 605 OFFCURVE",
"790 603 OFFCURVE",
"778 603 CURVE SMOOTH",
"762 603 OFFCURVE",
"746 605 OFFCURVE",
"730 612 CURVE",
"742 628 OFFCURVE",
"756 640 OFFCURVE",
"769 654 CURVE",
"783 665 OFFCURVE",
"797 670 OFFCURVE",
"813 670 CURVE SMOOTH",
"825 670 OFFCURVE",
"833 668 OFFCURVE",
"844 661 CURVE"
);
}
);
width = 754;
}
);
note = N;
unicode = 004E;
},
{
glyphname = O;
lastChange = "2018-02-05 08:42:07 +0000";
layers = (
{
layerId = "0B1DFD06-3317-40CA-B510-4969A0718C16";
paths = (
{
closed = 1;
nodes = (
"317 666 OFFCURVE",
"292 636 OFFCURVE",
"276 600 CURVE SMOOTH",
"262 562 OFFCURVE",
"260 519 OFFCURVE",
"270 473 CURVE SMOOTH",
"273 462 OFFCURVE",
"279 443 OFFCURVE",
"288 418 CURVE SMOOTH",
"298 391 OFFCURVE",
"317 363 OFFCURVE",
"342 337 CURVE SMOOTH",
"368 310 OFFCURVE",
"401 290 OFFCURVE",
"440 276 CURVE",
"395 307 LINE SMOOTH",
"381 317 OFFCURVE",
"368 329 OFFCURVE",
"353 344 CURVE",
"337 361 OFFCURVE",
"323 379 OFFCURVE",
"310 403 CURVE SMOOTH",
"297 427 OFFCURVE",
"288 451 OFFCURVE",
"283 474 CURVE SMOOTH",
"274 515 OFFCURVE",
"274 550 OFFCURVE",
"286 579 CURVE SMOOTH",
"298 608 OFFCURVE",
"313 630 OFFCURVE",
"333 648 CURVE",
"352 663 OFFCURVE",
"376 670 OFFCURVE",
"405 670 CURVE SMOOTH",
"412 670 OFFCURVE",
"417 670 OFFCURVE",
"421 669 CURVE",
"425 669 OFFCURVE",
"440 666 OFFCURVE",
"463 663 CURVE",
"487 658 OFFCURVE",
"511 645 OFFCURVE",
"537 625 CURVE SMOOTH",
"566 604 OFFCURVE",
"588 580 OFFCURVE",
"604 553 CURVE SMOOTH",
"620 527 OFFCURVE",
"631 505 OFFCURVE",
"638 487 CURVE SMOOTH",
"644 470 OFFCURVE",
"650 453 OFFCURVE",
"654 436 CURVE SMOOTH",
"666 382 OFFCURVE",
"665 331 OFFCURVE",
"652 282 CURVE SMOOTH",
"641 233 OFFCURVE",
"621 191 OFFCURVE",
"595 154 CURVE SMOOTH",
"568 119 OFFCURVE",
"539 92 OFFCURVE",
"508 74 CURVE",
"477 56 OFFCURVE",
"442 47 OFFCURVE",
"405 47 CURVE SMOOTH",
"389 47 OFFCURVE",
"375 49 OFFCURVE",
"361 52 CURVE",
"347 55 OFFCURVE",
"328 61 OFFCURVE",
"305 71 CURVE SMOOTH",
"281 81 OFFCURVE",
"256 99 OFFCURVE",
"229 124 CURVE SMOOTH",
"202 149 OFFCURVE",
"181 176 OFFCURVE",
"165 206 CURVE SMOOTH",
"158 220 OFFCURVE",
"153 233 OFFCURVE",
"149 245 CURVE SMOOTH",
"144 258 OFFCURVE",
"141 268 OFFCURVE",
"137 282 CURVE SMOOTH",
"123 346 OFFCURVE",
"127 408 OFFCURVE",
"150 467 CURVE SMOOTH",
"171 525 OFFCURVE",
"205 577 OFFCURVE",
"252 619 CURVE",
"218 598 OFFCURVE",
"186 567 OFFCURVE",
"156 524 CURVE SMOOTH",
"126 483 OFFCURVE",
"105 438 OFFCURVE",
"93 389 CURVE SMOOTH",
"80 339 OFFCURVE",
"80 288 OFFCURVE",
"92 237 CURVE SMOOTH",
"101 197 OFFCURVE",
"116 160 OFFCURVE",
"137 125 CURVE SMOOTH",
"158 89 OFFCURVE",
"181 64 OFFCURVE",
"202 49 CURVE",
"229 32 OFFCURVE",
"257 21 OFFCURVE",
"287 12 CURVE SMOOTH",
"318 4 OFFCURVE",
"346 0 OFFCURVE",
"372 0 CURVE SMOOTH",
"432 0 OFFCURVE",
"485 19 OFFCURVE",
"531 56 CURVE SMOOTH",
"577 92 OFFCURVE",
"612 139 OFFCURVE",
"640 192 CURVE SMOOTH",
"666 246 OFFCURVE",
"684 295 OFFCURVE",
"693 339 CURVE SMOOTH",
"701 386 OFFCURVE",
"700 431 OFFCURVE",
"690 474 CURVE SMOOTH",
"684 499 OFFCURVE",
"676 522 OFFCURVE",
"665 543 CURVE",
"655 564 OFFCURVE",
"640 589 OFFCURVE",
"619 618 CURVE",
"599 644 OFFCURVE",
"573 666 OFFCURVE",
"541 683 CURVE SMOOTH",
"508 699 OFFCURVE",
"476 706 OFFCURVE",
"441 706 CURVE SMOOTH",
"409 706 OFFCURVE",
"381 700 OFFCURVE",
"356 688 CURVE SMOOTH"
);
}
);
width = 693;
}
);
note = O;
unicode = 004F;
},
{
glyphname = P;
lastChange = "2018-02-05 08:42:07 +0000";
layers = (
{
layerId = "0B1DFD06-3317-40CA-B510-4969A0718C16";
paths = (
{
closed = 1;
nodes = (
"377 693 LINE SMOOTH",
"315 686 OFFCURVE",
"265 658 OFFCURVE",
"225 609 CURVE SMOOTH",
"185 559 OFFCURVE",
"162 502 OFFCURVE",
"155 438 CURVE",
"151 438 OFFCURVE",
"148 438 OFFCURVE",
"145 437 CURVE",
"134 437 LINE SMOOTH",
"115 437 OFFCURVE",
"97 439 OFFCURVE",
"81 444 CURVE",
"64 451 OFFCURVE",
"54 458 OFFCURVE",
"48 467 CURVE",
"41 475 OFFCURVE",
"37 482 OFFCURVE",
"36 485 CURVE SMOOTH",
"35 492 OFFCURVE",
"34 498 OFFCURVE",
"37 504 CURVE SMOOTH",
"39 510 OFFCURVE",
"42 517 OFFCURVE",
"49 525 CURVE",
"56 533 OFFCURVE",
"64 538 OFFCURVE",
"70 540 CURVE SMOOTH",
"75 543 OFFCURVE",
"81 544 OFFCURVE",
"90 544 CURVE",
"149 534 LINE",
"124 544 LINE SMOOTH",
"114 548 OFFCURVE",
"108 549 OFFCURVE",
"98 550 CURVE SMOOTH",
"89 552 OFFCURVE",
"81 553 OFFCURVE",
"72 553 CURVE SMOOTH",
"54 553 OFFCURVE",
"39 550 OFFCURVE",
"28 545 CURVE SMOOTH",
"16 540 OFFCURVE",
"6 533 OFFCURVE",
"-1 524 CURVE",
"-7 513 OFFCURVE",
"-8 503 OFFCURVE",
"-6 494 CURVE SMOOTH",
"-2 480 OFFCURVE",
"5 468 OFFCURVE",
"19 457 CURVE",
"31 446 OFFCURVE",
"45 439 OFFCURVE",
"60 434 CURVE",
"77 431 OFFCURVE",
"96 428 OFFCURVE",
"113 428 CURVE SMOOTH",
"118 428 OFFCURVE",
"124 429 OFFCURVE",
"130 429 CURVE SMOOTH",
"136 429 OFFCURVE",
"145 431 OFFCURVE",
"156 431 CURVE",
"156 412 OFFCURVE",
"159 397 OFFCURVE",
"161 388 CURVE SMOOTH",
"169 353 LINE",
"166 374 OFFCURVE",
"165 391 OFFCURVE",
"167 401 CURVE",
"169 433 LINE",
"200 439 OFFCURVE",
"226 452 OFFCURVE",
"247 468 CURVE SMOOTH",
"270 484 OFFCURVE",
"299 509 OFFCURVE",
"333 542 CURVE",
"328 508 OFFCURVE",
"321 479 OFFCURVE",
"312 456 CURVE SMOOTH",
"268 334 LINE SMOOTH",
"247 276 OFFCURVE",
"232 231 OFFCURVE",
"223 202 CURVE",
"218 201 OFFCURVE",
"216 200 OFFCURVE",
"213 200 CURVE SMOOTH",
"203 200 OFFCURVE",
"189 205 OFFCURVE",
"171 215 CURVE SMOOTH",
"151 225 OFFCURVE",
"136 230 OFFCURVE",
"127 230 CURVE",
"156 208 OFFCURVE",
"185 195 OFFCURVE",
"218 188 CURVE",
"148 0 LINE",
"167 -6 LINE",
"171 -6 OFFCURVE",
"177 -7 OFFCURVE",
"187 -7 CURVE SMOOTH",
"191 -7 OFFCURVE",
"201 -6 OFFCURVE",
"220 -2 CURVE",
"239 0 OFFCURVE",
"254 1 OFFCURVE",
"265 1 CURVE",
"262 40 OFFCURVE",
"263 75 OFFCURVE",
"265 106 CURVE",
"268 137 OFFCURVE",
"274 163 OFFCURVE",
"284 185 CURVE",
"378 185 OFFCURVE",
"457 198 OFFCURVE",
"525 227 CURVE SMOOTH",
"593 256 OFFCURVE",
"636 292 OFFCURVE",
"656 333 CURVE SMOOTH",
"673 377 OFFCURVE",
"685 408 OFFCURVE",
"686 432 CURVE",
"688 456 OFFCURVE",
"687 479 OFFCURVE",
"681 504 CURVE SMOOTH",
"674 533 OFFCURVE",
"659 564 OFFCURVE",
"635 598 CURVE",
"612 628 OFFCURVE",
"580 651 OFFCURVE",
"543 669 CURVE SMOOTH",
"505 686 OFFCURVE",
"463 695 OFFCURVE",
"419 695 CURVE SMOOTH",
"397 695 LINE"
);
},
{
closed = 1;
nodes = (
"377 663 OFFCURVE",
"389 661 OFFCURVE",
"399 661 CURVE SMOOTH",
"426 661 OFFCURVE",
"451 658 OFFCURVE",
"473 649 CURVE SMOOTH",
"496 639 OFFCURVE",
"518 625 OFFCURVE",
"538 608 CURVE",
"559 588 OFFCURVE",
"576 569 OFFCURVE",
"587 552 CURVE",
"598 532 OFFCURVE",
"606 512 OFFCURVE",
"611 493 CURVE SMOOTH",
"617 467 OFFCURVE",
"616 429 OFFCURVE",
"610 379 CURVE SMOOTH",
"604 328 OFFCURVE",
"571 285 OFFCURVE",
"509 248 CURVE SMOOTH",
"447 212 OFFCURVE",
"372 195 OFFCURVE",
"285 195 CURVE",
"291 241 OFFCURVE",
"298 286 OFFCURVE",
"307 327 CURVE SMOOTH",
"316 368 OFFCURVE",
"330 421 OFFCURVE",
"349 489 CURVE SMOOTH",
"367 555 OFFCURVE",
"380 607 OFFCURVE",
"389 640 CURVE SMOOTH",
"389 643 OFFCURVE",
"388 644 OFFCURVE",
"387 645 CURVE SMOOTH",
"384 646 OFFCURVE",
"383 646 OFFCURVE",
"379 646 CURVE SMOOTH",
"376 646 OFFCURVE",
"370 638 OFFCURVE",
"361 619 CURVE SMOOTH",
"351 602 OFFCURVE",
"338 579 OFFCURVE",
"318 553 CURVE",
"299 524 OFFCURVE",
"276 503 OFFCURVE",
"253 482 CURVE",
"229 463 OFFCURVE",
"201 448 OFFCURVE",
"169 439 CURVE",
"171 494 OFFCURVE",
"192 543 OFFCURVE",
"231 585 CURVE SMOOTH",
"270 629 OFFCURVE",
"316 653 OFFCURVE",
"366 659 CURVE"
);
}
);
width = 645;
}
);
note = P;
unicode = 0050;
},
{
glyphname = Q;
lastChange = "2018-02-05 08:42:07 +0000";
layers = (
{
layerId = "0B1DFD06-3317-40CA-B510-4969A0718C16";
paths = (
{
closed = 1;
nodes = (
"477 709 OFFCURVE",
"460 711 OFFCURVE",
"443 711 CURVE SMOOTH",
"425 711 OFFCURVE",
"403 708 OFFCURVE",
"384 701 CURVE",
"366 693 OFFCURVE",
"345 683 OFFCURVE",
"323 668 CURVE SMOOTH",
"300 653 OFFCURVE",
"284 630 OFFCURVE",
"275 602 CURVE",
"266 570 OFFCURVE",
"263 544 OFFCURVE",
"266 522 CURVE",
"270 498 OFFCURVE",
"272 482 OFFCURVE",
"275 470 CURVE SMOOTH",
"285 428 OFFCURVE",
"303 391 OFFCURVE",
"330 358 CURVE SMOOTH",
"356 324 OFFCURVE",
"389 297 OFFCURVE",
"429 276 CURVE",
"393 305 OFFCURVE",
"368 326 OFFCURVE",
"350 346 CURVE SMOOTH",
"331 367 OFFCURVE",
"316 388 OFFCURVE",
"306 412 CURVE SMOOTH",
"295 437 OFFCURVE",
"288 458 OFFCURVE",
"284 475 CURVE SMOOTH",
"270 537 OFFCURVE",
"278 585 OFFCURVE",
"306 619 CURVE SMOOTH",
"333 653 OFFCURVE",
"365 670 OFFCURVE",
"404 670 CURVE SMOOTH",
"420 670 OFFCURVE",
"447 665 OFFCURVE",
"485 655 CURVE SMOOTH",
"525 645 OFFCURVE",
"559 620 OFFCURVE",
"591 580 CURVE SMOOTH",
"623 539 OFFCURVE",
"646 492 OFFCURVE",
"659 436 CURVE SMOOTH",
"677 357 OFFCURVE",
"673 288 OFFCURVE",
"646 231 CURVE SMOOTH",
"621 173 OFFCURVE",
"580 124 OFFCURVE",
"521 80 CURVE",
"509 95 OFFCURVE",
"498 109 OFFCURVE",
"491 120 CURVE SMOOTH",
"482 134 OFFCURVE",
"472 155 OFFCURVE",
"456 183 CURVE",
"438 180 OFFCURVE",
"423 175 OFFCURVE",
"405 170 CURVE SMOOTH",
"388 165 OFFCURVE",
"371 162 OFFCURVE",
"356 161 CURVE",
"487 66 LINE",
"477 60 OFFCURVE",
"468 55 OFFCURVE",
"459 52 CURVE",
"448 51 OFFCURVE",
"436 50 OFFCURVE",
"419 50 CURVE SMOOTH",
"401 50 OFFCURVE",
"375 54 OFFCURVE",
"340 61 CURVE SMOOTH",
"304 69 OFFCURVE",
"270 85 OFFCURVE",
"237 110 CURVE SMOOTH",
"206 134 OFFCURVE",
"182 160 OFFCURVE",
"169 188 CURVE SMOOTH",
"157 215 OFFCURVE",
"150 233 OFFCURVE",
"147 243 CURVE SMOOTH",
"143 252 OFFCURVE",
"141 263 OFFCURVE",
"138 275 CURVE SMOOTH",
"126 326 OFFCURVE",
"127 373 OFFCURVE",
"137 417 CURVE SMOOTH",
"148 462 OFFCURVE",
"168 507 OFFCURVE",
"196 553 CURVE",
"217 575 OFFCURVE",
"239 598 OFFCURVE",
"256 622 CURVE",
"203 588 OFFCURVE",
"159 543 OFFCURVE",
"129 488 CURVE SMOOTH",
"96 432 OFFCURVE",
"81 381 OFFCURVE",
"83 336 CURVE SMOOTH",
"84 291 OFFCURVE",
"89 256 OFFCURVE",
"94 231 CURVE SMOOTH",
"104 190 OFFCURVE",
"122 151 OFFCURVE",
"146 116 CURVE SMOOTH",
"172 80 OFFCURVE",
"199 55 OFFCURVE",
"227 40 CURVE SMOOTH",
"257 24 OFFCURVE",
"281 12 OFFCURVE",
"298 9 CURVE",
"317 4 OFFCURVE",
"336 1 OFFCURVE",
"354 1 CURVE SMOOTH",
"383 1 OFFCURVE",
"407 5 OFFCURVE",
"434 14 CURVE SMOOTH",
"459 21 OFFCURVE",
"485 32 OFFCURVE",
"512 46 CURVE",
"581 -9 LINE SMOOTH",
"603 -27 OFFCURVE",
"624 -40 OFFCURVE",
"639 -47 CURVE",
"535 65 LINE",
"602 119 OFFCURVE",
"646 170 OFFCURVE",
"667 216 CURVE SMOOTH",
"687 263 OFFCURVE",
"695 313 OFFCURVE",
"695 366 CURVE SMOOTH",
"693 422 OFFCURVE",
"690 461 OFFCURVE",
"685 482 CURVE SMOOTH",
"678 515 OFFCURVE",
"665 547 OFFCURVE",
"649 575 CURVE",
"633 604 OFFCURVE",
"615 626 OFFCURVE",
"593 645 CURVE SMOOTH",
"573 663 OFFCURVE",
"556 675 OFFCURVE",
"543 683 CURVE SMOOTH",
"529 691 OFFCURVE",
"514 698 OFFCURVE",
"496 703 CURVE"
);
}
);
width = 700;
}
);
note = Q;
unicode = 0051;
},
{
glyphname = R;
lastChange = "2018-02-05 08:42:07 +0000";
layers = (
{
layerId = "0B1DFD06-3317-40CA-B510-4969A0718C16";
paths = (
{
closed = 1;
nodes = (
"446 634 OFFCURVE",
"416 602 OFFCURVE",
"391 565 CURVE SMOOTH",
"365 528 OFFCURVE",
"342 488 OFFCURVE",
"321 446 CURVE SMOOTH",
"302 402 OFFCURVE",
"282 356 OFFCURVE",
"263 305 CURVE",
"265 341 OFFCURVE",
"269 376 OFFCURVE",
"275 411 CURVE SMOOTH",
"279 446 OFFCURVE",
"289 492 OFFCURVE",
"304 552 CURVE",
"331 691 LINE",
"322 691 LINE",
"306 653 OFFCURVE",
"289 623 OFFCURVE",
"271 599 CURVE SMOOTH",
"252 574 OFFCURVE",
"230 557 OFFCURVE",
"205 545 CURVE SMOOTH",
"181 534 OFFCURVE",
"162 528 OFFCURVE",
"143 528 CURVE SMOOTH",
"132 528 OFFCURVE",
"121 530 OFFCURVE",
"110 534 CURVE SMOOTH",
"99 538 OFFCURVE",
"90 543 OFFCURVE",
"83 552 CURVE",
"78 560 OFFCURVE",
"73 568 OFFCURVE",
"72 574 CURVE SMOOTH",
"69 585 OFFCURVE",
"71 595 OFFCURVE",
"75 602 CURVE SMOOTH",
"81 609 OFFCURVE",
"89 614 OFFCURVE",
"98 617 CURVE",
"107 620 OFFCURVE",
"120 622 OFFCURVE",
"133 622 CURVE SMOOTH",
"145 622 OFFCURVE",
"155 620 OFFCURVE",
"169 619 CURVE",
"178 618 OFFCURVE",
"187 617 OFFCURVE",
"199 613 CURVE",
"172 626 OFFCURVE",
"154 633 OFFCURVE",
"139 636 CURVE SMOOTH",
"124 640 OFFCURVE",
"111 641 OFFCURVE",
"97 641 CURVE SMOOTH",
"87 641 OFFCURVE",
"78 640 OFFCURVE",
"68 638 CURVE SMOOTH",
"59 635 OFFCURVE",
"50 630 OFFCURVE",
"42 623 CURVE",
"32 615 OFFCURVE",
"25 608 OFFCURVE",
"21 600 CURVE",
"17 592 OFFCURVE",
"15 582 OFFCURVE",
"18 570 CURVE SMOOTH",
"19 567 OFFCURVE",
"20 562 OFFCURVE",
"23 553 CURVE SMOOTH",
"27 544 OFFCURVE",
"34 537 OFFCURVE",
"47 530 CURVE",
"58 524 OFFCURVE",
"74 518 OFFCURVE",
"91 514 CURVE",
"106 510 OFFCURVE",
"118 509 OFFCURVE",
"131 509 CURVE SMOOTH",
"157 509 OFFCURVE",
"180 514 OFFCURVE",
"199 525 CURVE SMOOTH",
"219 537 OFFCURVE",
"238 549 OFFCURVE",
"254 565 CURVE SMOOTH",
"268 582 OFFCURVE",
"287 600 OFFCURVE",
"306 624 CURVE",
"277 515 OFFCURVE",
"251 429 OFFCURVE",
"232 363 CURVE SMOOTH",
"212 297 OFFCURVE",
"191 231 OFFCURVE",
"170 166 CURVE SMOOTH",
"149 102 OFFCURVE",
"127 46 OFFCURVE",
"103 0 CURVE",
"224 0 LINE",
"237 116 OFFCURVE",
"250 212 OFFCURVE",
"276 292 CURVE SMOOTH",
"299 369 OFFCURVE",
"330 438 OFFCURVE",
"370 498 CURVE SMOOTH",
"409 557 OFFCURVE",
"441 595 OFFCURVE",
"468 617 CURVE SMOOTH",
"492 636 OFFCURVE",
"518 646 OFFCURVE",
"548 646 CURVE SMOOTH",
"569 646 OFFCURVE",
"588 643 OFFCURVE",
"605 635 CURVE",
"619 628 OFFCURVE",
"630 620 OFFCURVE",
"636 614 CURVE SMOOTH",
"641 608 OFFCURVE",
"644 599 OFFCURVE",
"646 590 CURVE SMOOTH",
"649 577 OFFCURVE",
"649 564 OFFCURVE",
"649 553 CURVE SMOOTH",
"647 539 OFFCURVE",
"638 512 OFFCURVE",
"621 468 CURVE SMOOTH",
"607 424 OFFCURVE",
"573 382 OFFCURVE",
"520 341 CURVE SMOOTH",
"468 301 OFFCURVE",
"408 281 OFFCURVE",
"341 281 CURVE",
"380 215 OFFCURVE",
"412 160 OFFCURVE",
"443 116 CURVE SMOOTH",
"471 72 OFFCURVE",
"506 26 OFFCURVE",
"552 -25 CURVE SMOOTH",
"598 -76 OFFCURVE",
"651 -132 OFFCURVE",
"717 -197 CURVE",
"660 -121 OFFCURVE",
"613 -51 OFFCURVE",
"571 17 CURVE SMOOTH",
"527 86 OFFCURVE",
"499 136 OFFCURVE",
"480 175 CURVE SMOOTH",
"461 213 OFFCURVE",
"449 238 OFFCURVE",
"443 248 CURVE",
"436 260 OFFCURVE",
"432 273 OFFCURVE",
"428 288 CURVE",
"488 305 OFFCURVE",
"541 328 OFFCURVE",
"587 362 CURVE SMOOTH",
"631 393 OFFCURVE",
"661 428 OFFCURVE",
"676 467 CURVE SMOOTH",
"692 505 OFFCURVE",
"701 535 OFFCURVE",
"704 554 CURVE",
"707 575 OFFCURVE",
"707 594 OFFCURVE",
"703 612 CURVE SMOOTH",
"698 633 OFFCURVE",
"688 651 OFFCURVE",
"673 668 CURVE",
"660 680 OFFCURVE",
"647 689 OFFCURVE",
"632 695 CURVE SMOOTH",
"620 700 OFFCURVE",
"605 703 OFFCURVE",
"591 703 CURVE SMOOTH",
"572 703 OFFCURVE",
"553 699 OFFCURVE",
"534 691 CURVE",
"516 683 OFFCURVE",
"499 676 OFFCURVE",
"483 663 CURVE"
);
}
);
width = 704;
}
);
note = R;
unicode = 0052;
},
{
glyphname = S;
lastChange = "2018-02-05 08:42:07 +0000";
layers = (
{
layerId = "0B1DFD06-3317-40CA-B510-4969A0718C16";
paths = (
{
closed = 1;
nodes = (
"432 463 OFFCURVE",
"418 456 OFFCURVE",
"406 447 CURVE SMOOTH",
"395 438 OFFCURVE",
"385 426 OFFCURVE",
"377 408 CURVE",
"385 417 OFFCURVE",
"392 421 OFFCURVE",
"399 429 CURVE",
"407 434 OFFCURVE",
"414 441 OFFCURVE",
"424 444 CURVE SMOOTH",
"433 448 OFFCURVE",
"443 451 OFFCURVE",
"453 454 CURVE",
"464 457 OFFCURVE",
"473 458 OFFCURVE",
"483 458 CURVE SMOOTH",
"502 458 OFFCURVE",
"524 453 OFFCURVE",
"551 439 CURVE",
"577 427 OFFCURVE",
"598 411 OFFCURVE",
"615 389 CURVE",
"631 368 OFFCURVE",
"644 342 OFFCURVE",
"652 308 CURVE SMOOTH",
"664 255 OFFCURVE",
"662 207 OFFCURVE",
"650 163 CURVE",
"634 122 OFFCURVE",
"607 89 OFFCURVE",
"568 64 CURVE",
"536 92 OFFCURVE",
"507 115 OFFCURVE",
"481 131 CURVE SMOOTH",
"453 147 OFFCURVE",
"423 165 OFFCURVE",
"387 182 CURVE",
"350 198 OFFCURVE",
"322 210 OFFCURVE",
"298 216 CURVE SMOOTH",
"277 222 OFFCURVE",
"254 225 OFFCURVE",
"230 225 CURVE SMOOTH",
"206 225 OFFCURVE",
"187 221 OFFCURVE",
"173 215 CURVE",
"156 208 OFFCURVE",
"140 198 OFFCURVE",
"128 183 CURVE",
"115 170 OFFCURVE",
"111 152 OFFCURVE",
"116 131 CURVE SMOOTH",
"118 121 OFFCURVE",
"128 104 OFFCURVE",
"148 80 CURVE",
"167 54 OFFCURVE",
"197 34 OFFCURVE",
"241 17 CURVE SMOOTH",
"283 1 OFFCURVE",
"333 -7 OFFCURVE",
"389 -7 CURVE SMOOTH",
"410 -7 OFFCURVE",
"430 -6 OFFCURVE",
"450 -5 CURVE",
"469 -1 OFFCURVE",
"489 0 OFFCURVE",
"508 1 CURVE",
"526 5 OFFCURVE",
"540 7 OFFCURVE",
"550 11 CURVE",
"587 30 LINE",
"601 19 OFFCURVE",
"616 5 OFFCURVE",
"631 -12 CURVE",
"649 -31 OFFCURVE",
"658 -41 OFFCURVE",
"663 -45 CURVE",
"635 -7 LINE",
"596 34 LINE",
"624 46 OFFCURVE",
"649 65 OFFCURVE",
"674 89 CURVE SMOOTH",
"697 112 OFFCURVE",
"714 137 OFFCURVE",
"725 165 CURVE",
"731 186 OFFCURVE",
"733 207 OFFCURVE",
"738 228 CURVE",
"738 250 OFFCURVE",
"738 271 OFFCURVE",
"733 291 CURVE SMOOTH",
"730 306 OFFCURVE",
"724 322 OFFCURVE",
"716 338 CURVE",
"709 352 OFFCURVE",
"689 378 OFFCURVE",
"657 417 CURVE SMOOTH",
"625 456 OFFCURVE",
"575 474 OFFCURVE",
"505 474 CURVE SMOOTH",
"486 474 OFFCURVE",
"470 472 OFFCURVE",
"451 468 CURVE"
);
},
{
closed = 1;
nodes = (
"383 157 OFFCURVE",
"426 144 OFFCURVE",
"453 130 CURVE",
"480 117 OFFCURVE",
"516 92 OFFCURVE",
"560 56 CURVE",
"535 40 OFFCURVE",
"505 27 OFFCURVE",
"470 19 CURVE SMOOTH",
"436 9 OFFCURVE",
"401 4 OFFCURVE",
"367 4 CURVE SMOOTH",
"336 4 OFFCURVE",
"304 9 OFFCURVE",
"273 17 CURVE SMOOTH",
"244 26 OFFCURVE",
"221 36 OFFCURVE",
"201 50 CURVE",
"181 65 OFFCURVE",
"170 75 OFFCURVE",
"165 81 CURVE",
"159 89 OFFCURVE",
"154 96 OFFCURVE",
"152 105 CURVE SMOOTH",
"151 111 OFFCURVE",
"152 122 OFFCURVE",
"158 137 CURVE SMOOTH",
"161 151 OFFCURVE",
"172 162 OFFCURVE",
"187 171 CURVE SMOOTH",
"204 180 OFFCURVE",
"222 185 OFFCURVE",
"243 185 CURVE SMOOTH",
"264 185 OFFCURVE",
"292 180 OFFCURVE",
"327 171 CURVE SMOOTH"
);
},
{
closed = 1;
nodes = (
"349 690 OFFCURVE",
"306 674 OFFCURVE",
"267 648 CURVE SMOOTH",
"229 620 OFFCURVE",
"210 592 OFFCURVE",
"211 560 CURVE SMOOTH",
"210 529 OFFCURVE",
"212 505 OFFCURVE",
"215 489 CURVE SMOOTH",
"220 469 OFFCURVE",
"227 451 OFFCURVE",
"237 434 CURVE SMOOTH",
"247 418 OFFCURVE",
"263 401 OFFCURVE",
"281 384 CURVE SMOOTH",
"300 368 OFFCURVE",
"321 356 OFFCURVE",
"346 348 CURVE",
"368 339 OFFCURVE",
"396 336 OFFCURVE",
"430 336 CURVE SMOOTH",
"449 336 OFFCURVE",
"463 341 OFFCURVE",
"474 351 CURVE SMOOTH",
"485 359 OFFCURVE",
"492 371 OFFCURVE",
"498 387 CURVE",
"490 376 OFFCURVE",
"485 367 OFFCURVE",
"478 363 CURVE",
"475 359 OFFCURVE",
"465 354 OFFCURVE",
"447 351 CURVE SMOOTH",
"432 347 OFFCURVE",
"416 346 OFFCURVE",
"401 346 CURVE SMOOTH",
"383 346 OFFCURVE",
"366 349 OFFCURVE",
"346 356 CURVE",
"330 362 OFFCURVE",
"312 373 OFFCURVE",
"296 388 CURVE SMOOTH",
"277 404 OFFCURVE",
"261 419 OFFCURVE",
"252 433 CURVE",
"239 449 OFFCURVE",
"233 466 OFFCURVE",
"228 484 CURVE SMOOTH",
"226 495 OFFCURVE",
"224 514 OFFCURVE",
"227 543 CURVE",
"228 573 OFFCURVE",
"242 597 OFFCURVE",
"270 614 CURVE",
"301 630 OFFCURVE",
"341 639 OFFCURVE",
"394 639 CURVE SMOOTH",
"413 639 OFFCURVE",
"446 638 OFFCURVE",
"493 634 CURVE SMOOTH",
"539 630 OFFCURVE",
"573 629 OFFCURVE",
"596 629 CURVE SMOOTH",
"626 629 OFFCURVE",
"653 630 OFFCURVE",
"675 634 CURVE SMOOTH",
"698 638 OFFCURVE",
"717 644 OFFCURVE",
"739 653 CURVE SMOOTH",
"762 661 OFFCURVE",
"776 674 OFFCURVE",
"782 693 CURVE",
"766 685 OFFCURVE",
"749 680 OFFCURVE",
"734 678 CURVE",
"716 674 OFFCURVE",
"700 673 OFFCURVE",
"681 673 CURVE SMOOTH",
"661 673 OFFCURVE",
"624 676 OFFCURVE",
"563 685 CURVE SMOOTH",
"504 693 OFFCURVE",
"461 696 OFFCURVE",
"434 696 CURVE SMOOTH",
"419 696 LINE SMOOTH",
"413 696 OFFCURVE",
"407 696 OFFCURVE",
"399 695 CURVE"
);
}
);
width = 701;
}
);
note = S;
unicode = 0053;
},
{
glyphname = T;
lastChange = "2018-02-05 08:42:07 +0000";
layers = (
{
layerId = "0B1DFD06-3317-40CA-B510-4969A0718C16";
paths = (
{
closed = 1;
nodes = (
"741 676 OFFCURVE",
"715 675 OFFCURVE",
"689 675 CURVE SMOOTH",
"665 675 OFFCURVE",
"623 679 OFFCURVE",
"557 688 CURVE SMOOTH",
"494 698 OFFCURVE",
"447 701 OFFCURVE",
"417 701 CURVE SMOOTH",
"403 701 OFFCURVE",
"389 701 OFFCURVE",
"373 700 CURVE SMOOTH",
"357 699 OFFCURVE",
"333 695 OFFCURVE",
"296 686 CURVE SMOOTH",
"261 679 OFFCURVE",
"226 664 OFFCURVE",
"193 640 CURVE",
"156 618 OFFCURVE",
"139 594 OFFCURVE",
"137 568 CURVE",
"134 543 OFFCURVE",
"134 528 OFFCURVE",
"135 524 CURVE SMOOTH",
"136 520 OFFCURVE",
"135 515 OFFCURVE",
"136 509 CURVE SMOOTH",
"140 495 OFFCURVE",
"147 482 OFFCURVE",
"156 468 CURVE",
"166 456 OFFCURVE",
"178 444 OFFCURVE",
"192 433 CURVE",
"167 397 OFFCURVE",
"149 358 OFFCURVE",
"138 316 CURVE SMOOTH",
"127 275 OFFCURVE",
"127 233 OFFCURVE",
"137 192 CURVE SMOOTH",
"143 163 OFFCURVE",
"154 137 OFFCURVE",
"170 111 CURVE SMOOTH",
"187 84 OFFCURVE",
"212 61 OFFCURVE",
"241 42 CURVE SMOOTH",
"273 22 OFFCURVE",
"300 11 OFFCURVE",
"322 7 CURVE SMOOTH",
"367 -1 LINE",
"392 -1 LINE SMOOTH",
"445 -1 OFFCURVE",
"494 12 OFFCURVE",
"536 40 CURVE SMOOTH",
"579 66 OFFCURVE",
"615 104 OFFCURVE",
"650 150 CURVE",
"641 158 LINE",
"616 120 OFFCURVE",
"588 94 OFFCURVE",
"560 70 CURVE",
"532 49 OFFCURVE",
"495 37 OFFCURVE",
"453 37 CURVE SMOOTH",
"411 37 OFFCURVE",
"376 42 OFFCURVE",
"345 51 CURVE",
"314 61 OFFCURVE",
"288 76 OFFCURVE",
"266 97 CURVE SMOOTH",
"245 120 OFFCURVE",
"230 139 OFFCURVE",
"221 154 CURVE SMOOTH",
"213 170 OFFCURVE",
"206 187 OFFCURVE",
"201 208 CURVE SMOOTH",
"198 222 OFFCURVE",
"197 238 OFFCURVE",
"197 257 CURVE SMOOTH",
"196 273 OFFCURVE",
"196 291 OFFCURVE",
"197 307 CURVE",
"201 331 OFFCURVE",
"206 349 OFFCURVE",
"211 366 CURVE",
"215 382 OFFCURVE",
"224 397 OFFCURVE",
"237 412 CURVE",
"259 403 OFFCURVE",
"282 399 OFFCURVE",
"306 399 CURVE SMOOTH",
"348 399 OFFCURVE",
"382 409 OFFCURVE",
"408 431 CURVE",
"438 452 OFFCURVE",
"463 475 OFFCURVE",
"492 500 CURVE",
"482 462 OFFCURVE",
"473 424 OFFCURVE",
"459 386 CURVE SMOOTH",
"444 347 OFFCURVE",
"427 302 OFFCURVE",
"405 248 CURVE SMOOTH",
"351 119 LINE",
"356 119 OFFCURVE",
"366 117 OFFCURVE",
"376 117 CURVE",
"387 116 OFFCURVE",
"397 116 OFFCURVE",
"407 116 CURVE SMOOTH",
"416 116 OFFCURVE",
"426 116 OFFCURVE",
"435 117 CURVE SMOOTH",
"442 119 OFFCURVE",
"451 119 OFFCURVE",
"457 122 CURVE",
"457 175 OFFCURVE",
"462 226 OFFCURVE",
"470 275 CURVE",
"478 326 OFFCURVE",
"487 379 OFFCURVE",
"499 434 CURVE SMOOTH",
"532 597 LINE",
"525 597 LINE",
"521 579 OFFCURVE",
"515 563 OFFCURVE",
"507 548 CURVE SMOOTH",
"501 534 OFFCURVE",
"485 515 OFFCURVE",
"465 490 CURVE SMOOTH",
"443 467 OFFCURVE",
"421 447 OFFCURVE",
"393 431 CURVE SMOOTH",
"366 414 OFFCURVE",
"336 407 OFFCURVE",
"305 407 CURVE SMOOTH",
"284 407 OFFCURVE",
"262 411 OFFCURVE",
"239 418 CURVE",
"254 453 OFFCURVE",
"276 484 OFFCURVE",
"304 510 CURVE",
"333 535 OFFCURVE",
"366 557 OFFCURVE",
"403 570 CURVE",
"402 575 LINE",
"364 564 OFFCURVE",
"326 548 OFFCURVE",
"291 524 CURVE SMOOTH",
"256 500 OFFCURVE",
"224 472 OFFCURVE",
"196 438 CURVE",
"166 462 OFFCURVE",
"149 488 OFFCURVE",
"143 514 CURVE SMOOTH",
"140 529 OFFCURVE",
"142 549 OFFCURVE",
"151 574 CURVE SMOOTH",
"160 598 OFFCURVE",
"179 617 OFFCURVE",
"212 630 CURVE SMOOTH",
"243 644 OFFCURVE",
"283 650 OFFCURVE",
"332 650 CURVE SMOOTH",
"355 650 OFFCURVE",
"397 648 OFFCURVE",
"462 641 CURVE SMOOTH",
"524 635 OFFCURVE",
"568 631 OFFCURVE",
"591 631 CURVE SMOOTH",
"641 631 OFFCURVE",
"685 636 OFFCURVE",
"722 646 CURVE SMOOTH",
"756 655 OFFCURVE",
"784 674 OFFCURVE",
"805 701 CURVE",
"800 703 OFFCURVE",
"793 700 OFFCURVE",
"785 694 CURVE SMOOTH",
"776 688 OFFCURVE",
"769 684 OFFCURVE",
"764 683 CURVE SMOOTH"
);
}
);
width = 628;
}
);
note = T;
unicode = 0054;
},
{
glyphname = U;
lastChange = "2018-02-05 08:42:07 +0000";
layers = (
{
layerId = "0B1DFD06-3317-40CA-B510-4969A0718C16";
paths = (
{
closed = 1;
nodes = (
"457 701 LINE",
"433 688 OFFCURVE",
"401 679 OFFCURVE",
"363 673 CURVE SMOOTH",
"250 656 LINE",
"211 649 OFFCURVE",
"179 635 OFFCURVE",
"153 617 CURVE SMOOTH",
"128 597 OFFCURVE",
"109 573 OFFCURVE",
"95 547 CURVE SMOOTH",
"83 520 OFFCURVE",
"81 489 OFFCURVE",
"88 456 CURVE SMOOTH",
"93 434 OFFCURVE",
"100 416 OFFCURVE",
"113 398 CURVE SMOOTH",
"124 379 OFFCURVE",
"139 366 OFFCURVE",
"156 354 CURVE",
"141 326 OFFCURVE",
"131 298 OFFCURVE",
"126 272 CURVE SMOOTH",
"120 246 OFFCURVE",
"118 220 OFFCURVE",
"119 193 CURVE",
"118 167 OFFCURVE",
"121 144 OFFCURVE",
"126 124 CURVE SMOOTH",
"132 97 OFFCURVE",
"142 74 OFFCURVE",
"157 54 CURVE",
"171 34 OFFCURVE",
"187 20 OFFCURVE",
"208 11 CURVE SMOOTH",
"228 2 OFFCURVE",
"246 -5 OFFCURVE",
"263 -9 CURVE",
"277 -11 OFFCURVE",
"290 -12 OFFCURVE",
"304 -12 CURVE SMOOTH",
"345 -12 OFFCURVE",
"381 0 OFFCURVE",
"411 26 CURVE SMOOTH",
"440 51 OFFCURVE",
"467 85 OFFCURVE",
"492 127 CURVE SMOOTH",
"562 247 LINE",
"557 220 OFFCURVE",
"550 193 OFFCURVE",
"542 170 CURVE SMOOTH",
"534 145 OFFCURVE",
"525 117 OFFCURVE",
"512 91 CURVE SMOOTH",
"475 9 LINE",
"487 6 OFFCURVE",
"496 5 OFFCURVE",
"504 5 CURVE",
"511 4 OFFCURVE",
"522 4 OFFCURVE",
"537 4 CURVE SMOOTH",
"543 4 OFFCURVE",
"554 4 OFFCURVE",
"567 5 CURVE",
"600 5 LINE",
"600 84 OFFCURVE",
"607 160 OFFCURVE",
"616 232 CURVE SMOOTH",
"627 306 OFFCURVE",
"640 378 OFFCURVE",
"656 449 CURVE SMOOTH",
"718 696 LINE",
"705 700 LINE",
"693 660 OFFCURVE",
"678 626 OFFCURVE",
"660 600 CURVE SMOOTH",
"642 575 OFFCURVE",
"624 557 OFFCURVE",
"602 543 CURVE SMOOTH",
"581 529 OFFCURVE",
"564 523 OFFCURVE",
"551 523 CURVE SMOOTH",
"542 523 OFFCURVE",
"534 524 OFFCURVE",
"527 528 CURVE SMOOTH",
"520 532 OFFCURVE",
"513 535 OFFCURVE",
"508 539 CURVE",
"503 545 OFFCURVE",
"501 550 OFFCURVE",
"500 552 CURVE SMOOTH",
"499 555 OFFCURVE",
"499 560 OFFCURVE",
"501 564 CURVE SMOOTH",
"502 568 OFFCURVE",
"506 573 OFFCURVE",
"513 579 CURVE",
"517 585 OFFCURVE",
"527 588 OFFCURVE",
"541 588 CURVE SMOOTH",
"552 588 OFFCURVE",
"562 587 OFFCURVE",
"576 583 CURVE",
"568 588 OFFCURVE",
"560 592 OFFCURVE",
"550 594 CURVE SMOOTH",
"540 597 OFFCURVE",
"529 598 OFFCURVE",
"519 598 CURVE SMOOTH",
"510 598 OFFCURVE",
"500 595 OFFCURVE",
"488 592 CURVE",
"478 585 OFFCURVE",
"471 579 OFFCURVE",
"469 572 CURVE",
"464 565 OFFCURVE",
"464 557 OFFCURVE",
"467 545 CURVE SMOOTH",
"468 539 OFFCURVE",
"470 535 OFFCURVE",
"471 533 CURVE SMOOTH",
"476 528 OFFCURVE",
"481 524 OFFCURVE",
"487 520 CURVE",
"511 510 LINE",
"520 509 OFFCURVE",
"529 508 OFFCURVE",
"537 508 CURVE SMOOTH",
"561 508 OFFCURVE",
"583 514 OFFCURVE",
"599 527 CURVE SMOOTH",
"615 539 OFFCURVE",
"639 560 OFFCURVE",
"670 589 CURVE",
"670 565 OFFCURVE",
"667 545 OFFCURVE",
"662 524 CURVE",
"654 504 OFFCURVE",
"650 487 OFFCURVE",
"644 473 CURVE SMOOTH",
"639 459 OFFCURVE",
"622 424 OFFCURVE",
"597 366 CURVE SMOOTH",
"572 307 OFFCURVE",
"551 262 OFFCURVE",
"534 231 CURVE",
"518 197 OFFCURVE",
"495 166 OFFCURVE",
"467 131 CURVE SMOOTH",
"440 97 OFFCURVE",
"416 72 OFFCURVE",
"390 59 CURVE",
"367 45 OFFCURVE",
"353 39 OFFCURVE",
"347 35 CURVE",
"342 34 OFFCURVE",
"333 32 OFFCURVE",
"324 32 CURVE SMOOTH",
"313 32 OFFCURVE",
"299 35 OFFCURVE",
"287 41 CURVE SMOOTH",
"275 47 OFFCURVE",
"262 55 OFFCURVE",
"250 69 CURVE",
"236 82 OFFCURVE",
"224 97 OFFCURVE",
"216 114 CURVE",
"208 130 OFFCURVE",
"202 147 OFFCURVE",
"197 166 CURVE SMOOTH",
"192 187 OFFCURVE",
"191 211 OFFCURVE",
"192 236 CURVE",
"192 262 OFFCURVE",
"198 295 OFFCURVE",
"209 331 CURVE",
"233 322 OFFCURVE",
"253 317 OFFCURVE",
"268 317 CURVE SMOOTH",
"277 317 OFFCURVE",
"287 318 OFFCURVE",
"297 321 CURVE",
"308 324 OFFCURVE",
"321 327 OFFCURVE",
"336 333 CURVE",
"351 338 OFFCURVE",
"363 349 OFFCURVE",
"374 364 CURVE SMOOTH",
"386 379 OFFCURVE",
"394 398 OFFCURVE",
"396 419 CURVE SMOOTH",
"396 423 OFFCURVE",
"396 424 OFFCURVE",
"394 424 CURVE",
"390 426 OFFCURVE",
"388 426 OFFCURVE",
"388 424 CURVE",
"380 398 OFFCURVE",
"373 378 OFFCURVE",
"367 368 CURVE SMOOTH",
"359 357 OFFCURVE",
"346 348 OFFCURVE",
"329 342 CURVE SMOOTH",
"294 331 LINE SMOOTH",
"291 329 OFFCURVE",
"282 329 OFFCURVE",
"271 329 CURVE SMOOTH",
"261 329 OFFCURVE",
"252 328 OFFCURVE",
"243 332 CURVE",
"233 334 OFFCURVE",
"223 338 OFFCURVE",
"210 343 CURVE",
"235 413 OFFCURVE",
"270 478 OFFCURVE",
"312 539 CURVE SMOOTH",
"354 599 OFFCURVE",
"404 653 OFFCURVE",
"461 700 CURVE"
);
},
{
closed = 1;
nodes = (
"204 634 OFFCURVE",
"232 644 OFFCURVE",
"267 648 CURVE SMOOTH",
"298 651 OFFCURVE",
"339 655 OFFCURVE",
"386 659 CURVE",
"294 559 LINE SMOOTH",
"268 530 OFFCURVE",
"246 502 OFFCURVE",
"222 468 CURVE SMOOTH",
"200 437 OFFCURVE",
"178 403 OFFCURVE",
"161 367 CURVE",
"142 381 OFFCURVE",
"128 396 OFFCURVE",
"119 412 CURVE SMOOTH",
"111 427 OFFCURVE",
"104 446 OFFCURVE",
"99 467 CURVE SMOOTH",
"93 492 OFFCURVE",
"96 517 OFFCURVE",
"109 540 CURVE",
"119 565 OFFCURVE",
"145 592 OFFCURVE",
"183 620 CURVE"
);
}
);
width = 735;
}
);
note = U;
unicode = 0055;
},
{
glyphname = V;
lastChange = "2018-02-05 08:42:07 +0000";
layers = (
{
layerId = "0B1DFD06-3317-40CA-B510-4969A0718C16";
paths = (
{
closed = 1;
nodes = (
"522 685 OFFCURVE",
"521 675 OFFCURVE",
"524 666 CURVE SMOOTH",
"528 648 OFFCURVE",
"539 629 OFFCURVE",
"557 608 CURVE SMOOTH",
"574 589 OFFCURVE",
"590 572 OFFCURVE",
"607 555 CURVE",
"602 489 OFFCURVE",
"587 429 OFFCURVE",
"561 373 CURVE SMOOTH",
"538 318 OFFCURVE",
"506 266 OFFCURVE",
"468 216 CURVE SMOOTH",
"431 167 OFFCURVE",
"386 117 OFFCURVE",
"334 64 CURVE",
"304 110 OFFCURVE",
"280 151 OFFCURVE",
"265 190 CURVE SMOOTH",
"251 228 OFFCURVE",
"241 252 OFFCURVE",
"238 267 CURVE SMOOTH",
"236 276 OFFCURVE",
"234 286 OFFCURVE",
"231 302 CURVE",
"226 339 LINE",
"250 339 OFFCURVE",
"270 344 OFFCURVE",
"286 356 CURVE",
"305 366 OFFCURVE",
"317 381 OFFCURVE",
"326 401 CURVE",
"303 374 OFFCURVE",
"286 361 OFFCURVE",
"276 357 CURVE",
"267 352 OFFCURVE",
"255 349 OFFCURVE",
"239 349 CURVE SMOOTH",
"233 349 OFFCURVE",
"228 349 OFFCURVE",
"226 351 CURVE",
"213 409 OFFCURVE",
"221 470 OFFCURVE",
"250 533 CURVE",
"345 690 LINE",
"179 648 LINE SMOOTH",
"122 633 OFFCURVE",
"84 608 OFFCURVE",
"65 573 CURVE SMOOTH",
"47 539 OFFCURVE",
"41 504 OFFCURVE",
"49 468 CURVE SMOOTH",
"52 454 OFFCURVE",
"62 432 OFFCURVE",
"75 402 CURVE",
"91 372 OFFCURVE",
"120 353 OFFCURVE",
"160 344 CURVE",
"162 305 OFFCURVE",
"167 266 OFFCURVE",
"175 230 CURVE SMOOTH",
"182 201 OFFCURVE",
"192 171 OFFCURVE",
"204 141 CURVE SMOOTH",
"215 110 OFFCURVE",
"228 84 OFFCURVE",
"240 62 CURVE SMOOTH",
"253 41 OFFCURVE",
"262 27 OFFCURVE",
"268 21 CURVE",
"272 15 OFFCURVE",
"282 7 OFFCURVE",
"296 -1 CURVE",
"371 72 LINE SMOOTH",
"396 97 OFFCURVE",
"418 122 OFFCURVE",
"440 149 CURVE SMOOTH",
"460 173 OFFCURVE",
"482 202 OFFCURVE",
"503 237 CURVE SMOOTH",
"554 319 LINE",
"566 341 OFFCURVE",
"576 364 OFFCURVE",
"586 393 CURVE SMOOTH",
"594 422 OFFCURVE",
"602 447 OFFCURVE",
"606 473 CURVE SMOOTH",
"619 549 LINE",
"626 543 OFFCURVE",
"634 537 OFFCURVE",
"643 532 CURVE",
"652 525 OFFCURVE",
"660 522 OFFCURVE",
"665 520 CURVE",
"657 533 LINE",
"647 538 OFFCURVE",
"642 543 OFFCURVE",
"637 547 CURVE",
"622 562 LINE",
"620 593 OFFCURVE",
"619 615 OFFCURVE",
"616 631 CURVE SMOOTH",
"613 644 OFFCURVE",
"609 656 OFFCURVE",
"603 669 CURVE SMOOTH",
"598 683 OFFCURVE",
"588 693 OFFCURVE",
"576 701 CURVE",
"566 710 OFFCURVE",
"555 714 OFFCURVE",
"543 714 CURVE SMOOTH",
"532 714 OFFCURVE",
"527 708 OFFCURVE",
"524 695 CURVE"
);
},
{
closed = 1;
nodes = (
"287 635 OFFCURVE",
"261 603 OFFCURVE",
"240 572 CURVE SMOOTH",
"219 540 OFFCURVE",
"201 507 OFFCURVE",
"186 468 CURVE SMOOTH",
"171 428 OFFCURVE",
"163 389 OFFCURVE",
"162 353 CURVE",
"142 357 OFFCURVE",
"125 364 OFFCURVE",
"110 377 CURVE SMOOTH",
"97 388 OFFCURVE",
"86 401 OFFCURVE",
"81 414 CURVE SMOOTH",
"69 443 LINE SMOOTH",
"65 452 OFFCURVE",
"63 458 OFFCURVE",
"60 467 CURVE SMOOTH",
"57 484 OFFCURVE",
"57 507 OFFCURVE",
"64 534 CURVE SMOOTH",
"70 562 OFFCURVE",
"86 584 OFFCURVE",
"113 603 CURVE SMOOTH",
"140 622 OFFCURVE",
"173 635 OFFCURVE",
"210 644 CURVE SMOOTH",
"245 654 OFFCURVE",
"283 661 OFFCURVE",
"317 670 CURVE"
);
},
{
closed = 1;
nodes = (
"568 674 OFFCURVE",
"576 669 OFFCURVE",
"584 656 CURVE",
"590 641 OFFCURVE",
"597 626 OFFCURVE",
"600 613 CURVE SMOOTH",
"609 573 LINE",
"589 592 OFFCURVE",
"576 604 OFFCURVE",
"570 610 CURVE",
"564 619 OFFCURVE",
"562 625 OFFCURVE",
"560 635 CURVE SMOOTH",
"558 643 LINE SMOOTH",
"557 646 OFFCURVE",
"557 653 OFFCURVE",
"556 659 CURVE",
"557 664 OFFCURVE",
"559 668 OFFCURVE",
"563 670 CURVE"
);
}
);
width = 641;
}
);
note = V;
unicode = 0056;
},
{
glyphname = W;
lastChange = "2018-02-05 08:42:07 +0000";
layers = (
{
layerId = "0B1DFD06-3317-40CA-B510-4969A0718C16";
paths = (
{
closed = 1;
nodes = (
"512 671 OFFCURVE",
"481 628 OFFCURVE",
"463 583 CURVE SMOOTH",
"448 539 OFFCURVE",
"440 502 OFFCURVE",
"442 469 CURVE SMOOTH",
"444 438 OFFCURVE",
"449 378 OFFCURVE",
"459 285 CURVE",
"448 263 OFFCURVE",
"436 243 OFFCURVE",
"423 223 CURVE SMOOTH",
"369 152 LINE SMOOTH",
"346 124 OFFCURVE",
"329 104 OFFCURVE",
"318 85 CURVE",
"310 104 OFFCURVE",
"296 130 OFFCURVE",
"277 168 CURVE SMOOTH",
"259 206 OFFCURVE",
"245 242 OFFCURVE",
"237 276 CURVE SMOOTH",
"233 296 OFFCURVE",
"231 314 OFFCURVE",
"229 334 CURVE",
"251 334 OFFCURVE",
"269 342 OFFCURVE",
"283 356 CURVE",
"298 372 OFFCURVE",
"310 388 OFFCURVE",
"319 412 CURVE",
"309 419 LINE",
"295 396 OFFCURVE",
"282 378 OFFCURVE",
"269 367 CURVE",
"258 356 OFFCURVE",
"243 349 OFFCURVE",
"224 349 CURVE",
"220 396 OFFCURVE",
"223 443 OFFCURVE",
"233 490 CURVE SMOOTH",
"244 537 OFFCURVE",
"261 579 OFFCURVE",
"282 623 CURVE",
"350 704 LINE",
"343 705 OFFCURVE",
"339 705 OFFCURVE",
"338 704 CURVE",
"313 688 OFFCURVE",
"276 673 OFFCURVE",
"226 659 CURVE SMOOTH",
"175 644 OFFCURVE",
"138 633 OFFCURVE",
"114 623 CURVE",
"91 612 OFFCURVE",
"70 595 OFFCURVE",
"52 567 CURVE SMOOTH",
"35 538 OFFCURVE",
"30 505 OFFCURVE",
"39 467 CURVE SMOOTH",
"45 442 OFFCURVE",
"55 419 OFFCURVE",
"68 399 CURVE",
"82 381 OFFCURVE",
"97 367 OFFCURVE",
"110 359 CURVE",
"124 349 OFFCURVE",
"145 342 OFFCURVE",
"171 336 CURVE",
"175 287 LINE",
"177 276 OFFCURVE",
"181 257 OFFCURVE",
"187 228 CURVE SMOOTH",
"193 205 OFFCURVE",
"200 178 OFFCURVE",
"209 151 CURVE SMOOTH",
"218 122 OFFCURVE",
"233 77 OFFCURVE",
"255 17 CURVE",
"257 14 OFFCURVE",
"259 10 OFFCURVE",
"264 6 CURVE SMOOTH",
"269 2 OFFCURVE",
"273 1 OFFCURVE",
"276 2 CURVE",
"329 70 LINE SMOOTH",
"344 89 OFFCURVE",
"366 116 OFFCURVE",
"395 160 CURVE SMOOTH",
"424 202 OFFCURVE",
"448 233 OFFCURVE",
"468 253 CURVE",
"480 198 OFFCURVE",
"491 158 OFFCURVE",
"498 135 CURVE",
"505 111 OFFCURVE",
"515 86 OFFCURVE",
"526 60 CURVE SMOOTH",
"537 34 OFFCURVE",
"545 17 OFFCURVE",
"548 14 CURVE",
"551 7 OFFCURVE",
"556 5 OFFCURVE",
"560 5 CURVE SMOOTH",
"561 5 OFFCURVE",
"576 20 OFFCURVE",
"606 49 CURVE",
"633 77 OFFCURVE",
"667 120 OFFCURVE",
"707 176 CURVE SMOOTH",
"748 232 OFFCURVE",
"780 292 OFFCURVE",
"805 356 CURVE SMOOTH",
"831 418 OFFCURVE",
"845 484 OFFCURVE",
"849 554 CURVE",
"859 548 OFFCURVE",
"868 543 OFFCURVE",
"872 542 CURVE SMOOTH",
"885 538 LINE",
"884 543 LINE",
"873 547 OFFCURVE",
"861 554 OFFCURVE",
"849 565 CURVE",
"847 594 LINE",
"846 600 OFFCURVE",
"844 610 OFFCURVE",
"842 620 CURVE SMOOTH",
"839 631 OFFCURVE",
"835 644 OFFCURVE",
"829 655 CURVE",
"823 669 OFFCURVE",
"817 678 OFFCURVE",
"810 686 CURVE",
"803 694 OFFCURVE",
"793 701 OFFCURVE",
"784 708 CURVE SMOOTH",
"773 714 OFFCURVE",
"766 718 OFFCURVE",
"761 718 CURVE SMOOTH",
"757 718 OFFCURVE",
"754 715 OFFCURVE",
"751 709 CURVE",
"749 691 LINE",
"747 686 OFFCURVE",
"747 680 OFFCURVE",
"749 671 CURVE SMOOTH",
"753 655 OFFCURVE",
"763 639 OFFCURVE",
"779 623 CURVE",
"839 559 LINE",
"835 498 OFFCURVE",
"826 443 OFFCURVE",
"809 394 CURVE SMOOTH",
"793 344 OFFCURVE",
"770 297 OFFCURVE",
"740 252 CURVE SMOOTH",
"710 203 OFFCURVE",
"668 147 OFFCURVE",
"610 77 CURVE",
"589 114 OFFCURVE",
"569 155 OFFCURVE",
"554 198 CURVE SMOOTH",
"537 245 OFFCURVE",
"524 291 OFFCURVE",
"513 339 CURVE",
"565 448 LINE SMOOTH",
"585 487 OFFCURVE",
"596 524 OFFCURVE",
"601 563 CURVE SMOOTH",
"607 602 OFFCURVE",
"604 645 OFFCURVE",
"592 696 CURVE SMOOTH",
"591 701 OFFCURVE",
"588 706 OFFCURVE",
"582 711 CURVE SMOOTH",
"577 715 OFFCURVE",
"571 718 OFFCURVE",
"565 718 CURVE SMOOTH",
"563 718 OFFCURVE",
"562 716 OFFCURVE",
"558 715 CURVE"
);
},
{
closed = 1;
nodes = (
"220 646 LINE SMOOTH",
"228 650 OFFCURVE",
"237 653 OFFCURVE",
"246 654 CURVE",
"274 659 LINE",
"218 568 LINE",
"201 532 OFFCURVE",
"190 495 OFFCURVE",
"182 459 CURVE SMOOTH",
"175 424 OFFCURVE",
"171 388 OFFCURVE",
"172 349 CURVE",
"150 356 OFFCURVE",
"131 362 OFFCURVE",
"118 371 CURVE SMOOTH",
"107 378 OFFCURVE",
"94 389 OFFCURVE",
"81 404 CURVE",
"68 421 OFFCURVE",
"59 438 OFFCURVE",
"54 458 CURVE SMOOTH",
"47 490 OFFCURVE",
"52 520 OFFCURVE",
"68 548 CURVE SMOOTH",
"84 575 OFFCURVE",
"106 595 OFFCURVE",
"133 609 CURVE"
);
},
{
closed = 1;
nodes = (
"540 685 OFFCURVE",
"543 686 OFFCURVE",
"547 686 CURVE SMOOTH",
"553 686 OFFCURVE",
"558 684 OFFCURVE",
"562 680 CURVE SMOOTH",
"567 676 OFFCURVE",
"571 670 OFFCURVE",
"573 664 CURVE SMOOTH",
"581 630 OFFCURVE",
"581 598 OFFCURVE",
"578 564 CURVE SMOOTH",
"574 533 OFFCURVE",
"566 502 OFFCURVE",
"557 473 CURVE",
"545 444 OFFCURVE",
"532 412 OFFCURVE",
"512 373 CURVE",
"506 373 LINE",
"491 439 OFFCURVE",
"485 498 OFFCURVE",
"486 550 CURVE SMOOTH",
"488 602 OFFCURVE",
"504 646 OFFCURVE",
"537 683 CURVE"
);
},
{
closed = 1;
nodes = (
"802 674 OFFCURVE",
"810 661 OFFCURVE",
"817 640 CURVE",
"825 622 OFFCURVE",
"832 599 OFFCURVE",
"838 574 CURVE",
"793 628 LINE",
"782 643 OFFCURVE",
"776 655 OFFCURVE",
"774 664 CURVE SMOOTH",
"774 665 OFFCURVE",
"774 669 OFFCURVE",
"773 674 CURVE SMOOTH",
"773 679 OFFCURVE",
"777 681 OFFCURVE",
"783 681 CURVE SMOOTH",
"785 681 OFFCURVE",
"788 680 OFFCURVE",
"793 679 CURVE"
);
}
);
width = 875;
}
);
note = W;
unicode = 0057;
},
{
glyphname = X;
lastChange = "2018-02-05 08:42:07 +0000";
layers = (
{
layerId = "0B1DFD06-3317-40CA-B510-4969A0718C16";
paths = (
{
closed = 1;
nodes = (
"739 684 OFFCURVE",
"689 643 OFFCURVE",
"651 582 CURVE",
"563 403 LINE",
"562 407 OFFCURVE",
"555 448 OFFCURVE",
"538 527 CURVE SMOOTH",
"521 605 OFFCURVE",
"510 661 OFFCURVE",
"501 700 CURVE",
"492 704 LINE",
"476 659 OFFCURVE",
"451 623 OFFCURVE",
"421 594 CURVE SMOOTH",
"392 565 OFFCURVE",
"352 552 OFFCURVE",
"303 552 CURVE SMOOTH",
"293 552 OFFCURVE",
"282 553 OFFCURVE",
"272 554 CURVE SMOOTH",
"261 555 OFFCURVE",
"253 560 OFFCURVE",
"245 569 CURVE",
"236 577 OFFCURVE",
"231 587 OFFCURVE",
"228 598 CURVE SMOOTH",
"227 604 OFFCURVE",
"227 613 OFFCURVE",
"230 622 CURVE",
"234 630 OFFCURVE",
"242 639 OFFCURVE",
"255 645 CURVE SMOOTH",
"268 651 OFFCURVE",
"286 654 OFFCURVE",
"307 654 CURVE SMOOTH",
"313 654 OFFCURVE",
"327 653 OFFCURVE",
"350 650 CURVE SMOOTH",
"372 648 OFFCURVE",
"386 646 OFFCURVE",
"395 646 CURVE",
"394 650 LINE",
"392 650 OFFCURVE",
"383 654 OFFCURVE",
"371 660 CURVE",
"334 674 LINE SMOOTH",
"326 678 OFFCURVE",
"316 678 OFFCURVE",
"305 679 CURVE SMOOTH",
"293 680 OFFCURVE",
"283 681 OFFCURVE",
"273 681 CURVE SMOOTH",
"245 681 OFFCURVE",
"222 676 OFFCURVE",
"203 666 CURVE",
"185 655 OFFCURVE",
"175 641 OFFCURVE",
"172 628 CURVE",
"170 612 OFFCURVE",
"169 600 OFFCURVE",
"170 593 CURVE SMOOTH",
"175 572 OFFCURVE",
"190 553 OFFCURVE",
"217 538 CURVE",
"243 524 OFFCURVE",
"270 517 OFFCURVE",
"298 517 CURVE SMOOTH",
"336 517 OFFCURVE",
"372 529 OFFCURVE",
"405 555 CURVE SMOOTH",
"439 582 OFFCURVE",
"467 615 OFFCURVE",
"492 654 CURVE",
"496 640 OFFCURVE",
"499 630 OFFCURVE",
"502 617 CURVE SMOOTH",
"507 593 OFFCURVE",
"512 557 OFFCURVE",
"519 503 CURVE SMOOTH",
"526 451 OFFCURVE",
"534 407 OFFCURVE",
"542 373 CURVE",
"523 374 OFFCURVE",
"506 376 OFFCURVE",
"487 376 CURVE SMOOTH",
"456 376 OFFCURVE",
"424 372 OFFCURVE",
"395 366 CURVE",
"366 357 OFFCURVE",
"334 344 OFFCURVE",
"299 327 CURVE SMOOTH",
"265 308 OFFCURVE",
"231 286 OFFCURVE",
"199 257 CURVE",
"167 231 OFFCURVE",
"141 200 OFFCURVE",
"124 161 CURVE SMOOTH",
"107 122 OFFCURVE",
"102 82 OFFCURVE",
"112 40 CURVE SMOOTH",
"115 27 OFFCURVE",
"121 17 OFFCURVE",
"130 9 CURVE SMOOTH",
"138 1 OFFCURVE",
"149 -4 OFFCURVE",
"163 -6 CURVE",
"178 -7 OFFCURVE",
"188 -7 OFFCURVE",
"202 -7 CURVE SMOOTH",
"260 -7 OFFCURVE",
"310 10 OFFCURVE",
"347 46 CURVE SMOOTH",
"386 81 OFFCURVE",
"427 135 OFFCURVE",
"467 207 CURVE SMOOTH",
"508 280 OFFCURVE",
"535 324 OFFCURVE",
"549 342 CURVE",
"549 323 OFFCURVE",
"553 286 OFFCURVE",
"560 231 CURVE SMOOTH",
"567 177 OFFCURVE",
"572 135 OFFCURVE",
"576 101 CURVE",
"579 67 OFFCURVE",
"580 36 OFFCURVE",
"578 6 CURVE",
"588 2 OFFCURVE",
"593 1 OFFCURVE",
"598 1 CURVE",
"600 0 OFFCURVE",
"606 0 OFFCURVE",
"618 0 CURVE SMOOTH",
"621 0 OFFCURVE",
"629 0 OFFCURVE",
"644 1 CURVE SMOOTH",
"659 2 OFFCURVE",
"670 4 OFFCURVE",
"679 4 CURVE SMOOTH",
"689 4 LINE SMOOTH",
"693 4 OFFCURVE",
"696 2 OFFCURVE",
"700 2 CURVE",
"672 62 OFFCURVE",
"651 121 OFFCURVE",
"628 182 CURVE",
"608 241 OFFCURVE",
"591 301 OFFCURVE",
"577 359 CURVE",
"607 359 OFFCURVE",
"635 351 OFFCURVE",
"660 334 CURVE",
"729 283 LINE",
"687 324 OFFCURVE",
"659 349 OFFCURVE",
"644 357 CURVE SMOOTH",
"631 363 OFFCURVE",
"609 369 OFFCURVE",
"574 374 CURVE",
"572 383 LINE",
"585 404 OFFCURVE",
"600 436 OFFCURVE",
"620 475 CURVE SMOOTH",
"641 517 OFFCURVE",
"658 549 OFFCURVE",
"673 573 CURVE SMOOTH",
"687 598 OFFCURVE",
"704 620 OFFCURVE",
"724 640 CURVE",
"743 661 OFFCURVE",
"763 671 OFFCURVE",
"786 671 CURVE SMOOTH",
"802 671 OFFCURVE",
"821 666 OFFCURVE",
"841 656 CURVE SMOOTH",
"861 646 OFFCURVE",
"872 631 OFFCURVE",
"877 613 CURVE SMOOTH",
"877 609 OFFCURVE",
"880 603 OFFCURVE",
"879 593 CURVE",
"880 583 OFFCURVE",
"875 575 OFFCURVE",
"869 569 CURVE",
"862 560 OFFCURVE",
"849 557 OFFCURVE",
"837 548 CURVE SMOOTH",
"823 539 OFFCURVE",
"813 535 OFFCURVE",
"804 534 CURVE SMOOTH",
"795 533 OFFCURVE",
"788 532 OFFCURVE",
"778 532 CURVE SMOOTH",
"769 532 OFFCURVE",
"765 532 OFFCURVE",
"757 533 CURVE",
"750 533 OFFCURVE",
"745 533 OFFCURVE",
"737 534 CURVE",
"759 527 OFFCURVE",
"780 523 OFFCURVE",
"801 523 CURVE SMOOTH",
"830 523 OFFCURVE",
"858 530 OFFCURVE",
"882 544 CURVE SMOOTH",
"908 558 OFFCURVE",
"924 573 OFFCURVE",
"927 589 CURVE",
"933 605 OFFCURVE",
"935 618 OFFCURVE",
"933 628 CURVE SMOOTH",
"931 638 OFFCURVE",
"926 648 OFFCURVE",
"919 658 CURVE",
"910 668 OFFCURVE",
"899 679 OFFCURVE",
"885 690 CURVE SMOOTH",
"870 703 OFFCURVE",
"852 709 OFFCURVE",
"831 709 CURVE SMOOTH",
"822 709 OFFCURVE",
"813 708 OFFCURVE",
"803 705 CURVE"
);
},
{
closed = 1;
nodes = (
"535 351 LINE",
"473 246 LINE SMOOTH",
"436 185 OFFCURVE",
"402 137 OFFCURVE",
"371 102 CURVE SMOOTH",
"342 67 OFFCURVE",
"313 46 OFFCURVE",
"289 32 CURVE SMOOTH",
"263 20 OFFCURVE",
"249 14 OFFCURVE",
"244 14 CURVE SMOOTH",
"235 14 OFFCURVE",
"226 17 OFFCURVE",
"215 24 CURVE",
"206 30 OFFCURVE",
"199 39 OFFCURVE",
"196 47 CURVE SMOOTH",
"193 57 OFFCURVE",
"190 66 OFFCURVE",
"188 75 CURVE SMOOTH",
"176 125 OFFCURVE",
"184 170 OFFCURVE",
"214 210 CURVE SMOOTH",
"244 248 OFFCURVE",
"279 281 OFFCURVE",
"324 307 CURVE SMOOTH",
"370 332 OFFCURVE",
"404 348 OFFCURVE",
"432 352 CURVE",
"458 357 OFFCURVE",
"495 359 OFFCURVE",
"542 359 CURVE"
);
}
);
width = 941;
}
);
note = X;
unicode = 0058;
},
{
glyphname = Y;
lastChange = "2018-02-05 08:42:07 +0000";
layers = (
{
layerId = "0B1DFD06-3317-40CA-B510-4969A0718C16";
paths = (
{
closed = 1;
nodes = (
"626 680 OFFCURVE",
"627 671 OFFCURVE",
"628 665 CURVE SMOOTH",
"632 649 OFFCURVE",
"641 630 OFFCURVE",
"655 610 CURVE",
"669 592 OFFCURVE",
"688 570 OFFCURVE",
"710 545 CURVE",
"706 492 OFFCURVE",
"693 441 OFFCURVE",
"672 391 CURVE SMOOTH",
"651 339 OFFCURVE",
"624 288 OFFCURVE",
"591 235 CURVE",
"536 298 OFFCURVE",
"490 367 OFFCURVE",
"455 447 CURVE SMOOTH",
"418 527 OFFCURVE",
"392 612 OFFCURVE",
"371 706 CURVE",
"360 706 LINE",
"354 671 OFFCURVE",
"338 640 OFFCURVE",
"314 614 CURVE SMOOTH",
"292 588 OFFCURVE",
"268 572 OFFCURVE",
"248 568 CURVE SMOOTH",
"210 562 LINE",
"204 560 OFFCURVE",
"198 560 OFFCURVE",
"193 560 CURVE SMOOTH",
"182 560 OFFCURVE",
"172 562 OFFCURVE",
"163 565 CURVE",
"151 569 OFFCURVE",
"142 575 OFFCURVE",
"135 582 CURVE",
"127 590 OFFCURVE",
"121 598 OFFCURVE",
"119 607 CURVE SMOOTH",
"118 615 OFFCURVE",
"119 622 OFFCURVE",
"124 628 CURVE",
"127 635 OFFCURVE",
"135 641 OFFCURVE",
"144 648 CURVE",
"153 654 OFFCURVE",
"163 658 OFFCURVE",
"175 660 CURVE SMOOTH",
"185 663 OFFCURVE",
"198 664 OFFCURVE",
"211 664 CURVE SMOOTH",
"233 664 OFFCURVE",
"252 661 OFFCURVE",
"272 655 CURVE",
"271 661 LINE",
"217 674 LINE",
"200 676 OFFCURVE",
"183 678 OFFCURVE",
"168 678 CURVE SMOOTH",
"152 678 OFFCURVE",
"137 675 OFFCURVE",
"122 671 CURVE",
"108 666 OFFCURVE",
"94 660 OFFCURVE",
"82 646 CURVE",
"69 634 OFFCURVE",
"65 618 OFFCURVE",
"69 598 CURVE SMOOTH",
"71 592 OFFCURVE",
"74 584 OFFCURVE",
"79 573 CURVE",
"86 562 OFFCURVE",
"95 554 OFFCURVE",
"110 548 CURVE",
"124 543 OFFCURVE",
"139 538 OFFCURVE",
"156 537 CURVE",
"173 534 OFFCURVE",
"185 533 OFFCURVE",
"194 533 CURVE SMOOTH",
"230 533 OFFCURVE",
"261 543 OFFCURVE",
"285 562 CURVE SMOOTH",
"310 582 OFFCURVE",
"334 612 OFFCURVE",
"358 651 CURVE",
"362 617 OFFCURVE",
"368 584 OFFCURVE",
"375 554 CURVE SMOOTH",
"389 490 OFFCURVE",
"412 423 OFFCURVE",
"442 352 CURVE SMOOTH",
"472 283 OFFCURVE",
"505 222 OFFCURVE",
"543 163 CURVE",
"532 142 OFFCURVE",
"519 124 OFFCURVE",
"500 110 CURVE",
"484 95 OFFCURVE",
"461 80 OFFCURVE",
"434 65 CURVE SMOOTH",
"407 49 OFFCURVE",
"385 37 OFFCURVE",
"366 31 CURVE SMOOTH",
"349 25 OFFCURVE",
"329 21 OFFCURVE",
"305 21 CURVE SMOOTH",
"285 21 OFFCURVE",
"267 24 OFFCURVE",
"252 30 CURVE SMOOTH",
"235 36 OFFCURVE",
"221 44 OFFCURVE",
"208 55 CURVE SMOOTH",
"195 65 OFFCURVE",
"187 72 OFFCURVE",
"183 79 CURVE",
"178 85 OFFCURVE",
"175 91 OFFCURVE",
"174 97 CURVE SMOOTH",
"172 106 OFFCURVE",
"174 116 OFFCURVE",
"179 127 CURVE SMOOTH",
"185 139 OFFCURVE",
"197 150 OFFCURVE",
"213 158 CURVE SMOOTH",
"231 167 OFFCURVE",
"253 171 OFFCURVE",
"277 171 CURVE SMOOTH",
"287 171 OFFCURVE",
"297 170 OFFCURVE",
"308 168 CURVE",
"325 168 OFFCURVE",
"349 161 OFFCURVE",
"379 145 CURVE",
"411 129 OFFCURVE",
"427 119 OFFCURVE",
"431 117 CURVE",
"407 146 OFFCURVE",
"380 166 OFFCURVE",
"351 177 CURVE SMOOTH",
"319 190 OFFCURVE",
"282 196 OFFCURVE",
"243 196 CURVE SMOOTH",
"203 196 OFFCURVE",
"172 191 OFFCURVE",
"149 181 CURVE SMOOTH",
"124 171 OFFCURVE",
"110 157 OFFCURVE",
"103 139 CURVE",
"99 119 OFFCURVE",
"97 106 OFFCURVE",
"98 100 CURVE SMOOTH",
"101 87 OFFCURVE",
"109 75 OFFCURVE",
"121 61 CURVE",
"135 47 OFFCURVE",
"154 36 OFFCURVE",
"182 21 CURVE",
"209 7 OFFCURVE",
"242 0 OFFCURVE",
"281 0 CURVE SMOOTH",
"314 0 OFFCURVE",
"359 11 OFFCURVE",
"411 34 CURVE SMOOTH",
"463 55 OFFCURVE",
"512 92 OFFCURVE",
"557 146 CURVE SMOOTH",
"603 197 OFFCURVE",
"638 255 OFFCURVE",
"663 321 CURVE SMOOTH",
"689 384 OFFCURVE",
"710 454 OFFCURVE",
"724 533 CURVE",
"742 520 LINE",
"749 517 OFFCURVE",
"758 514 OFFCURVE",
"765 513 CURVE",
"754 519 OFFCURVE",
"745 525 OFFCURVE",
"740 529 CURVE",
"726 545 LINE",
"728 584 LINE SMOOTH",
"729 597 OFFCURVE",
"727 609 OFFCURVE",
"724 622 CURVE SMOOTH",
"720 638 OFFCURVE",
"715 651 OFFCURVE",
"707 663 CURVE",
"699 674 OFFCURVE",
"688 684 OFFCURVE",
"676 690 CURVE SMOOTH",
"663 698 OFFCURVE",
"653 701 OFFCURVE",
"644 701 CURVE SMOOTH",
"635 701 OFFCURVE",
"628 698 OFFCURVE",
"626 689 CURVE"
);
},
{
closed = 1;
nodes = (
"673 665 OFFCURVE",
"677 664 OFFCURVE",
"680 660 CURVE",
"697 641 LINE SMOOTH",
"703 633 OFFCURVE",
"708 623 OFFCURVE",
"710 614 CURVE SMOOTH",
"712 605 OFFCURVE",
"713 595 OFFCURVE",
"712 585 CURVE",
"711 560 LINE",
"696 577 OFFCURVE",
"685 589 OFFCURVE",
"677 599 CURVE",
"671 609 OFFCURVE",
"665 618 OFFCURVE",
"662 624 CURVE",
"660 633 OFFCURVE",
"659 635 OFFCURVE",
"658 639 CURVE SMOOTH",
"655 654 OFFCURVE",
"657 663 OFFCURVE",
"667 664 CURVE"
);
}
);
width = 749;
}
);
note = Y;
unicode = 0059;
},
{
glyphname = Z;
lastChange = "2018-02-05 08:42:07 +0000";
layers = (
{
layerId = "0B1DFD06-3317-40CA-B510-4969A0718C16";
paths = (
{
closed = 1;
nodes = (
"229 676 OFFCURVE",
"216 668 OFFCURVE",
"207 656 CURVE SMOOTH",
"199 646 OFFCURVE",
"197 634 OFFCURVE",
"201 618 CURVE SMOOTH",
"204 604 OFFCURVE",
"209 594 OFFCURVE",
"217 585 CURVE",
"229 575 OFFCURVE",
"240 567 OFFCURVE",
"253 560 CURVE",
"269 552 OFFCURVE",
"283 548 OFFCURVE",
"299 544 CURVE SMOOTH",
"314 540 OFFCURVE",
"330 539 OFFCURVE",
"349 539 CURVE SMOOTH",
"378 539 OFFCURVE",
"407 543 OFFCURVE",
"435 552 CURVE SMOOTH",
"464 560 OFFCURVE",
"487 567 OFFCURVE",
"505 575 CURVE SMOOTH",
"521 584 OFFCURVE",
"533 589 OFFCURVE",
"546 594 CURVE SMOOTH",
"556 598 OFFCURVE",
"565 603 OFFCURVE",
"574 608 CURVE",
"557 579 OFFCURVE",
"540 552 OFFCURVE",
"521 528 CURVE SMOOTH",
"503 504 OFFCURVE",
"480 477 OFFCURVE",
"453 444 CURVE SMOOTH",
"392 373 LINE SMOOTH",
"379 357 OFFCURVE",
"372 346 OFFCURVE",
"373 342 CURVE SMOOTH",
"375 337 OFFCURVE",
"376 333 OFFCURVE",
"380 331 CURVE",
"384 328 OFFCURVE",
"387 328 OFFCURVE",
"388 331 CURVE",
"412 354 OFFCURVE",
"431 372 OFFCURVE",
"450 383 CURVE SMOOTH",
"468 394 OFFCURVE",
"492 399 OFFCURVE",
"521 399 CURVE SMOOTH",
"542 399 OFFCURVE",
"562 397 OFFCURVE",
"578 392 CURVE",
"593 388 OFFCURVE",
"605 381 OFFCURVE",
"619 368 CURVE SMOOTH",
"632 357 OFFCURVE",
"640 343 OFFCURVE",
"643 329 CURVE SMOOTH",
"645 321 OFFCURVE",
"645 316 OFFCURVE",
"646 307 CURVE",
"644 261 LINE",
"643 237 OFFCURVE",
"634 213 OFFCURVE",
"621 187 CURVE SMOOTH",
"607 161 OFFCURVE",
"590 139 OFFCURVE",
"570 121 CURVE SMOOTH",
"551 102 OFFCURVE",
"524 82 OFFCURVE",
"492 62 CURVE",
"456 91 OFFCURVE",
"429 112 OFFCURVE",
"405 129 CURVE SMOOTH",
"381 145 OFFCURVE",
"354 160 OFFCURVE",
"323 173 CURVE SMOOTH",
"294 186 OFFCURVE",
"267 193 OFFCURVE",
"240 196 CURVE",
"214 200 OFFCURVE",
"197 201 OFFCURVE",
"191 201 CURVE SMOOTH",
"185 201 OFFCURVE",
"179 202 OFFCURVE",
"173 202 CURVE SMOOTH",
"143 202 OFFCURVE",
"119 197 OFFCURVE",
"97 188 CURVE SMOOTH",
"78 181 OFFCURVE",
"63 170 OFFCURVE",
"57 155 CURVE",
"50 141 OFFCURVE",
"48 129 OFFCURVE",
"50 119 CURVE SMOOTH",
"53 107 OFFCURVE",
"64 91 OFFCURVE",
"85 67 CURVE",
"106 44 OFFCURVE",
"140 26 OFFCURVE",
"186 15 CURVE SMOOTH",
"229 4 OFFCURVE",
"283 -1 OFFCURVE",
"349 -1 CURVE SMOOTH",
"379 -1 OFFCURVE",
"407 1 OFFCURVE",
"435 5 CURVE",
"462 10 OFFCURVE",
"490 16 OFFCURVE",
"519 25 CURVE",
"533 14 OFFCURVE",
"545 2 OFFCURVE",
"554 -7 CURVE",
"563 -19 OFFCURVE",
"573 -31 OFFCURVE",
"581 -46 CURVE",
"578 -32 OFFCURVE",
"572 -20 OFFCURVE",
"564 -6 CURVE",
"554 7 OFFCURVE",
"543 19 OFFCURVE",
"529 30 CURVE",
"563 49 OFFCURVE",
"592 66 OFFCURVE",
"619 86 CURVE SMOOTH",
"645 106 OFFCURVE",
"668 127 OFFCURVE",
"685 151 CURVE SMOOTH",
"703 177 OFFCURVE",
"714 201 OFFCURVE",
"718 225 CURVE SMOOTH",
"723 250 OFFCURVE",
"723 270 OFFCURVE",
"719 286 CURVE SMOOTH",
"710 326 OFFCURVE",
"692 356 OFFCURVE",
"667 376 CURVE SMOOTH",
"640 396 OFFCURVE",
"620 408 OFFCURVE",
"603 413 CURVE",
"586 417 OFFCURVE",
"568 419 OFFCURVE",
"551 419 CURVE SMOOTH",
"532 419 OFFCURVE",
"516 418 OFFCURVE",
"498 414 CURVE",
"445 399 LINE",
"502 477 LINE",
"522 502 OFFCURVE",
"548 537 OFFCURVE",
"581 580 CURVE SMOOTH",
"616 625 OFFCURVE",
"643 659 OFFCURVE",
"663 688 CURVE",
"656 691 OFFCURVE",
"650 694 OFFCURVE",
"646 694 CURVE",
"608 655 OFFCURVE",
"567 626 OFFCURVE",
"525 605 CURVE SMOOTH",
"481 583 OFFCURVE",
"435 572 OFFCURVE",
"386 572 CURVE SMOOTH",
"371 572 OFFCURVE",
"360 572 OFFCURVE",
"346 573 CURVE",
"310 580 LINE",
"299 584 OFFCURVE",
"288 588 OFFCURVE",
"277 597 CURVE SMOOTH",
"267 605 OFFCURVE",
"261 613 OFFCURVE",
"259 622 CURVE SMOOTH",
"258 625 OFFCURVE",
"262 631 OFFCURVE",
"268 643 CURVE",
"276 653 OFFCURVE",
"287 660 OFFCURVE",
"303 666 CURVE SMOOTH",
"317 673 OFFCURVE",
"335 676 OFFCURVE",
"356 676 CURVE SMOOTH",
"371 676 OFFCURVE",
"390 674 OFFCURVE",
"415 670 CURVE",
"479 656 LINE",
"458 670 OFFCURVE",
"432 680 OFFCURVE",
"405 688 CURVE SMOOTH",
"379 695 OFFCURVE",
"353 699 OFFCURVE",
"327 699 CURVE SMOOTH",
"296 699 OFFCURVE",
"268 694 OFFCURVE",
"246 683 CURVE"
);
},
{
closed = 1;
nodes = (
"130 132 OFFCURVE",
"148 140 OFFCURVE",
"166 144 CURVE",
"183 149 OFFCURVE",
"203 151 OFFCURVE",
"226 151 CURVE SMOOTH",
"268 151 OFFCURVE",
"313 142 OFFCURVE",
"358 125 CURVE SMOOTH",
"402 109 OFFCURVE",
"445 85 OFFCURVE",
"485 56 CURVE",
"459 40 LINE SMOOTH",
"450 35 OFFCURVE",
"439 31 OFFCURVE",
"423 29 CURVE SMOOTH",
"372 20 LINE SMOOTH",
"353 17 OFFCURVE",
"337 16 OFFCURVE",
"323 16 CURVE SMOOTH",
"309 16 OFFCURVE",
"294 17 OFFCURVE",
"276 19 CURVE",
"208 29 LINE SMOOTH",
"183 32 OFFCURVE",
"160 41 OFFCURVE",
"140 54 CURVE",
"121 67 OFFCURVE",
"111 81 OFFCURVE",
"107 97 CURVE SMOOTH",
"104 110 OFFCURVE",
"105 117 OFFCURVE",
"113 121 CURVE"
);
}
);
width = 696;
}
);
note = Z;
unicode = 005A;
},
{
glyphname = a;
lastChange = "2018-02-05 08:42:07 +0000";
layers = (
{
layerId = "0B1DFD06-3317-40CA-B510-4969A0718C16";
paths = (
{
closed = 1;
nodes = (
"122 322 OFFCURVE",
"79 246 OFFCURVE",
"69 207 CURVE",
"38 107 OFFCURVE",
"54 39 OFFCURVE",
"111 5 CURVE SMOOTH",
"156 -21 OFFCURVE",
"240 17 OFFCURVE",
"254 24 CURVE",
"273 35 OFFCURVE",
"323 65 OFFCURVE",
"368 119 CURVE SMOOTH",
"379 130 LINE",
"366 76 OFFCURVE",
"364 49 OFFCURVE",
"368 32 CURVE SMOOTH",
"371 19 OFFCURVE",
"376 14 OFFCURVE",
"381 10 CURVE",
"390 -1 OFFCURVE",
"401 -4 OFFCURVE",
"415 -4 CURVE",
"475 0 OFFCURVE",
"525 82 OFFCURVE",
"527 86 CURVE",
"520 80 OFFCURVE",
"439 21 OFFCURVE",
"406 37 CURVE",
"392 140 OFFCURVE",
"506 366 OFFCURVE",
"506 368 CURVE",
"499 377 OFFCURVE",
"492 381 OFFCURVE",
"483 381 CURVE SMOOTH",
"479 381 OFFCURVE",
"474 381 OFFCURVE",
"469 379 CURVE",
"362 180 OFFCURVE",
"362 176 OFFCURVE",
"336 149 CURVE SMOOTH",
"292 97 OFFCURVE",
"247 69 OFFCURVE",
"229 59 CURVE",
"204 42 OFFCURVE",
"142 27 OFFCURVE",
"124 37 CURVE",
"75 66 OFFCURVE",
"97 160 OFFCURVE",
"108 188 CURVE",
"120 225 OFFCURVE",
"158 301 OFFCURVE",
"203 341 CURVE SMOOTH",
"337 467 OFFCURVE",
"532 426 OFFCURVE",
"556 422 CURVE",
"545 427 OFFCURVE",
"320 509 OFFCURVE",
"172 369 CURVE SMOOTH"
);
},
{
closed = 1;
nodes = (
"556 422 LINE",
"558 422 LINE"
);
}
);
width = 539;
}
);
note = a;
unicode = 0061;
},
{
glyphname = b;
lastChange = "2018-02-05 08:42:07 +0000";
layers = (
{
layerId = "0B1DFD06-3317-40CA-B510-4969A0718C16";
paths = (
{
closed = 1;
nodes = (
"259 860 LINE",
"258 852 OFFCURVE",
"227 802 OFFCURVE",
"154 799 CURVE",
"144 790 LINE",
"156 791 OFFCURVE",
"167 790 OFFCURVE",
"177 787 CURVE SMOOTH",
"193 784 OFFCURVE",
"207 775 OFFCURVE",
"202 756 CURVE SMOOTH",
"175 628 LINE",
"94 256 LINE SMOOTH",
"77 186 OFFCURVE",
"74 130 OFFCURVE",
"84 86 CURVE SMOOTH",
"89 62 OFFCURVE",
"98 44 OFFCURVE",
"109 30 CURVE",
"121 14 OFFCURVE",
"146 -6 OFFCURVE",
"186 -10 CURVE SMOOTH",
"286 -20 OFFCURVE",
"357 41 OFFCURVE",
"399 91 CURVE SMOOTH",
"428 125 OFFCURVE",
"483 258 OFFCURVE",
"460 356 CURVE",
"452 389 OFFCURVE",
"435 414 OFFCURVE",
"411 432 CURVE SMOOTH",
"389 447 OFFCURVE",
"366 453 OFFCURVE",
"339 451 CURVE",
"269 441 OFFCURVE",
"221 379 OFFCURVE",
"195 319 CURVE SMOOTH",
"179 285 OFFCURVE",
"166 245 OFFCURVE",
"157 201 CURVE",
"169 196 OFFCURVE",
"258 413 OFFCURVE",
"354 413 CURVE SMOOTH",
"367 413 OFFCURVE",
"380 412 OFFCURVE",
"393 403 CURVE",
"407 392 OFFCURVE",
"418 376 OFFCURVE",
"423 354 CURVE SMOOTH",
"441 275 OFFCURVE",
"392 150 OFFCURVE",
"366 120 CURVE SMOOTH",
"305 50 OFFCURVE",
"248 20 OFFCURVE",
"181 29 CURVE",
"162 30 OFFCURVE",
"147 36 OFFCURVE",
"138 50 CURVE",
"124 67 OFFCURVE",
"103 116 OFFCURVE",
"132 240 CURVE SMOOTH",
"213 613 LINE",
"221 644 LINE",
"276 866 LINE"
);
}
);
width = 429;
}
);
note = b;
unicode = 0062;
},
{
glyphname = c;
lastChange = "2018-02-05 08:42:07 +0000";
layers = (
{
layerId = "0B1DFD06-3317-40CA-B510-4969A0718C16";
paths = (
{
closed = 1;
nodes = (
"74 401 OFFCURVE",
"17 246 OFFCURVE",
"37 139 CURVE SMOOTH",
"50 79 OFFCURVE",
"93 21 OFFCURVE",
"152 2 CURVE SMOOTH",
"228 -21 OFFCURVE",
"291 9 OFFCURVE",
"333 47 CURVE SMOOTH",
"358 69 OFFCURVE",
"381 96 OFFCURVE",
"400 127 CURVE",
"374 104 OFFCURVE",
"346 84 OFFCURVE",
"319 67 CURVE SMOOTH",
"271 39 OFFCURVE",
"211 17 OFFCURVE",
"159 37 CURVE SMOOTH",
"116 52 OFFCURVE",
"86 94 OFFCURVE",
"76 139 CURVE SMOOTH",
"59 232 OFFCURVE",
"107 372 OFFCURVE",
"205 408 CURVE SMOOTH",
"245 424 OFFCURVE",
"281 426 OFFCURVE",
"310 412 CURVE SMOOTH",
"343 397 OFFCURVE",
"356 368 OFFCURVE",
"357 367 CURVE",
"363 358 OFFCURVE",
"372 332 OFFCURVE",
"361 318 CURVE SMOOTH",
"338 288 OFFCURVE",
"306 314 OFFCURVE",
"301 323 CURVE",
"293 333 OFFCURVE",
"295 351 OFFCURVE",
"298 359 CURVE SMOOTH",
"303 371 OFFCURVE",
"298 379 OFFCURVE",
"285 386 CURVE SMOOTH",
"275 391 OFFCURVE",
"264 388 OFFCURVE",
"261 378 CURVE",
"258 374 OFFCURVE",
"250 338 OFFCURVE",
"270 306 CURVE",
"291 275 OFFCURVE",
"355 245 OFFCURVE",
"394 292 CURVE",
"420 319 OFFCURVE",
"394 369 OFFCURVE",
"393 376 CURVE SMOOTH",
"392 378 OFFCURVE",
"371 422 OFFCURVE",
"321 446 CURVE",
"278 464 OFFCURVE",
"233 464 OFFCURVE",
"185 444 CURVE SMOOTH"
);
}
);
width = 416;
}
);
note = c;
unicode = 0063;
},
{
glyphname = d;
lastChange = "2018-02-05 08:42:07 +0000";
layers = (
{
layerId = "0B1DFD06-3317-40CA-B510-4969A0718C16";
paths = (
{
closed = 1;
nodes = (
"586 856 LINE",
"588 847 OFFCURVE",
"556 796 OFFCURVE",
"484 790 CURVE",
"476 781 LINE",
"487 782 OFFCURVE",
"498 781 OFFCURVE",
"508 780 CURVE",
"524 776 OFFCURVE",
"539 769 OFFCURVE",
"535 750 CURVE SMOOTH",
"511 635 LINE",
"479 498 LINE SMOOTH",
"459 419 OFFCURVE",
"436 326 OFFCURVE",
"412 255 CURVE SMOOTH",
"392 196 OFFCURVE",
"361 162 OFFCURVE",
"354 154 CURVE SMOOTH",
"313 100 OFFCURVE",
"269 70 OFFCURVE",
"251 60 CURVE SMOOTH",
"225 44 OFFCURVE",
"167 25 OFFCURVE",
"148 35 CURVE",
"97 60 OFFCURVE",
"117 157 OFFCURVE",
"126 186 CURVE SMOOTH",
"137 223 OFFCURVE",
"162 298 OFFCURVE",
"205 341 CURVE SMOOTH",
"266 401 OFFCURVE",
"324 424 OFFCURVE",
"368 434 CURVE SMOOTH",
"394 439 OFFCURVE",
"419 441 OFFCURVE",
"442 438 CURVE",
"413 448 OFFCURVE",
"385 452 OFFCURVE",
"354 451 CURVE SMOOTH",
"302 447 OFFCURVE",
"236 429 OFFCURVE",
"171 364 CURVE SMOOTH",
"123 314 OFFCURVE",
"98 243 OFFCURVE",
"87 202 CURVE SMOOTH",
"61 102 OFFCURVE",
"80 31 OFFCURVE",
"138 1 CURVE SMOOTH",
"183 -22 OFFCURVE",
"263 16 OFFCURVE",
"278 26 CURVE",
"296 37 OFFCURVE",
"344 70 OFFCURVE",
"387 125 CURVE",
"394 136 LINE",
"384 90 OFFCURVE",
"372 60 OFFCURVE",
"379 34 CURVE",
"382 20 OFFCURVE",
"387 15 OFFCURVE",
"392 11 CURVE",
"400 2 OFFCURVE",
"412 -1 OFFCURVE",
"427 0 CURVE SMOOTH",
"486 4 OFFCURVE",
"544 96 OFFCURVE",
"545 99 CURVE",
"537 91 OFFCURVE",
"449 27 OFFCURVE",
"417 40 CURVE",
"411 66 OFFCURVE",
"434 147 OFFCURVE",
"454 233 CURVE SMOOTH",
"473 318 OFFCURVE",
"495 414 OFFCURVE",
"516 490 CURVE SMOOTH",
"527 535 OFFCURVE",
"539 579 OFFCURVE",
"550 622 CURVE",
"554 643 OFFCURVE",
"560 665 OFFCURVE",
"565 690 CURVE SMOOTH",
"574 734 OFFCURVE",
"589 792 OFFCURVE",
"604 862 CURVE"
);
}
);
width = 505;
}
);
note = d;
unicode = 0064;
},
{
glyphname = e;
lastChange = "2018-02-05 08:42:07 +0000";
layers = (
{
layerId = "0B1DFD06-3317-40CA-B510-4969A0718C16";
paths = (
{
closed = 1;
nodes = (
"98 407 OFFCURVE",
"13 321 OFFCURVE",
"26 197 CURVE SMOOTH",
"29 141 OFFCURVE",
"43 101 OFFCURVE",
"80 61 CURVE SMOOTH",
"113 25 OFFCURVE",
"157 0 OFFCURVE",
"207 -6 CURVE SMOOTH",
"279 -16 OFFCURVE",
"343 21 OFFCURVE",
"383 65 CURVE SMOOTH",
"407 90 OFFCURVE",
"428 119 OFFCURVE",
"446 151 CURVE",
"420 125 OFFCURVE",
"392 102 OFFCURVE",
"365 84 CURVE SMOOTH",
"316 50 OFFCURVE",
"257 21 OFFCURVE",
"205 31 CURVE",
"167 40 OFFCURVE",
"131 55 OFFCURVE",
"107 84 CURVE",
"78 114 OFFCURVE",
"66 145 OFFCURVE",
"64 190 CURVE SMOOTH",
"60 300 OFFCURVE",
"112 364 OFFCURVE",
"201 408 CURVE SMOOTH",
"240 428 OFFCURVE",
"321 422 OFFCURVE",
"365 391 CURVE",
"387 377 OFFCURVE",
"395 353 OFFCURVE",
"403 333 CURVE",
"407 322 OFFCURVE",
"409 310 OFFCURVE",
"412 296 CURVE",
"399 267 OFFCURVE",
"327 242 OFFCURVE",
"261 230 CURVE SMOOTH",
"222 221 OFFCURVE",
"179 212 OFFCURVE",
"131 206 CURVE",
"179 200 OFFCURVE",
"224 198 OFFCURVE",
"267 202 CURVE SMOOTH",
"341 208 OFFCURVE",
"418 228 OFFCURVE",
"454 288 CURVE",
"452 305 OFFCURVE",
"448 321 OFFCURVE",
"443 336 CURVE",
"434 362 OFFCURVE",
"419 393 OFFCURVE",
"388 417 CURVE",
"321 463 OFFCURVE",
"229 468 OFFCURVE",
"180 444 CURVE SMOOTH"
);
}
);
width = 473;
}
);
note = e;
unicode = 0065;
},
{
glyphname = f;
lastChange = "2018-02-05 08:42:07 +0000";
layers = (
{
layerId = "0B1DFD06-3317-40CA-B510-4969A0718C16";
paths = (
{
closed = 1;
nodes = (
"328 845 OFFCURVE",
"239 817 OFFCURVE",
"203 660 CURVE SMOOTH",
"163 477 LINE SMOOTH",
"160 457 OFFCURVE",
"157 451 OFFCURVE",
"154 427 CURVE",
"57 428 LINE",
"48 404 LINE",
"148 403 LINE",
"102 196 OFFCURVE",
"37 -81 OFFCURVE",
"-6 -175 CURVE",
"-152 -171 OFFCURVE",
"-254 -238 OFFCURVE",
"-292 -278 CURVE SMOOTH",
"-316 -307 OFFCURVE",
"-324 -362 OFFCURVE",
"-294 -406 CURVE",
"-280 -427 OFFCURVE",
"-253 -451 OFFCURVE",
"-194 -449 CURVE SMOOTH",
"-141 -448 OFFCURVE",
"-93 -419 OFFCURVE",
"-63 -388 CURVE SMOOTH",
"-43 -364 OFFCURVE",
"-20 -319 OFFCURVE",
"0 -280 CURVE SMOOTH",
"10 -256 OFFCURVE",
"19 -231 OFFCURVE",
"30 -205 CURVE",
"55 -203 OFFCURVE",
"86 -207 OFFCURVE",
"111 -211 CURVE SMOOTH",
"125 -213 OFFCURVE",
"141 -216 OFFCURVE",
"156 -220 CURVE",
"143 -213 OFFCURVE",
"129 -207 OFFCURVE",
"116 -202 CURVE SMOOTH",
"92 -193 OFFCURVE",
"64 -185 OFFCURVE",
"40 -181 CURVE",
"83 -71 OFFCURVE",
"149 205 OFFCURVE",
"189 403 CURVE",
"285 407 LINE",
"295 428 LINE",
"195 427 LINE",
"200 443 OFFCURVE",
"199 446 OFFCURVE",
"201 462 CURVE",
"239 644 LINE SMOOTH",
"280 815 OFFCURVE",
"375 801 OFFCURVE",
"375 801 CURVE",
"398 796 OFFCURVE",
"410 791 OFFCURVE",
"420 745 CURVE SMOOTH",
"434 684 OFFCURVE",
"323 671 OFFCURVE",
"330 660 CURVE",
"332 650 OFFCURVE",
"463 656 OFFCURVE",
"459 743 CURVE SMOOTH",
"457 792 OFFCURVE",
"423 830 OFFCURVE",
"373 839 CURVE"
);
},
{
closed = 1;
nodes = (
"-130 -392 OFFCURVE",
"-173 -409 OFFCURVE",
"-204 -411 CURVE SMOOTH",
"-233 -412 OFFCURVE",
"-254 -404 OFFCURVE",
"-263 -391 CURVE",
"-268 -387 OFFCURVE",
"-288 -351 OFFCURVE",
"-257 -306 CURVE",
"-226 -266 OFFCURVE",
"-141 -216 OFFCURVE",
"-18 -206 CURVE",
"-29 -225 OFFCURVE",
"-55 -313 OFFCURVE",
"-103 -363 CURVE SMOOTH"
);
}
);
width = 359;
}
);
note = f;
unicode = 0066;
},
{
glyphname = g;
lastChange = "2018-02-05 08:42:07 +0000";
layers = (
{
layerId = "0B1DFD06-3317-40CA-B510-4969A0718C16";
paths = (
{
closed = 1;
nodes = (
"211 417 OFFCURVE",
"112 356 OFFCURVE",
"51 276 CURVE SMOOTH",
"5 216 OFFCURVE",
"-22 130 OFFCURVE",
"-11 84 CURVE SMOOTH",
"-5 60 OFFCURVE",
"10 37 OFFCURVE",
"33 19 CURVE",
"73 -17 OFFCURVE",
"188 -1 OFFCURVE",
"252 45 CURVE",
"294 79 OFFCURVE",
"327 115 OFFCURVE",
"353 156 CURVE",
"323 30 LINE",
"286 -114 LINE",
"267 -181 LINE",
"182 -171 OFFCURVE",
"91 -173 OFFCURVE",
"64 -177 CURVE SMOOTH",
"25 -183 OFFCURVE",
"-44 -197 OFFCURVE",
"-79 -251 CURVE SMOOTH",
"-99 -285 OFFCURVE",
"-98 -324 OFFCURVE",
"-75 -363 CURVE SMOOTH",
"-52 -399 OFFCURVE",
"-16 -424 OFFCURVE",
"25 -429 CURVE SMOOTH",
"92 -439 OFFCURVE",
"164 -408 OFFCURVE",
"205 -378 CURVE",
"266 -327 OFFCURVE",
"292 -257 OFFCURVE",
"304 -208 CURVE",
"323 -207 OFFCURVE",
"354 -217 OFFCURVE",
"379 -227 CURVE",
"424 -247 LINE",
"414 -238 OFFCURVE",
"404 -231 OFFCURVE",
"393 -223 CURVE SMOOTH",
"374 -210 OFFCURVE",
"345 -197 OFFCURVE",
"309 -188 CURVE",
"325 -131 LINE",
"361 14 LINE SMOOTH",
"376 79 OFFCURVE",
"402 171 OFFCURVE",
"423 250 CURVE SMOOTH",
"461 389 LINE",
"415 376 LINE",
"372 277 OFFCURVE",
"317 147 OFFCURVE",
"225 77 CURVE SMOOTH",
"165 35 OFFCURVE",
"75 30 OFFCURVE",
"54 46 CURVE SMOOTH",
"40 57 OFFCURVE",
"31 70 OFFCURVE",
"28 85 CURVE SMOOTH",
"20 120 OFFCURVE",
"46 195 OFFCURVE",
"85 248 CURVE SMOOTH",
"138 322 OFFCURVE",
"236 371 OFFCURVE",
"299 401 CURVE SMOOTH",
"340 419 OFFCURVE",
"401 427 OFFCURVE",
"450 431 CURVE SMOOTH",
"478 433 OFFCURVE",
"507 434 OFFCURVE",
"538 433 CURVE",
"510 441 OFFCURVE",
"483 446 OFFCURVE",
"453 449 CURVE SMOOTH",
"403 454 OFFCURVE",
"339 456 OFFCURVE",
"279 437 CURVE SMOOTH"
);
},
{
closed = 1;
nodes = (
"-4 -387 OFFCURVE",
"-27 -373 OFFCURVE",
"-42 -349 CURVE SMOOTH",
"-58 -324 OFFCURVE",
"-58 -300 OFFCURVE",
"-44 -276 CURVE SMOOTH",
"-18 -232 OFFCURVE",
"47 -221 OFFCURVE",
"79 -215 CURVE",
"108 -211 OFFCURVE",
"193 -200 OFFCURVE",
"265 -206 CURVE",
"246 -270 OFFCURVE",
"178 -343 OFFCURVE",
"175 -347 CURVE",
"140 -374 OFFCURVE",
"75 -397 OFFCURVE",
"21 -391 CURVE"
);
}
);
width = 544;
}
);
note = g;
unicode = 0067;
},
{
glyphname = h;
lastChange = "2018-02-05 08:42:07 +0000";
layers = (
{
layerId = "0B1DFD06-3317-40CA-B510-4969A0718C16";
paths = (
{
closed = 1;
nodes = (
"476 439 OFFCURVE",
"458 466 OFFCURVE",
"404 452 CURVE",
"393 449 OFFCURVE",
"383 447 OFFCURVE",
"378 444 CURVE",
"365 441 LINE",
"366 439 OFFCURVE",
"266 407 OFFCURVE",
"195 324 CURVE",
"258 610 LINE",
"265 641 LINE",
"321 864 LINE",
"303 857 LINE",
"301 850 OFFCURVE",
"272 800 OFFCURVE",
"198 796 CURVE",
"190 787 LINE",
"200 789 OFFCURVE",
"213 787 OFFCURVE",
"221 785 CURVE SMOOTH",
"237 781 OFFCURVE",
"250 773 OFFCURVE",
"246 754 CURVE SMOOTH",
"220 625 LINE",
"150 277 LINE",
"151 276 OFFCURVE",
"137 202 OFFCURVE",
"123 135 CURVE SMOOTH",
"117 94 OFFCURVE",
"107 47 OFFCURVE",
"98 -4 CURVE",
"141 16 LINE",
"190 292 LINE",
"266 369 OFFCURVE",
"365 404 OFFCURVE",
"383 411 CURVE",
"393 413 LINE",
"400 414 OFFCURVE",
"406 414 OFFCURVE",
"414 418 CURVE",
"433 424 OFFCURVE",
"445 411 OFFCURVE",
"443 392 CURVE",
"433 327 OFFCURVE",
"385 115 OFFCURVE",
"383 100 CURVE",
"378 76 OFFCURVE",
"375 45 OFFCURVE",
"376 41 CURVE SMOOTH",
"379 26 OFFCURVE",
"387 15 OFFCURVE",
"400 6 CURVE SMOOTH",
"416 -5 OFFCURVE",
"447 -5 OFFCURVE",
"470 9 CURVE",
"492 19 OFFCURVE",
"507 41 OFFCURVE",
"518 62 CURVE",
"537 102 LINE",
"527 91 OFFCURVE",
"518 80 OFFCURVE",
"507 71 CURVE",
"490 55 OFFCURVE",
"468 37 OFFCURVE",
"449 34 CURVE",
"435 30 OFFCURVE",
"425 27 OFFCURVE",
"417 36 CURVE",
"412 40 OFFCURVE",
"413 55 OFFCURVE",
"417 84 CURVE",
"423 105 OFFCURVE",
"483 348 OFFCURVE",
"476 422 CURVE"
);
}
);
width = 478;
}
);
note = h;
unicode = 0068;
},
{
glyphname = i;
lastChange = "2018-02-05 08:42:07 +0000";
layers = (
{
layerId = "0B1DFD06-3317-40CA-B510-4969A0718C16";
paths = (
{
closed = 1;
nodes = (
"206 456 OFFCURVE",
"196 453 OFFCURVE",
"192 449 CURVE",
"166 433 OFFCURVE",
"151 422 OFFCURVE",
"136 407 CURVE",
"118 393 OFFCURVE",
"106 377 OFFCURVE",
"91 358 CURVE",
"99 362 OFFCURVE",
"111 368 OFFCURVE",
"127 378 CURVE SMOOTH",
"146 389 OFFCURVE",
"169 399 OFFCURVE",
"178 399 CURVE SMOOTH",
"184 399 OFFCURVE",
"185 396 OFFCURVE",
"184 387 CURVE",
"181 361 OFFCURVE",
"100 26 OFFCURVE",
"101 22 CURVE",
"100 16 OFFCURVE",
"100 11 OFFCURVE",
"101 9 CURVE SMOOTH",
"102 2 OFFCURVE",
"106 -1 OFFCURVE",
"113 -1 CURVE SMOOTH",
"123 -1 OFFCURVE",
"139 5 OFFCURVE",
"187 29 CURVE SMOOTH",
"228 50 OFFCURVE",
"249 72 OFFCURVE",
"261 79 CURVE",
"179 52 LINE",
"154 46 OFFCURVE",
"154 62 OFFCURVE",
"151 59 CURVE",
"164 116 OFFCURVE",
"224 353 OFFCURVE",
"227 407 CURVE",
"228 417 OFFCURVE",
"230 456 OFFCURVE",
"213 456 CURVE SMOOTH"
);
},
{
closed = 1;
nodes = (
"246 678 OFFCURVE",
"235 683 OFFCURVE",
"224 683 CURVE SMOOTH",
"212 683 OFFCURVE",
"202 679 OFFCURVE",
"194 671 CURVE",
"186 664 OFFCURVE",
"184 654 OFFCURVE",
"186 643 CURVE SMOOTH",
"189 630 OFFCURVE",
"196 619 OFFCURVE",
"205 609 CURVE SMOOTH",
"213 600 OFFCURVE",
"224 595 OFFCURVE",
"237 595 CURVE SMOOTH",
"251 595 OFFCURVE",
"261 599 OFFCURVE",
"268 607 CURVE SMOOTH",
"276 615 OFFCURVE",
"279 624 OFFCURVE",
"276 635 CURVE SMOOTH",
"273 648 OFFCURVE",
"268 659 OFFCURVE",
"256 669 CURVE SMOOTH"
);
},
{
closed = 1;
nodes = (
"263 80 OFFCURVE",
"262 79 OFFCURVE",
"261 79 CURVE",
"262 79 OFFCURVE",
"263 80 OFFCURVE",
"265 80 CURVE"
);
}
);
width = 296;
}
);
note = i;
unicode = 0069;
},
{
glyphname = j;
lastChange = "2018-02-05 08:42:07 +0000";
layers = (
{
layerId = "0B1DFD06-3317-40CA-B510-4969A0718C16";
paths = (
{
closed = 1;
nodes = (
"118 458 OFFCURVE",
"108 456 OFFCURVE",
"104 452 CURVE",
"78 433 OFFCURVE",
"65 422 OFFCURVE",
"48 408 CURVE",
"32 393 OFFCURVE",
"19 377 OFFCURVE",
"8 357 CURVE",
"45 377 LINE",
"61 391 OFFCURVE",
"85 399 OFFCURVE",
"94 399 CURVE SMOOTH",
"100 399 OFFCURVE",
"103 394 OFFCURVE",
"102 386 CURVE",
"101 371 OFFCURVE",
"23 -91 OFFCURVE",
"3 -157 CURVE",
"-146 -154 OFFCURVE",
"-239 -221 OFFCURVE",
"-273 -261 CURVE",
"-295 -290 OFFCURVE",
"-302 -344 OFFCURVE",
"-268 -388 CURVE SMOOTH",
"-253 -408 OFFCURVE",
"-222 -434 OFFCURVE",
"-165 -431 CURVE",
"-111 -431 OFFCURVE",
"-64 -402 OFFCURVE",
"-38 -371 CURVE SMOOTH",
"-18 -347 OFFCURVE",
"2 -303 OFFCURVE",
"16 -262 CURVE SMOOTH",
"25 -238 OFFCURVE",
"33 -213 OFFCURVE",
"40 -186 CURVE",
"63 -185 OFFCURVE",
"94 -187 OFFCURVE",
"119 -191 CURVE SMOOTH",
"132 -193 OFFCURVE",
"148 -196 OFFCURVE",
"163 -200 CURVE",
"150 -193 OFFCURVE",
"136 -188 OFFCURVE",
"123 -183 CURVE SMOOTH",
"100 -175 OFFCURVE",
"70 -166 OFFCURVE",
"48 -162 CURVE",
"64 -102 OFFCURVE",
"137 373 OFFCURVE",
"140 404 CURVE",
"140 417 OFFCURVE",
"143 458 OFFCURVE",
"127 458 CURVE SMOOTH"
);
},
{
closed = 1;
nodes = (
"-104 -373 OFFCURVE",
"-145 -392 OFFCURVE",
"-179 -392 CURVE",
"-207 -393 OFFCURVE",
"-227 -387 OFFCURVE",
"-237 -373 CURVE",
"-239 -367 OFFCURVE",
"-268 -336 OFFCURVE",
"-239 -288 CURVE SMOOTH",
"-213 -247 OFFCURVE",
"-130 -198 OFFCURVE",
"-8 -188 CURVE",
"-17 -207 OFFCURVE",
"-36 -296 OFFCURVE",
"-81 -344 CURVE"
);
},
{
closed = 1;
nodes = (
"139 691 OFFCURVE",
"128 696 OFFCURVE",
"117 696 CURVE SMOOTH",
"106 696 OFFCURVE",
"96 693 OFFCURVE",
"86 684 CURVE",
"79 676 OFFCURVE",
"78 666 OFFCURVE",
"81 654 CURVE",
"85 639 OFFCURVE",
"94 628 OFFCURVE",
"105 619 CURVE",
"116 609 OFFCURVE",
"127 604 OFFCURVE",
"139 604 CURVE SMOOTH",
"153 604 OFFCURVE",
"163 608 OFFCURVE",
"171 615 CURVE",
"176 625 OFFCURVE",
"177 636 OFFCURVE",
"174 648 CURVE",
"169 663 OFFCURVE",
"162 674 OFFCURVE",
"151 681 CURVE"
);
}
);
width = 247;
}
);
note = j;
unicode = 006A;
},
{
glyphname = k;
lastChange = "2018-02-05 08:42:07 +0000";
layers = (
{
layerId = "0B1DFD06-3317-40CA-B510-4969A0718C16";
paths = (
{
closed = 1;
nodes = (
"487 590 OFFCURVE",
"407 540 OFFCURVE",
"365 487 CURVE SMOOTH",
"325 432 OFFCURVE",
"289 368 OFFCURVE",
"252 310 CURVE SMOOTH",
"155 165 LINE",
"159 188 OFFCURVE",
"164 211 OFFCURVE",
"167 235 CURVE",
"248 608 LINE",
"255 639 LINE",
"311 861 LINE",
"294 855 LINE",
"293 845 OFFCURVE",
"262 797 OFFCURVE",
"189 794 CURVE",
"180 784 LINE",
"191 785 OFFCURVE",
"203 784 OFFCURVE",
"212 781 CURVE SMOOTH",
"227 778 OFFCURVE",
"242 770 OFFCURVE",
"237 751 CURVE SMOOTH",
"210 623 LINE",
"128 251 LINE",
"81 -6 LINE",
"131 21 LINE",
"154 125 LINE",
"223 208 LINE SMOOTH",
"257 251 OFFCURVE",
"293 295 OFFCURVE",
"293 295 CURVE",
"296 221 OFFCURVE",
"366 104 OFFCURVE",
"429 4 CURVE SMOOTH",
"466 -55 OFFCURVE",
"508 -115 OFFCURVE",
"557 -178 CURVE",
"517 -112 OFFCURVE",
"479 -47 OFFCURVE",
"446 16 CURVE SMOOTH",
"387 126 OFFCURVE",
"328 255 OFFCURVE",
"318 342 CURVE",
"343 383 OFFCURVE",
"372 423 OFFCURVE",
"400 459 CURVE SMOOTH",
"474 560 OFFCURVE",
"539 537 OFFCURVE",
"548 533 CURVE",
"574 519 OFFCURVE",
"576 475 OFFCURVE",
"541 456 CURVE",
"533 453 OFFCURVE",
"589 456 OFFCURVE",
"600 475 CURVE SMOOTH",
"616 502 OFFCURVE",
"605 539 OFFCURVE",
"551 563 CURVE SMOOTH"
);
}
);
width = 502;
}
);
note = k;
unicode = 006B;
},
{
glyphname = l;
lastChange = "2018-02-05 08:42:07 +0000";
layers = (
{
layerId = "0B1DFD06-3317-40CA-B510-4969A0718C16";
paths = (
{
closed = 1;
nodes = (
"262 626 LINE",
"269 658 LINE",
"322 880 LINE",
"307 874 LINE",
"305 864 OFFCURVE",
"274 816 OFFCURVE",
"201 812 CURVE",
"192 802 LINE",
"203 804 OFFCURVE",
"214 802 OFFCURVE",
"224 800 CURVE SMOOTH",
"240 796 OFFCURVE",
"253 789 OFFCURVE",
"250 770 CURVE SMOOTH",
"222 640 LINE",
"140 270 LINE SMOOTH",
"132 236 OFFCURVE",
"125 205 OFFCURVE",
"121 175 CURVE SMOOTH",
"113 124 OFFCURVE",
"106 65 OFFCURVE",
"122 35 CURVE",
"127 22 OFFCURVE",
"132 15 OFFCURVE",
"134 11 CURVE",
"142 1 OFFCURVE",
"153 -2 OFFCURVE",
"169 -1 CURVE SMOOTH",
"228 2 OFFCURVE",
"278 85 OFFCURVE",
"281 89 CURVE",
"274 82 OFFCURVE",
"192 22 OFFCURVE",
"159 39 CURVE",
"141 91 OFFCURVE",
"168 176 OFFCURVE",
"179 253 CURVE"
);
}
);
width = 296;
}
);
note = l;
unicode = 006C;
},
{
glyphname = m;
lastChange = "2018-02-05 08:42:07 +0000";
layers = (
{
layerId = "0B1DFD06-3317-40CA-B510-4969A0718C16";
paths = (
{
closed = 1;
nodes = (
"708 426 OFFCURVE",
"677 456 OFFCURVE",
"668 456 CURVE",
"615 466 OFFCURVE",
"487 379 OFFCURVE",
"437 292 CURVE",
"442 324 OFFCURVE",
"461 398 OFFCURVE",
"461 414 CURVE",
"458 421 OFFCURVE",
"454 426 OFFCURVE",
"451 429 CURVE",
"445 438 OFFCURVE",
"440 444 OFFCURVE",
"436 448 CURVE",
"426 454 OFFCURVE",
"411 464 OFFCURVE",
"389 456 CURVE SMOOTH",
"373 449 OFFCURVE",
"246 403 OFFCURVE",
"187 317 CURVE",
"204 371 LINE",
"208 392 OFFCURVE",
"206 418 OFFCURVE",
"198 433 CURVE",
"191 443 OFFCURVE",
"184 452 OFFCURVE",
"174 456 CURVE",
"82 477 OFFCURVE",
"34 358 OFFCURVE",
"34 357 CURVE",
"35 356 OFFCURVE",
"108 432 OFFCURVE",
"164 418 CURVE",
"167 414 OFFCURVE",
"168 411 OFFCURVE",
"169 407 CURVE SMOOTH",
"169 403 OFFCURVE",
"167 394 OFFCURVE",
"164 386 CURVE SMOOTH",
"160 369 LINE",
"59 -4 LINE",
"109 15 LINE",
"182 288 LINE",
"274 372 OFFCURVE",
"398 422 OFFCURVE",
"419 418 CURVE",
"384 261 LINE SMOOTH",
"365 173 OFFCURVE",
"340 67 OFFCURVE",
"323 -2 CURVE",
"321 -4 OFFCURVE",
"334 0 OFFCURVE",
"347 4 CURVE",
"353 6 OFFCURVE",
"361 9 OFFCURVE",
"369 12 CURVE",
"429 258 LINE",
"516 341 OFFCURVE",
"655 424 OFFCURVE",
"668 413 CURVE",
"659 362 LINE",
"650 314 LINE SMOOTH",
"596 27 OFFCURVE",
"596 35 OFFCURVE",
"598 29 CURVE SMOOTH",
"600 19 OFFCURVE",
"608 7 OFFCURVE",
"620 4 CURVE",
"699 -10 OFFCURVE",
"758 82 OFFCURVE",
"763 90 CURVE",
"755 82 OFFCURVE",
"710 59 OFFCURVE",
"667 39 CURVE",
"647 26 OFFCURVE",
"639 39 OFFCURVE",
"638 37 CURVE",
"645 77 OFFCURVE",
"675 221 OFFCURVE",
"689 300 CURVE SMOOTH",
"693 321 OFFCURVE",
"697 341 OFFCURVE",
"700 357 CURVE",
"704 386 OFFCURVE",
"710 416 OFFCURVE",
"709 422 CURVE SMOOTH"
);
}
);
width = 745;
}
);
note = m;
unicode = 006D;
},
{
glyphname = n;
lastChange = "2018-02-05 08:42:07 +0000";
layers = (
{
layerId = "0B1DFD06-3317-40CA-B510-4969A0718C16";
paths = (
{
closed = 1;
nodes = (
"381 61 LINE",
"420 232 LINE SMOOTH",
"440 318 OFFCURVE",
"458 408 OFFCURVE",
"461 414 CURVE",
"451 429 LINE",
"445 438 OFFCURVE",
"439 444 OFFCURVE",
"434 449 CURVE",
"426 456 OFFCURVE",
"411 466 OFFCURVE",
"388 456 CURVE SMOOTH",
"373 449 OFFCURVE",
"249 404 OFFCURVE",
"187 317 CURVE",
"204 372 LINE",
"208 392 OFFCURVE",
"206 419 OFFCURVE",
"197 434 CURVE",
"191 444 OFFCURVE",
"184 452 OFFCURVE",
"173 456 CURVE",
"82 478 OFFCURVE",
"34 357 OFFCURVE",
"34 358 CURVE",
"35 358 OFFCURVE",
"108 432 OFFCURVE",
"164 418 CURVE",
"165 414 OFFCURVE",
"168 411 OFFCURVE",
"169 407 CURVE SMOOTH",
"170 403 OFFCURVE",
"166 396 OFFCURVE",
"164 387 CURVE",
"161 382 OFFCURVE",
"161 377 OFFCURVE",
"159 371 CURVE",
"60 -4 LINE",
"109 16 LINE",
"181 290 LINE",
"276 374 OFFCURVE",
"397 419 OFFCURVE",
"418 419 CURVE",
"374 228 LINE SMOOTH",
"353 132 OFFCURVE",
"332 37 OFFCURVE",
"332 36 CURVE SMOOTH",
"335 26 OFFCURVE",
"345 4 OFFCURVE",
"357 2 CURVE",
"442 -14 OFFCURVE",
"501 91 OFFCURVE",
"501 90 CURVE",
"499 84 OFFCURVE",
"452 57 OFFCURVE",
"403 37 CURVE",
"383 24 OFFCURVE",
"376 36 OFFCURVE",
"375 36 CURVE"
);
}
);
width = 502;
}
);
note = n;
unicode = 006E;
},
{
glyphname = o;
lastChange = "2018-02-05 08:42:07 +0000";
layers = (
{
layerId = "0B1DFD06-3317-40CA-B510-4969A0718C16";
paths = (
{
closed = 1;
nodes = (
"214 407 OFFCURVE",
"182 347 OFFCURVE",
"195 277 CURVE SMOOTH",
"216 176 OFFCURVE",
"295 173 OFFCURVE",
"293 175 CURVE",
"293 177 OFFCURVE",
"252 203 OFFCURVE",
"235 277 CURVE SMOOTH",
"222 331 OFFCURVE",
"252 381 OFFCURVE",
"274 397 CURVE SMOOTH",
"295 413 OFFCURVE",
"317 418 OFFCURVE",
"339 412 CURVE",
"359 406 OFFCURVE",
"374 392 OFFCURVE",
"388 371 CURVE SMOOTH",
"426 310 OFFCURVE",
"423 238 OFFCURVE",
"413 201 CURVE",
"409 175 OFFCURVE",
"374 92 OFFCURVE",
"328 62 CURVE SMOOTH",
"288 36 OFFCURVE",
"204 12 OFFCURVE",
"138 55 CURVE",
"116 67 OFFCURVE",
"56 131 OFFCURVE",
"70 226 CURVE SMOOTH",
"90 356 OFFCURVE",
"193 426 OFFCURVE",
"194 427 CURVE SMOOTH",
"195 428 OFFCURVE",
"54 387 OFFCURVE",
"31 238 CURVE SMOOTH",
"12 119 OFFCURVE",
"90 44 OFFCURVE",
"121 24 CURVE SMOOTH",
"200 -27 OFFCURVE",
"296 -7 OFFCURVE",
"355 29 CURVE SMOOTH",
"414 69 OFFCURVE",
"448 157 OFFCURVE",
"455 186 CURVE",
"463 241 OFFCURVE",
"466 312 OFFCURVE",
"422 384 CURVE SMOOTH",
"402 418 OFFCURVE",
"376 439 OFFCURVE",
"344 448 CURVE SMOOTH",
"310 458 OFFCURVE",
"276 452 OFFCURVE",
"245 431 CURVE SMOOTH"
);
}
);
width = 478;
}
);
note = o;
unicode = 006F;
},
{
glyphname = p;
lastChange = "2018-02-05 08:42:07 +0000";
layers = (
{
layerId = "0B1DFD06-3317-40CA-B510-4969A0718C16";
paths = (
{
closed = 1;
nodes = (
"441 473 OFFCURVE",
"382 464 OFFCURVE",
"362 458 CURVE",
"291 442 OFFCURVE",
"257 402 OFFCURVE",
"224 358 CURVE SMOOTH",
"215 347 OFFCURVE",
"194 314 OFFCURVE",
"172 283 CURVE",
"178 312 OFFCURVE",
"183 339 OFFCURVE",
"186 366 CURVE SMOOTH",
"192 426 LINE",
"186 444 OFFCURVE",
"176 452 OFFCURVE",
"168 456 CURVE SMOOTH",
"153 464 OFFCURVE",
"141 461 OFFCURVE",
"123 457 CURVE SMOOTH",
"73 448 OFFCURVE",
"32 366 OFFCURVE",
"32 366 CURVE SMOOTH",
"32 366 OFFCURVE",
"99 422 OFFCURVE",
"144 422 CURVE SMOOTH",
"148 422 LINE SMOOTH",
"151 422 OFFCURVE",
"153 423 OFFCURVE",
"154 423 CURVE SMOOTH",
"155 423 LINE",
"146 379 LINE",
"135 297 OFFCURVE",
"110 158 OFFCURVE",
"83 32 CURVE",
"58 32 OFFCURVE",
"-16 41 OFFCURVE",
"-29 45 CURVE",
"-19 39 OFFCURVE",
"24 12 OFFCURVE",
"76 4 CURVE",
"75 6 OFFCURVE",
"-8 -398 OFFCURVE",
"-12 -417 CURVE",
"-9 -413 OFFCURVE",
"45 -398 OFFCURVE",
"43 -401 CURVE",
"44 -399 OFFCURVE",
"122 -2 OFFCURVE",
"118 5 CURVE",
"186 9 OFFCURVE",
"226 20 OFFCURVE",
"253 25 CURVE",
"332 45 OFFCURVE",
"451 126 OFFCURVE",
"491 223 CURVE SMOOTH",
"550 371 OFFCURVE",
"510 409 OFFCURVE",
"470 447 CURVE SMOOTH"
);
},
{
closed = 1;
nodes = (
"421 177 OFFCURVE",
"322 91 OFFCURVE",
"231 61 CURVE SMOOTH",
"211 55 OFFCURVE",
"177 40 OFFCURVE",
"124 36 CURVE",
"133 80 OFFCURVE",
"145 130 OFFCURVE",
"152 171 CURVE",
"159 237 OFFCURVE",
"236 302 OFFCURVE",
"257 331 CURVE SMOOTH",
"287 369 OFFCURVE",
"326 398 OFFCURVE",
"383 423 CURVE",
"395 431 OFFCURVE",
"438 429 OFFCURVE",
"446 423 CURVE",
"468 402 OFFCURVE",
"495 359 OFFCURVE",
"445 241 CURVE SMOOTH"
);
},
{
closed = 1;
nodes = (
"-30 45 OFFCURVE",
"-30 45 OFFCURVE",
"-29 45 CURVE",
"-30 46 OFFCURVE",
"-31 46 OFFCURVE",
"-31 46 CURVE"
);
}
);
width = 583;
}
);
note = p;
unicode = 0070;
},
{
glyphname = q;
lastChange = "2018-02-05 08:42:07 +0000";
layers = (
{
layerId = "0B1DFD06-3317-40CA-B510-4969A0718C16";
paths = (
{
closed = 1;
nodes = (
"255 397 OFFCURVE",
"340 421 OFFCURVE",
"408 434 CURVE SMOOTH",
"447 442 OFFCURVE",
"488 447 OFFCURVE",
"529 448 CURVE",
"528 452 OFFCURVE",
"340 489 OFFCURVE",
"162 387 CURVE SMOOTH",
"65 331 OFFCURVE",
"-37 231 OFFCURVE",
"-16 111 CURVE SMOOTH",
"-7 57 OFFCURVE",
"37 14 OFFCURVE",
"105 0 CURVE SMOOTH",
"170 -12 OFFCURVE",
"255 41 OFFCURVE",
"296 77 CURVE SMOOTH",
"330 107 LINE",
"364 139 LINE",
"361 124 OFFCURVE",
"348 79 OFFCURVE",
"334 35 CURVE SMOOTH",
"310 -47 LINE SMOOTH",
"221 -305 OFFCURVE",
"206 -419 OFFCURVE",
"203 -423 CURVE",
"206 -421 OFFCURVE",
"216 -418 OFFCURVE",
"231 -416 CURVE",
"256 -411 LINE",
"252 -407 OFFCURVE",
"300 -208 OFFCURVE",
"338 -96 CURVE",
"357 -52 OFFCURVE",
"399 -10 OFFCURVE",
"440 24 CURVE SMOOTH",
"463 44 OFFCURVE",
"489 62 OFFCURVE",
"516 80 CURVE",
"500 80 OFFCURVE",
"420 44 OFFCURVE",
"366 -4 CURVE",
"460 366 LINE",
"417 362 LINE",
"397 287 LINE SMOOTH",
"386 248 OFFCURVE",
"374 208 OFFCURVE",
"367 198 CURVE SMOOTH",
"330 137 OFFCURVE",
"273 105 OFFCURVE",
"277 107 CURVE",
"241 77 OFFCURVE",
"151 34 OFFCURVE",
"98 47 CURVE SMOOTH",
"61 56 OFFCURVE",
"30 85 OFFCURVE",
"28 116 CURVE SMOOTH",
"20 222 OFFCURVE",
"146 326 OFFCURVE",
"188 353 CURVE SMOOTH"
);
}
);
width = 544;
}
);
note = q;
unicode = 0071;
},
{
glyphname = r;
lastChange = "2018-02-05 08:42:07 +0000";
layers = (
{
layerId = "0B1DFD06-3317-40CA-B510-4969A0718C16";
paths = (
{
closed = 1;
nodes = (
"440 434 OFFCURVE",
"398 441 OFFCURVE",
"375 437 CURVE SMOOTH",
"314 428 OFFCURVE",
"266 391 OFFCURVE",
"231 351 CURVE",
"243 391 OFFCURVE",
"247 416 OFFCURVE",
"239 432 CURVE",
"220 449 LINE",
"199 458 OFFCURVE",
"165 452 OFFCURVE",
"135 428 CURVE",
"119 414 OFFCURVE",
"101 398 OFFCURVE",
"88 382 CURVE",
"80 373 OFFCURVE",
"73 363 OFFCURVE",
"66 353 CURVE",
"66 352 OFFCURVE",
"174 431 OFFCURVE",
"203 412 CURVE",
"203 388 OFFCURVE",
"184 334 OFFCURVE",
"175 314 CURVE",
"135 158 LINE",
"89 -7 LINE",
"111 0 LINE",
"116 1 OFFCURVE",
"121 5 OFFCURVE",
"125 6 CURVE SMOOTH",
"131 9 LINE",
"183 197 LINE SMOOTH",
"187 213 OFFCURVE",
"191 230 OFFCURVE",
"197 245 CURVE SMOOTH",
"206 271 OFFCURVE",
"219 302 OFFCURVE",
"238 322 CURVE SMOOTH",
"262 348 OFFCURVE",
"330 394 OFFCURVE",
"388 398 CURVE SMOOTH",
"411 399 OFFCURVE",
"425 393 OFFCURVE",
"431 378 CURVE",
"448 342 OFFCURVE",
"413 337 OFFCURVE",
"412 336 CURVE",
"412 336 OFFCURVE",
"443 313 OFFCURVE",
"464 334 CURVE",
"476 343 OFFCURVE",
"474 373 OFFCURVE",
"466 389 CURVE SMOOTH"
);
}
);
width = 439;
}
);
note = r;
unicode = 0072;
},
{
glyphname = s;
lastChange = "2018-02-05 08:42:07 +0000";
layers = (
{
layerId = "0B1DFD06-3317-40CA-B510-4969A0718C16";
paths = (
{
closed = 1;
nodes = (
"395 147 OFFCURVE",
"395 120 OFFCURVE",
"386 96 CURVE SMOOTH",
"373 65 OFFCURVE",
"342 41 OFFCURVE",
"305 35 CURVE SMOOTH",
"251 25 OFFCURVE",
"177 19 OFFCURVE",
"117 60 CURVE SMOOTH",
"100 71 OFFCURVE",
"89 82 OFFCURVE",
"85 96 CURVE",
"82 105 OFFCURVE",
"82 114 OFFCURVE",
"87 121 CURVE SMOOTH",
"94 132 OFFCURVE",
"128 139 OFFCURVE",
"148 130 CURVE",
"200 111 OFFCURVE",
"232 65 OFFCURVE",
"233 65 CURVE",
"244 106 OFFCURVE",
"194 149 OFFCURVE",
"162 162 CURVE",
"130 172 OFFCURVE",
"72 172 OFFCURVE",
"53 145 CURVE",
"43 129 OFFCURVE",
"42 111 OFFCURVE",
"50 92 CURVE SMOOTH",
"59 69 OFFCURVE",
"76 46 OFFCURVE",
"100 31 CURVE SMOOTH",
"174 -17 OFFCURVE",
"261 -15 OFFCURVE",
"321 -1 CURVE",
"367 7 OFFCURVE",
"405 36 OFFCURVE",
"420 76 CURVE SMOOTH",
"433 110 OFFCURVE",
"435 149 OFFCURVE",
"414 185 CURVE",
"363 275 OFFCURVE",
"239 258 OFFCURVE",
"220 255 CURVE",
"232 255 OFFCURVE",
"343 248 OFFCURVE",
"379 176 CURVE SMOOTH"
);
},
{
closed = 1;
nodes = (
"237 462 OFFCURVE",
"174 444 OFFCURVE",
"137 393 CURVE SMOOTH",
"107 347 OFFCURVE",
"110 281 OFFCURVE",
"155 230 CURVE",
"190 186 OFFCURVE",
"230 176 OFFCURVE",
"260 175 CURVE SMOOTH",
"278 173 OFFCURVE",
"295 177 OFFCURVE",
"312 183 CURVE",
"314 182 OFFCURVE",
"220 197 OFFCURVE",
"182 247 CURVE SMOOTH",
"159 277 OFFCURVE",
"141 327 OFFCURVE",
"171 368 CURVE SMOOTH",
"199 409 OFFCURVE",
"248 422 OFFCURVE",
"305 408 CURVE SMOOTH",
"385 389 OFFCURVE",
"441 287 OFFCURVE",
"441 286 CURVE",
"437 310 OFFCURVE",
"431 331 OFFCURVE",
"421 352 CURVE SMOOTH",
"403 387 OFFCURVE",
"370 427 OFFCURVE",
"308 443 CURVE SMOOTH"
);
}
);
width = 453;
}
);
note = s;
unicode = 0073;
},
{
glyphname = t;
lastChange = "2018-02-05 08:42:07 +0000";
layers = (
{
layerId = "0B1DFD06-3317-40CA-B510-4969A0718C16";
paths = (
{
closed = 1;
nodes = (
"326 733 LINE",
"315 731 OFFCURVE",
"305 729 OFFCURVE",
"305 730 CURVE",
"305 730 OFFCURVE",
"265 608 OFFCURVE",
"228 467 CURVE",
"177 467 LINE SMOOTH",
"162 467 OFFCURVE",
"144 467 OFFCURVE",
"126 468 CURVE",
"117 446 LINE",
"222 444 LINE",
"202 379 OFFCURVE",
"125 107 OFFCURVE",
"116 55 CURVE SMOOTH",
"111 26 OFFCURVE",
"123 5 OFFCURVE",
"134 0 CURVE",
"187 -24 OFFCURVE",
"251 86 OFFCURVE",
"263 102 CURVE",
"245 89 OFFCURVE",
"178 27 OFFCURVE",
"152 35 CURVE",
"150 45 OFFCURVE",
"181 146 OFFCURVE",
"208 246 CURVE SMOOTH",
"224 305 OFFCURVE",
"242 371 OFFCURVE",
"264 444 CURVE",
"355 444 LINE",
"365 467 LINE",
"270 466 LINE",
"272 466 OFFCURVE",
"348 739 OFFCURVE",
"348 736 CURVE"
);
},
{
closed = 1;
nodes = (
"263 102 LINE",
"266 106 LINE"
);
}
);
width = 334;
}
);
note = t;
unicode = 0074;
},
{
glyphname = u;
lastChange = "2018-02-05 08:42:07 +0000";
layers = (
{
layerId = "0B1DFD06-3317-40CA-B510-4969A0718C16";
paths = (
{
closed = 1;
nodes = (
"481 230 LINE",
"509 338 LINE SMOOTH",
"524 392 OFFCURVE",
"536 449 OFFCURVE",
"536 452 CURVE",
"528 448 LINE",
"524 444 OFFCURVE",
"517 446 OFFCURVE",
"512 442 CURVE",
"490 431 LINE",
"479 371 OFFCURVE",
"465 321 OFFCURVE",
"445 280 CURVE SMOOTH",
"384 158 OFFCURVE",
"246 84 OFFCURVE",
"226 70 CURVE SMOOTH",
"192 50 OFFCURVE",
"134 29 OFFCURVE",
"122 39 CURVE",
"120 52 OFFCURVE",
"129 79 OFFCURVE",
"132 89 CURVE",
"164 183 LINE",
"202 287 LINE",
"216 331 OFFCURVE",
"237 377 OFFCURVE",
"231 421 CURVE",
"230 431 OFFCURVE",
"204 453 OFFCURVE",
"195 453 CURVE SMOOTH",
"157 453 OFFCURVE",
"127 423 OFFCURVE",
"106 393 CURVE SMOOTH",
"94 376 OFFCURVE",
"84 356 OFFCURVE",
"75 333 CURVE",
"74 334 OFFCURVE",
"159 438 OFFCURVE",
"192 411 CURVE",
"193 409 LINE",
"190 381 OFFCURVE",
"177 351 OFFCURVE",
"165 310 CURVE",
"126 203 LINE",
"94 106 LINE SMOOTH",
"85 77 OFFCURVE",
"79 55 OFFCURVE",
"84 36 CURVE SMOOTH",
"86 27 OFFCURVE",
"88 21 OFFCURVE",
"93 17 CURVE",
"128 -21 OFFCURVE",
"206 11 OFFCURVE",
"237 34 CURVE",
"266 57 OFFCURVE",
"391 129 OFFCURVE",
"446 256 CURVE",
"402 94 LINE",
"394 64 LINE SMOOTH",
"389 47 OFFCURVE",
"390 27 OFFCURVE",
"399 16 CURVE",
"409 2 OFFCURVE",
"424 1 OFFCURVE",
"443 -2 CURVE",
"488 -9 OFFCURVE",
"550 66 OFFCURVE",
"554 72 CURVE",
"547 66 OFFCURVE",
"499 42 OFFCURVE",
"464 29 CURVE",
"460 27 OFFCURVE",
"457 26 OFFCURVE",
"453 26 CURVE SMOOTH",
"447 26 OFFCURVE",
"440 27 OFFCURVE",
"436 32 CURVE",
"430 41 OFFCURVE",
"432 50 OFFCURVE",
"434 59 CURVE",
"439 75 LINE"
);
}
);
width = 559;
}
);
note = u;
unicode = 0075;
},
{
glyphname = v;
lastChange = "2018-02-05 08:42:07 +0000";
layers = (
{
layerId = "0B1DFD06-3317-40CA-B510-4969A0718C16";
paths = (
{
closed = 1;
nodes = (
"281 422 OFFCURVE",
"328 423 OFFCURVE",
"356 363 CURVE",
"359 354 OFFCURVE",
"363 344 OFFCURVE",
"365 334 CURVE SMOOTH",
"373 300 OFFCURVE",
"375 260 OFFCURVE",
"361 231 CURVE SMOOTH",
"341 182 OFFCURVE",
"321 158 OFFCURVE",
"256 116 CURVE SMOOTH",
"153 47 LINE",
"150 66 OFFCURVE",
"136 96 OFFCURVE",
"125 121 CURVE SMOOTH",
"117 136 OFFCURVE",
"111 151 OFFCURVE",
"100 166 CURVE",
"81 200 OFFCURVE",
"63 242 OFFCURVE",
"54 281 CURVE SMOOTH",
"48 307 OFFCURVE",
"46 332 OFFCURVE",
"52 348 CURVE",
"65 378 OFFCURVE",
"98 412 OFFCURVE",
"132 408 CURVE SMOOTH",
"194 402 OFFCURVE",
"215 336 OFFCURVE",
"216 337 CURVE",
"219 348 OFFCURVE",
"220 358 OFFCURVE",
"220 364 CURVE",
"220 368 OFFCURVE",
"219 371 OFFCURVE",
"217 374 CURVE",
"212 418 OFFCURVE",
"180 447 OFFCURVE",
"124 447 CURVE SMOOTH",
"74 447 OFFCURVE",
"29 409 OFFCURVE",
"16 368 CURVE SMOOTH",
"-7 306 OFFCURVE",
"37 200 OFFCURVE",
"68 154 CURVE",
"107 91 OFFCURVE",
"137 0 OFFCURVE",
"137 0 CURVE SMOOTH",
"137 0 OFFCURVE",
"226 70 OFFCURVE",
"268 95 CURVE",
"327 135 OFFCURVE",
"368 156 OFFCURVE",
"394 212 CURVE SMOOTH",
"416 258 OFFCURVE",
"414 317 OFFCURVE",
"392 371 CURVE SMOOTH",
"381 397 OFFCURVE",
"359 433 OFFCURVE",
"328 442 CURVE SMOOTH",
"299 451 OFFCURVE",
"284 441 OFFCURVE",
"274 429 CURVE SMOOTH",
"267 423 OFFCURVE",
"263 414 OFFCURVE",
"261 406 CURVE"
);
}
);
width = 421;
}
);
note = v;
unicode = 0076;
},
{
glyphname = w;
lastChange = "2018-02-05 08:42:07 +0000";
layers = (
{
layerId = "0B1DFD06-3317-40CA-B510-4969A0718C16";
paths = (
{
closed = 1;
nodes = (
"21 252 OFFCURVE",
"1 122 OFFCURVE",
"155 0 CURVE",
"232 74 LINE SMOOTH",
"269 110 OFFCURVE",
"309 147 OFFCURVE",
"310 147 CURVE",
"316 136 OFFCURVE",
"386 14 OFFCURVE",
"402 0 CURVE",
"404 0 OFFCURVE",
"581 192 OFFCURVE",
"595 207 CURVE",
"654 280 OFFCURVE",
"655 317 OFFCURVE",
"638 373 CURVE",
"607 461 OFFCURVE",
"503 451 OFFCURVE",
"502 449 CURVE",
"502 448 OFFCURVE",
"582 433 OFFCURVE",
"597 371 CURVE SMOOTH",
"608 324 OFFCURVE",
"614 288 OFFCURVE",
"569 225 CURVE SMOOTH",
"548 192 OFFCURVE",
"455 70 OFFCURVE",
"412 40 CURVE",
"397 61 OFFCURVE",
"343 161 OFFCURVE",
"335 177 CURVE",
"384 236 OFFCURVE",
"429 305 OFFCURVE",
"409 393 CURVE SMOOTH",
"408 398 OFFCURVE",
"398 441 OFFCURVE",
"361 454 CURVE SMOOTH",
"335 463 OFFCURVE",
"305 457 OFFCURVE",
"290 438 CURVE SMOOTH",
"259 398 OFFCURVE",
"232 327 OFFCURVE",
"298 173 CURVE",
"288 163 OFFCURVE",
"155 35 OFFCURVE",
"154 34 CURVE",
"113 81 OFFCURVE",
"45 173 OFFCURVE",
"81 290 CURVE SMOOTH",
"95 331 OFFCURVE",
"120 366 OFFCURVE",
"144 391 CURVE SMOOTH",
"156 406 OFFCURVE",
"171 418 OFFCURVE",
"187 429 CURVE",
"189 429 OFFCURVE",
"84 411 OFFCURVE",
"43 311 CURVE SMOOTH"
);
},
{
closed = 1;
nodes = (
"284 334 OFFCURVE",
"296 379 OFFCURVE",
"322 409 CURVE SMOOTH",
"332 419 OFFCURVE",
"343 422 OFFCURVE",
"355 418 CURVE SMOOTH",
"360 417 OFFCURVE",
"365 416 OFFCURVE",
"368 402 CURVE SMOOTH",
"370 393 LINE SMOOTH",
"385 329 OFFCURVE",
"359 250 OFFCURVE",
"324 203 CURVE",
"323 207 OFFCURVE",
"302 257 OFFCURVE",
"299 266 CURVE SMOOTH"
);
}
);
width = 659;
}
);
note = w;
unicode = 0077;
},
{
glyphname = x;
lastChange = "2018-02-05 08:42:07 +0000";
layers = (
{
layerId = "0B1DFD06-3317-40CA-B510-4969A0718C16";
paths = (
{
closed = 1;
nodes = (
"476 462 OFFCURVE",
"444 463 OFFCURVE",
"423 439 CURVE",
"384 399 OFFCURVE",
"342 236 OFFCURVE",
"342 235 CURVE",
"321 271 OFFCURVE",
"299 305 OFFCURVE",
"280 334 CURVE SMOOTH",
"246 386 OFFCURVE",
"212 437 OFFCURVE",
"195 446 CURVE",
"133 475 OFFCURVE",
"88 427 OFFCURVE",
"89 424 CURVE",
"89 424 OFFCURVE",
"145 444 OFFCURVE",
"180 414 CURVE",
"190 402 OFFCURVE",
"326 196 OFFCURVE",
"326 198 CURVE",
"325 198 OFFCURVE",
"263 21 OFFCURVE",
"132 39 CURVE",
"113 42 OFFCURVE",
"100 55 OFFCURVE",
"93 69 CURVE",
"85 82 OFFCURVE",
"85 96 OFFCURVE",
"93 109 CURVE SMOOTH",
"127 160 OFFCURVE",
"246 125 OFFCURVE",
"246 124 CURVE",
"247 124 OFFCURVE",
"128 216 OFFCURVE",
"62 136 CURVE",
"43 116 OFFCURVE",
"44 86 OFFCURVE",
"59 57 CURVE SMOOTH",
"75 27 OFFCURVE",
"103 6 OFFCURVE",
"134 1 CURVE SMOOTH",
"212 -10 OFFCURVE",
"281 27 OFFCURVE",
"309 92 CURVE SMOOTH",
"342 170 LINE",
"397 85 OFFCURVE",
"432 34 OFFCURVE",
"449 19 CURVE",
"495 -25 OFFCURVE",
"567 11 OFFCURVE",
"570 11 CURVE",
"565 11 OFFCURVE",
"499 11 OFFCURVE",
"471 45 CURVE",
"461 59 OFFCURVE",
"404 136 OFFCURVE",
"357 210 CURVE",
"368 243 OFFCURVE",
"380 275 OFFCURVE",
"390 302 CURVE SMOOTH",
"407 351 OFFCURVE",
"429 401 OFFCURVE",
"448 411 CURVE SMOOTH",
"499 437 OFFCURVE",
"532 357 OFFCURVE",
"533 357 CURVE",
"533 356 OFFCURVE",
"546 418 OFFCURVE",
"507 443 CURVE SMOOTH"
);
}
);
width = 554;
}
);
note = x;
unicode = 0078;
},
{
glyphname = y;
lastChange = "2018-02-05 08:42:07 +0000";
layers = (
{
layerId = "0B1DFD06-3317-40CA-B510-4969A0718C16";
paths = (
{
closed = 1;
nodes = (
"438 446 OFFCURVE",
"393 429 OFFCURVE",
"392 431 CURVE SMOOTH",
"392 432 OFFCURVE",
"371 347 OFFCURVE",
"334 201 CURVE",
"303 134 OFFCURVE",
"233 72 OFFCURVE",
"171 41 CURVE SMOOTH",
"152 31 OFFCURVE",
"98 21 OFFCURVE",
"78 37 CURVE SMOOTH",
"60 52 OFFCURVE",
"56 70 OFFCURVE",
"68 115 CURVE SMOOTH",
"107 238 LINE SMOOTH",
"125 301 OFFCURVE",
"145 367 OFFCURVE",
"147 378 CURVE",
"151 398 OFFCURVE",
"151 422 OFFCURVE",
"134 436 CURVE SMOOTH",
"127 442 OFFCURVE",
"115 447 OFFCURVE",
"94 441 CURVE SMOOTH",
"25 421 OFFCURVE",
"4 342 OFFCURVE",
"-3 329 CURVE",
"5 339 OFFCURVE",
"47 388 OFFCURVE",
"87 402 CURVE",
"95 406 OFFCURVE",
"100 403 OFFCURVE",
"106 403 CURVE",
"106 399 OFFCURVE",
"107 399 OFFCURVE",
"107 396 CURVE SMOOTH",
"108 392 LINE",
"107 382 OFFCURVE",
"86 318 OFFCURVE",
"68 255 CURVE SMOOTH",
"56 218 OFFCURVE",
"43 177 OFFCURVE",
"30 131 CURVE SMOOTH",
"24 112 OFFCURVE",
"18 86 OFFCURVE",
"24 61 CURVE SMOOTH",
"28 42 OFFCURVE",
"38 25 OFFCURVE",
"57 10 CURVE",
"104 -27 OFFCURVE",
"180 5 OFFCURVE",
"194 15 CURVE",
"225 34 OFFCURVE",
"276 75 OFFCURVE",
"324 144 CURVE",
"290 16 LINE SMOOTH",
"272 -49 OFFCURVE",
"250 -125 OFFCURVE",
"241 -145 CURVE",
"169 -135 OFFCURVE",
"109 -131 OFFCURVE",
"46 -142 CURVE SMOOTH",
"-9 -152 OFFCURVE",
"-78 -176 OFFCURVE",
"-98 -233 CURVE SMOOTH",
"-107 -260 OFFCURVE",
"-104 -285 OFFCURVE",
"-92 -308 CURVE",
"-78 -332 OFFCURVE",
"-55 -351 OFFCURVE",
"-26 -362 CURVE SMOOTH",
"49 -392 OFFCURVE",
"141 -373 OFFCURVE",
"190 -337 CURVE SMOOTH",
"218 -316 OFFCURVE",
"244 -265 OFFCURVE",
"270 -180 CURVE",
"316 -183 OFFCURVE",
"413 -255 OFFCURVE",
"411 -250 CURVE",
"368 -210 LINE",
"343 -188 OFFCURVE",
"310 -163 OFFCURVE",
"283 -154 CURVE",
"300 -114 OFFCURVE",
"440 443 OFFCURVE",
"438 444 CURVE"
);
},
{
closed = 1;
nodes = (
"124 -336 OFFCURVE",
"43 -353 OFFCURVE",
"-19 -327 CURVE SMOOTH",
"-38 -319 OFFCURVE",
"-51 -310 OFFCURVE",
"-59 -296 CURVE",
"-66 -282 OFFCURVE",
"-66 -268 OFFCURVE",
"-60 -252 CURVE SMOOTH",
"-45 -211 OFFCURVE",
"9 -186 OFFCURVE",
"58 -177 CURVE SMOOTH",
"114 -168 OFFCURVE",
"165 -160 OFFCURVE",
"228 -173 CURVE",
"211 -221 OFFCURVE",
"181 -287 OFFCURVE",
"162 -305 CURVE SMOOTH"
);
},
{
closed = 1;
nodes = (
"-3 329 LINE",
"-6 327 LINE"
);
}
);
width = 510;
}
);
note = y;
unicode = 0079;
},
{
glyphname = z;
lastChange = "2018-02-05 08:42:07 +0000";
layers = (
{
layerId = "0B1DFD06-3317-40CA-B510-4969A0718C16";
paths = (
{
closed = 1;
nodes = (
"336 434 OFFCURVE",
"318 421 OFFCURVE",
"298 409 CURVE",
"265 391 OFFCURVE",
"219 376 OFFCURVE",
"166 394 CURVE",
"119 409 OFFCURVE",
"75 438 OFFCURVE",
"57 472 CURVE",
"57 473 OFFCURVE",
"40 393 OFFCURVE",
"161 366 CURVE SMOOTH",
"229 352 OFFCURVE",
"269 376 OFFCURVE",
"303 386 CURVE",
"302 386 OFFCURVE",
"216 273 OFFCURVE",
"216 272 CURVE",
"212 272 OFFCURVE",
"97 273 OFFCURVE",
"99 276 CURVE",
"99 277 OFFCURVE",
"85 252 OFFCURVE",
"86 252 CURVE SMOOTH",
"107 252 OFFCURVE",
"126 252 OFFCURVE",
"142 251 CURVE SMOOTH",
"200 248 LINE",
"185 223 OFFCURVE",
"-37 2 OFFCURVE",
"-35 1 CURVE",
"-36 0 OFFCURVE",
"43 20 OFFCURVE",
"43 20 CURVE",
"78 74 OFFCURVE",
"212 140 OFFCURVE",
"311 110 CURVE SMOOTH",
"354 96 OFFCURVE",
"367 77 OFFCURVE",
"374 61 CURVE",
"380 52 OFFCURVE",
"374 45 OFFCURVE",
"368 36 CURVE",
"363 29 OFFCURVE",
"321 22 OFFCURVE",
"320 24 CURVE SMOOTH",
"320 26 OFFCURVE",
"371 -29 OFFCURVE",
"408 7 CURVE SMOOTH",
"451 51 OFFCURVE",
"381 130 OFFCURVE",
"324 140 CURVE SMOOTH",
"250 152 OFFCURVE",
"160 122 OFFCURVE",
"92 90 CURVE",
"131 139 OFFCURVE",
"180 198 OFFCURVE",
"223 248 CURVE",
"227 247 OFFCURVE",
"304 251 OFFCURVE",
"303 250 CURVE",
"305 253 LINE",
"310 261 LINE",
"317 272 LINE",
"242 272 LINE SMOOTH",
"242 272 OFFCURVE",
"332 388 OFFCURVE",
"359 394 CURVE",
"356 391 OFFCURVE",
"356 456 OFFCURVE",
"353 452 CURVE"
);
}
);
width = 392;
}
);
note = z;
unicode = 007A;
},
{
glyphname = AE;
lastChange = "2018-02-05 08:42:07 +0000";
layers = (
{
layerId = "0B1DFD06-3317-40CA-B510-4969A0718C16";
paths = (
{
closed = 1;
nodes = (
"1119 691 OFFCURVE",
"1105 693 OFFCURVE",
"1089 693 CURVE SMOOTH",
"1074 693 OFFCURVE",
"1047 695 OFFCURVE",
"1007 699 CURVE SMOOTH",
"965 704 OFFCURVE",
"936 706 OFFCURVE",
"919 706 CURVE SMOOTH",
"868 706 OFFCURVE",
"822 695 OFFCURVE",
"785 671 CURVE",
"764 660 OFFCURVE",
"746 648 OFFCURVE",
"730 633 CURVE",
"729 634 OFFCURVE",
"728 635 OFFCURVE",
"728 635 CURVE",
"707 656 OFFCURVE",
"687 670 OFFCURVE",
"670 679 CURVE",
"655 688 OFFCURVE",
"631 694 OFFCURVE",
"598 700 CURVE",
"575 703 OFFCURVE",
"552 704 OFFCURVE",
"531 704 CURVE SMOOTH",
"461 704 OFFCURVE",
"399 691 OFFCURVE",
"345 663 CURVE SMOOTH",
"288 635 OFFCURVE",
"239 598 OFFCURVE",
"194 549 CURVE SMOOTH",
"148 503 OFFCURVE",
"113 461 OFFCURVE",
"88 423 CURVE SMOOTH",
"63 387 OFFCURVE",
"45 347 OFFCURVE",
"34 306 CURVE SMOOTH",
"24 263 OFFCURVE",
"25 218 OFFCURVE",
"35 171 CURVE SMOOTH",
"39 157 OFFCURVE",
"44 139 OFFCURVE",
"54 112 CURVE SMOOTH",
"63 86 OFFCURVE",
"79 62 OFFCURVE",
"98 41 CURVE",
"120 20 OFFCURVE",
"142 6 OFFCURVE",
"163 1 CURVE",
"183 -2 OFFCURVE",
"199 -5 OFFCURVE",
"213 -5 CURVE SMOOTH",
"255 -5 OFFCURVE",
"297 9 OFFCURVE",
"339 37 CURVE SMOOTH",
"379 64 OFFCURVE",
"415 96 OFFCURVE",
"443 132 CURVE",
"475 166 OFFCURVE",
"497 198 OFFCURVE",
"517 232 CURVE",
"513 203 OFFCURVE",
"508 181 OFFCURVE",
"502 166 CURVE SMOOTH",
"484 121 LINE SMOOTH",
"477 106 OFFCURVE",
"467 86 OFFCURVE",
"453 60 CURVE SMOOTH",
"440 32 OFFCURVE",
"431 15 OFFCURVE",
"432 6 CURVE",
"437 6 OFFCURVE",
"447 7 OFFCURVE",
"467 4 CURVE",
"486 2 OFFCURVE",
"499 1 OFFCURVE",
"508 1 CURVE SMOOTH",
"524 1 OFFCURVE",
"536 2 OFFCURVE",
"544 6 CURVE",
"547 72 OFFCURVE",
"553 139 OFFCURVE",
"564 205 CURVE SMOOTH",
"569 233 OFFCURVE",
"574 261 OFFCURVE",
"579 286 CURVE",
"581 270 OFFCURVE",
"583 253 OFFCURVE",
"586 237 CURVE SMOOTH",
"592 211 OFFCURVE",
"602 185 OFFCURVE",
"618 156 CURVE",
"632 127 OFFCURVE",
"655 100 OFFCURVE",
"687 75 CURVE SMOOTH",
"715 51 OFFCURVE",
"752 31 OFFCURVE",
"793 17 CURVE SMOOTH",
"835 4 OFFCURVE",
"868 -2 OFFCURVE",
"902 -2 CURVE SMOOTH",
"945 -2 OFFCURVE",
"985 7 OFFCURVE",
"1025 26 CURVE SMOOTH",
"1063 45 OFFCURVE",
"1098 71 OFFCURVE",
"1130 105 CURVE",
"1127 115 LINE",
"1052 60 OFFCURVE",
"990 32 OFFCURVE",
"941 32 CURVE SMOOTH",
"923 32 OFFCURVE",
"900 34 OFFCURVE",
"871 39 CURVE",
"841 42 OFFCURVE",
"809 57 OFFCURVE",
"775 81 CURVE SMOOTH",
"737 106 OFFCURVE",
"710 132 OFFCURVE",
"695 161 CURVE",
"678 190 OFFCURVE",
"666 215 OFFCURVE",
"658 233 CURVE SMOOTH",
"651 253 OFFCURVE",
"644 273 OFFCURVE",
"639 295 CURVE SMOOTH",
"633 321 OFFCURVE",
"631 347 OFFCURVE",
"630 376 CURVE SMOOTH",
"631 402 OFFCURVE",
"633 429 OFFCURVE",
"639 456 CURVE",
"673 461 OFFCURVE",
"706 468 OFFCURVE",
"734 478 CURVE",
"728 459 OFFCURVE",
"718 443 OFFCURVE",
"704 431 CURVE SMOOTH",
"689 417 OFFCURVE",
"671 406 OFFCURVE",
"652 399 CURVE",
"683 399 OFFCURVE",
"710 408 OFFCURVE",
"732 424 CURVE",
"754 443 OFFCURVE",
"765 462 OFFCURVE",
"770 482 CURVE",
"772 495 LINE",
"801 514 LINE",
"818 528 OFFCURVE",
"835 539 OFFCURVE",
"853 553 CURVE SMOOTH",
"870 565 OFFCURVE",
"882 575 OFFCURVE",
"888 584 CURVE",
"834 408 LINE SMOOTH",
"822 369 OFFCURVE",
"809 329 OFFCURVE",
"793 285 CURVE SMOOTH",
"745 150 LINE",
"744 140 LINE",
"839 140 LINE",
"831 175 OFFCURVE",
"828 206 OFFCURVE",
"833 232 CURVE",
"837 261 OFFCURVE",
"850 286 OFFCURVE",
"868 311 CURVE SMOOTH",
"887 336 OFFCURVE",
"906 352 OFFCURVE",
"922 366 CURVE",
"940 378 OFFCURVE",
"959 384 OFFCURVE",
"983 384 CURVE SMOOTH",
"997 384 OFFCURVE",
"1008 383 OFFCURVE",
"1018 379 CURVE",
"1029 376 OFFCURVE",
"1038 369 OFFCURVE",
"1043 362 CURVE",
"1057 341 LINE",
"1068 344 OFFCURVE",
"1072 351 OFFCURVE",
"1074 359 CURVE",
"1077 368 OFFCURVE",
"1077 378 OFFCURVE",
"1073 392 CURVE SMOOTH",
"1069 412 OFFCURVE",
"1058 424 OFFCURVE",
"1040 429 CURVE SMOOTH",
"1023 434 OFFCURVE",
"1007 437 OFFCURVE",
"995 437 CURVE SMOOTH",
"973 437 OFFCURVE",
"954 432 OFFCURVE",
"938 422 CURVE SMOOTH",
"923 412 OFFCURVE",
"909 398 OFFCURVE",
"897 382 CURVE",
"881 366 OFFCURVE",
"870 346 OFFCURVE",
"856 324 CURVE",
"859 356 OFFCURVE",
"863 387 OFFCURVE",
"868 418 CURVE SMOOTH",
"874 449 OFFCURVE",
"879 479 OFFCURVE",
"886 508 CURVE SMOOTH",
"903 582 LINE SMOOTH",
"908 603 OFFCURVE",
"910 623 OFFCURVE",
"911 641 CURVE",
"886 592 OFFCURVE",
"850 550 OFFCURVE",
"801 519 CURVE",
"772 503 LINE",
"774 528 LINE",
"774 538 OFFCURVE",
"773 548 OFFCURVE",
"771 558 CURVE SMOOTH",
"765 583 OFFCURVE",
"753 605 OFFCURVE",
"738 624 CURVE",
"742 625 OFFCURVE",
"740 626 OFFCURVE",
"743 628 CURVE",
"768 646 OFFCURVE",
"786 658 OFFCURVE",
"805 663 CURVE SMOOTH",
"823 668 OFFCURVE",
"843 670 OFFCURVE",
"868 670 CURVE SMOOTH",
"884 670 OFFCURVE",
"914 668 OFFCURVE",
"956 663 CURVE SMOOTH",
"999 658 OFFCURVE",
"1026 655 OFFCURVE",
"1038 655 CURVE SMOOTH",
"1067 655 OFFCURVE",
"1091 659 OFFCURVE",
"1111 666 CURVE SMOOTH",
"1133 675 OFFCURVE",
"1151 688 OFFCURVE",
"1165 706 CURVE",
"1152 700 OFFCURVE",
"1141 696 OFFCURVE",
"1129 695 CURVE"
);
},
{
closed = 1;
nodes = (
"467 180 OFFCURVE",
"420 127 OFFCURVE",
"371 94 CURVE SMOOTH",
"323 60 OFFCURVE",
"286 42 OFFCURVE",
"258 42 CURVE SMOOTH",
"228 42 OFFCURVE",
"203 50 OFFCURVE",
"182 65 CURVE SMOOTH",
"159 81 OFFCURVE",
"147 92 OFFCURVE",
"140 106 CURVE SMOOTH",
"133 119 OFFCURVE",
"127 132 OFFCURVE",
"124 149 CURVE SMOOTH",
"121 158 LINE",
"122 163 OFFCURVE",
"116 193 OFFCURVE",
"112 252 CURVE SMOOTH",
"105 310 OFFCURVE",
"127 382 OFFCURVE",
"174 470 CURVE SMOOTH",
"224 560 OFFCURVE",
"278 615 OFFCURVE",
"339 641 CURVE SMOOTH",
"401 666 OFFCURVE",
"442 683 OFFCURVE",
"465 688 CURVE SMOOTH",
"488 693 OFFCURVE",
"510 696 OFFCURVE",
"534 696 CURVE SMOOTH",
"559 696 OFFCURVE",
"585 691 OFFCURVE",
"612 683 CURVE SMOOTH",
"636 674 OFFCURVE",
"662 659 OFFCURVE",
"687 638 CURVE",
"695 629 OFFCURVE",
"702 623 OFFCURVE",
"708 613 CURVE",
"699 604 OFFCURVE",
"692 594 OFFCURVE",
"684 584 CURVE",
"665 564 OFFCURVE",
"650 540 OFFCURVE",
"635 517 CURVE",
"642 543 OFFCURVE",
"650 572 OFFCURVE",
"659 605 CURVE",
"655 622 LINE",
"651 622 LINE",
"632 578 OFFCURVE",
"615 543 OFFCURVE",
"596 509 CURVE",
"586 493 OFFCURVE",
"575 477 OFFCURVE",
"562 463 CURVE",
"558 464 OFFCURVE",
"553 464 OFFCURVE",
"548 468 CURVE",
"540 472 OFFCURVE",
"531 478 OFFCURVE",
"520 487 CURVE",
"512 495 OFFCURVE",
"507 503 OFFCURVE",
"505 510 CURVE SMOOTH",
"504 517 OFFCURVE",
"503 523 OFFCURVE",
"506 530 CURVE",
"506 539 OFFCURVE",
"514 545 OFFCURVE",
"524 549 CURVE",
"535 554 OFFCURVE",
"547 557 OFFCURVE",
"566 557 CURVE SMOOTH",
"571 557 OFFCURVE",
"580 557 OFFCURVE",
"591 555 CURVE",
"601 555 OFFCURVE",
"606 554 OFFCURVE",
"609 554 CURVE",
"595 560 LINE",
"589 564 OFFCURVE",
"579 565 OFFCURVE",
"568 569 CURVE",
"554 572 OFFCURVE",
"541 573 OFFCURVE",
"527 573 CURVE SMOOTH",
"508 573 OFFCURVE",
"492 570 OFFCURVE",
"483 564 CURVE",
"471 558 OFFCURVE",
"466 550 OFFCURVE",
"464 540 CURVE SMOOTH",
"463 530 OFFCURVE",
"462 523 OFFCURVE",
"463 519 CURVE SMOOTH",
"464 513 OFFCURVE",
"468 505 OFFCURVE",
"474 497 CURVE",
"481 490 OFFCURVE",
"488 483 OFFCURVE",
"499 474 CURVE",
"511 466 OFFCURVE",
"522 462 OFFCURVE",
"534 458 CURVE",
"554 454 LINE",
"545 444 OFFCURVE",
"537 437 OFFCURVE",
"525 428 CURVE SMOOTH",
"495 406 OFFCURVE",
"460 394 OFFCURVE",
"421 394 CURVE SMOOTH",
"412 394 LINE SMOOTH",
"408 394 OFFCURVE",
"403 396 OFFCURVE",
"395 396 CURVE",
"386 397 OFFCURVE",
"376 401 OFFCURVE",
"368 406 CURVE",
"358 409 OFFCURVE",
"352 416 OFFCURVE",
"347 423 CURVE SMOOTH",
"345 427 OFFCURVE",
"344 431 OFFCURVE",
"343 437 CURVE SMOOTH",
"341 446 OFFCURVE",
"343 452 OFFCURVE",
"345 456 CURVE SMOOTH",
"348 459 OFFCURVE",
"352 463 OFFCURVE",
"359 468 CURVE",
"364 473 OFFCURVE",
"369 474 OFFCURVE",
"375 478 CURVE",
"383 479 OFFCURVE",
"391 480 OFFCURVE",
"397 480 CURVE SMOOTH",
"403 480 OFFCURVE",
"411 479 OFFCURVE",
"422 478 CURVE",
"432 474 OFFCURVE",
"445 475 OFFCURVE",
"462 472 CURVE",
"436 483 LINE",
"426 487 OFFCURVE",
"417 488 OFFCURVE",
"406 492 CURVE",
"395 494 OFFCURVE",
"383 495 OFFCURVE",
"369 495 CURVE SMOOTH",
"348 495 OFFCURVE",
"330 492 OFFCURVE",
"318 483 CURVE",
"307 475 OFFCURVE",
"299 467 OFFCURVE",
"297 456 CURVE SMOOTH",
"294 444 OFFCURVE",
"293 436 OFFCURVE",
"294 432 CURVE SMOOTH",
"296 424 OFFCURVE",
"302 416 OFFCURVE",
"310 407 CURVE",
"318 399 OFFCURVE",
"331 392 OFFCURVE",
"348 383 CURVE SMOOTH",
"367 374 OFFCURVE",
"386 371 OFFCURVE",
"409 371 CURVE SMOOTH",
"438 371 OFFCURVE",
"470 381 OFFCURVE",
"502 399 CURVE SMOOTH",
"525 413 OFFCURVE",
"545 431 OFFCURVE",
"566 453 CURVE",
"576 453 LINE",
"602 453 LINE",
"602 452 LINE",
"597 437 OFFCURVE",
"592 423 OFFCURVE",
"590 408 CURVE",
"569 352 OFFCURVE",
"544 300 OFFCURVE",
"513 250 CURVE"
);
},
{
closed = 1;
nodes = (
"577 461 LINE",
"573 461 LINE",
"606 499 LINE",
"613 495 LINE",
"605 464 LINE",
"603 461 LINE"
);
},
{
closed = 1;
nodes = (
"740 529 OFFCURVE",
"740 508 OFFCURVE",
"734 487 CURVE",
"704 475 OFFCURVE",
"672 467 OFFCURVE",
"638 462 CURVE",
"645 493 OFFCURVE",
"659 524 OFFCURVE",
"679 555 CURVE SMOOTH",
"691 574 OFFCURVE",
"703 588 OFFCURVE",
"716 602 CURVE",
"724 588 OFFCURVE",
"730 572 OFFCURVE",
"734 553 CURVE SMOOTH"
);
}
);
width = 1017;
}
);
note = AE;
unicode = 00C6;
},
{
glyphname = Eth;
lastChange = "2018-02-05 08:42:07 +0000";
layers = (
{
layerId = "0B1DFD06-3317-40CA-B510-4969A0718C16";
paths = (
{
closed = 1;
nodes = (
"546 635 OFFCURVE",
"471 680 OFFCURVE",
"382 704 CURVE SMOOTH",
"325 720 OFFCURVE",
"267 711 OFFCURVE",
"216 690 CURVE SMOOTH",
"126 650 OFFCURVE",
"82 545 OFFCURVE",
"90 467 CURVE",
"77 467 OFFCURVE",
"66 468 OFFCURVE",
"55 470 CURVE",
"28 474 OFFCURVE",
"-16 498 OFFCURVE",
"-20 530 CURVE SMOOTH",
"-21 542 OFFCURVE",
"-18 552 OFFCURVE",
"-9 558 CURVE SMOOTH",
"0 564 OFFCURVE",
"18 568 OFFCURVE",
"82 568 CURVE",
"17 583 OFFCURVE",
"-11 585 OFFCURVE",
"-35 574 CURVE SMOOTH",
"-52 565 OFFCURVE",
"-73 549 OFFCURVE",
"-67 525 CURVE SMOOTH",
"-61 499 OFFCURVE",
"-27 475 OFFCURVE",
"1 467 CURVE",
"27 461 OFFCURVE",
"57 457 OFFCURVE",
"89 457 CURVE",
"83 427 OFFCURVE",
"109 372 OFFCURVE",
"142 351 CURVE",
"120 384 OFFCURVE",
"103 417 OFFCURVE",
"103 457 CURVE",
"166 472 OFFCURVE",
"207 488 OFFCURVE",
"227 504 CURVE",
"250 520 OFFCURVE",
"275 543 OFFCURVE",
"303 569 CURVE",
"273 490 OFFCURVE",
"245 413 OFFCURVE",
"219 328 CURVE",
"38 328 LINE",
"20 324 OFFCURVE",
"14 316 OFFCURVE",
"9 310 CURVE SMOOTH",
"6 306 OFFCURVE",
"4 301 OFFCURVE",
"4 297 CURVE",
"209 297 LINE",
"190 233 OFFCURVE",
"169 172 OFFCURVE",
"146 104 CURVE",
"146 100 OFFCURVE",
"142 96 OFFCURVE",
"147 92 CURVE",
"238 90 LINE",
"243 160 OFFCURVE",
"255 227 OFFCURVE",
"267 297 CURVE",
"401 297 LINE SMOOTH",
"421 297 OFFCURVE",
"431 303 OFFCURVE",
"435 312 CURVE",
"438 316 OFFCURVE",
"439 322 OFFCURVE",
"440 328 CURVE",
"273 328 LINE",
"294 433 OFFCURVE",
"320 535 OFFCURVE",
"340 645 CURVE",
"332 645 LINE",
"310 607 OFFCURVE",
"292 580 OFFCURVE",
"277 562 CURVE SMOOTH",
"263 543 OFFCURVE",
"243 527 OFFCURVE",
"216 510 CURVE SMOOTH",
"190 494 OFFCURVE",
"152 479 OFFCURVE",
"102 468 CURVE",
"107 548 OFFCURVE",
"143 615 OFFCURVE",
"212 656 CURVE SMOOTH",
"254 683 OFFCURVE",
"304 683 OFFCURVE",
"361 669 CURVE SMOOTH",
"430 654 OFFCURVE",
"497 599 OFFCURVE",
"528 529 CURVE SMOOTH",
"579 406 OFFCURVE",
"590 287 OFFCURVE",
"524 182 CURVE SMOOTH",
"497 139 OFFCURVE",
"460 102 OFFCURVE",
"415 72 CURVE",
"306 19 OFFCURVE",
"192 20 OFFCURVE",
"71 79 CURVE",
"72 72 LINE",
"103 51 OFFCURVE",
"140 35 OFFCURVE",
"178 24 CURVE SMOOTH",
"260 -1 OFFCURVE",
"330 -2 OFFCURVE",
"418 24 CURVE SMOOTH",
"470 40 OFFCURVE",
"523 74 OFFCURVE",
"573 137 CURVE SMOOTH",
"653 242 OFFCURVE",
"669 401 OFFCURVE",
"591 550 CURVE SMOOTH"
);
}
);
width = 651;
}
);
note = Eth;
unicode = 00D0;
},
{
glyphname = Dcroat;
lastChange = "2018-02-05 08:42:07 +0000";
layers = (
{
layerId = "0B1DFD06-3317-40CA-B510-4969A0718C16";
paths = (
{
closed = 1;
nodes = (
"548 610 OFFCURVE",
"473 655 OFFCURVE",
"383 679 CURVE SMOOTH",
"326 695 OFFCURVE",
"268 686 OFFCURVE",
"218 665 CURVE SMOOTH",
"128 625 OFFCURVE",
"83 520 OFFCURVE",
"91 442 CURVE",
"79 442 OFFCURVE",
"67 443 OFFCURVE",
"56 446 CURVE",
"29 449 OFFCURVE",
"-15 473 OFFCURVE",
"-19 505 CURVE SMOOTH",
"-20 517 OFFCURVE",
"-16 527 OFFCURVE",
"-7 533 CURVE SMOOTH",
"2 539 OFFCURVE",
"19 543 OFFCURVE",
"83 543 CURVE",
"18 558 OFFCURVE",
"-10 560 OFFCURVE",
"-34 549 CURVE SMOOTH",
"-50 540 OFFCURVE",
"-71 524 OFFCURVE",
"-65 500 CURVE SMOOTH",
"-59 474 OFFCURVE",
"-26 451 OFFCURVE",
"2 442 CURVE",
"28 436 OFFCURVE",
"58 432 OFFCURVE",
"91 432 CURVE",
"84 402 OFFCURVE",
"111 347 OFFCURVE",
"143 326 CURVE",
"121 359 OFFCURVE",
"105 392 OFFCURVE",
"104 432 CURVE",
"167 447 OFFCURVE",
"208 463 OFFCURVE",
"228 479 CURVE",
"251 495 OFFCURVE",
"276 518 OFFCURVE",
"304 544 CURVE",
"274 466 OFFCURVE",
"247 388 OFFCURVE",
"220 303 CURVE",
"39 303 LINE",
"22 300 OFFCURVE",
"15 291 OFFCURVE",
"10 285 CURVE SMOOTH",
"7 281 OFFCURVE",
"6 276 OFFCURVE",
"5 272 CURVE",
"210 272 LINE",
"191 208 OFFCURVE",
"170 147 OFFCURVE",
"148 79 CURVE",
"147 75 OFFCURVE",
"143 71 OFFCURVE",
"148 67 CURVE",
"239 65 LINE",
"244 135 OFFCURVE",
"256 202 OFFCURVE",
"269 272 CURVE",
"402 272 LINE SMOOTH",
"422 272 OFFCURVE",
"432 278 OFFCURVE",
"437 287 CURVE",
"439 291 OFFCURVE",
"440 297 OFFCURVE",
"441 303 CURVE",
"274 303 LINE",
"295 408 OFFCURVE",
"321 510 OFFCURVE",
"341 620 CURVE",
"333 620 LINE",
"311 582 OFFCURVE",
"293 555 OFFCURVE",
"279 537 CURVE SMOOTH",
"264 518 OFFCURVE",
"244 502 OFFCURVE",
"217 485 CURVE SMOOTH",
"191 469 OFFCURVE",
"153 454 OFFCURVE",
"104 443 CURVE",
"108 523 OFFCURVE",
"144 590 OFFCURVE",
"213 631 CURVE SMOOTH",
"256 658 OFFCURVE",
"306 658 OFFCURVE",
"362 644 CURVE SMOOTH",
"431 629 OFFCURVE",
"498 574 OFFCURVE",
"529 504 CURVE SMOOTH",
"581 381 OFFCURVE",
"591 262 OFFCURVE",
"525 157 CURVE SMOOTH",
"498 114 OFFCURVE",
"461 77 OFFCURVE",
"417 47 CURVE",
"308 -6 OFFCURVE",
"193 -5 OFFCURVE",
"72 54 CURVE",
"73 47 LINE",
"105 26 OFFCURVE",
"141 10 OFFCURVE",
"179 -1 CURVE SMOOTH",
"261 -26 OFFCURVE",
"331 -27 OFFCURVE",
"419 -1 CURVE SMOOTH",
"471 15 OFFCURVE",
"524 49 OFFCURVE",
"574 112 CURVE SMOOTH",
"655 217 OFFCURVE",
"670 376 OFFCURVE",
"592 525 CURVE SMOOTH"
);
}
);
width = 597;
}
);
note = Dcroat;
unicode = 0110;
},
{
glyphname = Eacute;
lastChange = "2018-02-05 08:42:07 +0000";
layers = (
{
background = {
paths = (
{
closed = 1;
nodes = (
"554 0 LINE",
"571 179 LINE",
"544 179 LINE",
"538 124 OFFCURVE",
"520 40 OFFCURVE",
"456 40 CURVE SMOOTH",
"201 40 LINE",
"201 659 LINE",
"441 659 LINE SMOOTH",
"516 659 OFFCURVE",
"525 567 OFFCURVE",
"528 527 CURVE",
"555 527 LINE",
"555 700 LINE",
"16 700 LINE",
"16 673 LINE",
"44 673 LINE SMOOTH",
"83 673 OFFCURVE",
"103 662 OFFCURVE",
"103 637 CURVE SMOOTH",
"103 62 LINE SMOOTH",
"103 37 OFFCURVE",
"83 26 OFFCURVE",
"44 26 CURVE SMOOTH",
"16 26 LINE",
"16 0 LINE"
);
},
{
closed = 1;
nodes = (
"455 251 LINE",
"455 485 LINE",
"431 485 LINE",
"427 436 OFFCURVE",
"424 388 OFFCURVE",
"379 388 CURVE SMOOTH",
"162 388 LINE",
"162 348 LINE",
"379 348 LINE SMOOTH",
"424 348 OFFCURVE",
"427 300 OFFCURVE",
"431 251 CURVE"
);
},
{
closed = 1;
nodes = (
"398 865 LINE SMOOTH",
"420 877 OFFCURVE",
"432 890 OFFCURVE",
"432 907 CURVE SMOOTH",
"432 922 OFFCURVE",
"420 937 OFFCURVE",
"398 937 CURVE SMOOTH",
"377 937 OFFCURVE",
"362 921 OFFCURVE",
"354 914 CURVE SMOOTH",
"239 807 LINE",
"256 782 LINE"
);
}
);
};
components = (
{
name = E;
transform = "{1, 0, -0.23087, 1, 97, 0}";
},
{
name = acute;
transform = "{1, 0, -0.23087, 1, 100, 230}";
}
);
layerId = "0B1DFD06-3317-40CA-B510-4969A0718C16";
width = 607;
}
);
note = Eacute;
unicode = 00C9;
},
{
glyphname = Ebreve;
lastChange = "2018-02-05 08:42:07 +0000";
layers = (
{
background = {
paths = (
{
closed = 1;
nodes = (
"554 0 LINE",
"571 179 LINE",
"544 179 LINE",
"538 124 OFFCURVE",
"520 40 OFFCURVE",
"456 40 CURVE SMOOTH",
"201 40 LINE",
"201 659 LINE",
"441 659 LINE SMOOTH",
"516 659 OFFCURVE",
"525 567 OFFCURVE",
"528 527 CURVE",
"555 527 LINE",
"555 700 LINE",
"16 700 LINE",
"16 673 LINE",
"44 673 LINE SMOOTH",
"83 673 OFFCURVE",
"103 662 OFFCURVE",
"103 637 CURVE SMOOTH",
"103 62 LINE SMOOTH",
"103 37 OFFCURVE",
"83 26 OFFCURVE",
"44 26 CURVE SMOOTH",
"16 26 LINE",
"16 0 LINE"
);
},
{
closed = 1;
nodes = (
"455 251 LINE",
"455 485 LINE",
"431 485 LINE",
"427 436 OFFCURVE",
"424 388 OFFCURVE",
"379 388 CURVE SMOOTH",
"162 388 LINE",
"162 348 LINE",
"379 348 LINE SMOOTH",
"424 348 OFFCURVE",
"427 300 OFFCURVE",
"431 251 CURVE"
);
},
{
closed = 1;
nodes = (
"432 776 OFFCURVE",
"474 832 OFFCURVE",
"478 907 CURVE",
"445 907 LINE",
"439 848 OFFCURVE",
"397 822 OFFCURVE",
"333 822 CURVE SMOOTH",
"269 822 OFFCURVE",
"226 848 OFFCURVE",
"219 907 CURVE",
"186 907 LINE",
"190 829 OFFCURVE",
"232 776 OFFCURVE",
"333 776 CURVE SMOOTH"
);
}
);
};
components = (
{
name = E;
transform = "{1, 0, -0.23087, 1, 103, 0}";
},
{
name = breve;
transform = "{1, 0, -0.23087, 1, 117, 230}";
}
);
layerId = "0B1DFD06-3317-40CA-B510-4969A0718C16";
width = 607;
}
);
note = Ebreve;
unicode = 0114;
},
{
glyphname = Ecaron;
lastChange = "2018-02-05 08:42:07 +0000";
layers = (
{
background = {
paths = (
{
closed = 1;
nodes = (
"554 0 LINE",
"571 179 LINE",
"544 179 LINE",
"538 124 OFFCURVE",
"520 40 OFFCURVE",
"456 40 CURVE SMOOTH",
"201 40 LINE",
"201 659 LINE",
"441 659 LINE SMOOTH",
"516 659 OFFCURVE",
"525 567 OFFCURVE",
"528 527 CURVE",
"555 527 LINE",
"555 700 LINE",
"16 700 LINE",
"16 673 LINE",
"44 673 LINE SMOOTH",
"83 673 OFFCURVE",
"103 662 OFFCURVE",
"103 637 CURVE SMOOTH",
"103 62 LINE SMOOTH",
"103 37 OFFCURVE",
"83 26 OFFCURVE",
"44 26 CURVE SMOOTH",
"16 26 LINE",
"16 0 LINE"
);
},
{
closed = 1;
nodes = (
"455 251 LINE",
"455 485 LINE",
"431 485 LINE",
"427 436 OFFCURVE",
"424 388 OFFCURVE",
"379 388 CURVE SMOOTH",
"162 388 LINE",
"162 348 LINE",
"379 348 LINE SMOOTH",
"424 348 OFFCURVE",
"427 300 OFFCURVE",
"431 251 CURVE"
);
},
{
closed = 1;
nodes = (
"357 782 LINE",
"481 911 LINE",
"462 932 LINE",
"354 847 LINE",
"346 840 OFFCURVE",
"337 836 OFFCURVE",
"331 836 CURVE SMOOTH",
"325 836 OFFCURVE",
"317 840 OFFCURVE",
"307 847 CURVE",
"199 932 LINE",
"180 911 LINE",
"304 782 LINE"
);
}
);
};
components = (
{
name = E;
transform = "{1, 0, -0.23087, 1, 112, 0}";
},
{
name = caron;
transform = "{1, 0, -0.23087, 1, 127, 230}";
}
);
layerId = "0B1DFD06-3317-40CA-B510-4969A0718C16";
width = 607;
}
);
note = Ecaron;
unicode = 011A;
},
{
glyphname = Ecircumflex;
lastChange = "2018-02-05 08:42:07 +0000";
layers = (
{
background = {
paths = (
{
closed = 1;
nodes = (
"554 0 LINE",
"571 179 LINE",
"544 179 LINE",
"538 124 OFFCURVE",
"520 40 OFFCURVE",
"456 40 CURVE SMOOTH",
"201 40 LINE",
"201 659 LINE",
"441 659 LINE SMOOTH",
"516 659 OFFCURVE",
"525 567 OFFCURVE",
"528 527 CURVE",
"555 527 LINE",
"555 700 LINE",
"16 700 LINE",
"16 673 LINE",
"44 673 LINE SMOOTH",
"83 673 OFFCURVE",
"103 662 OFFCURVE",
"103 637 CURVE SMOOTH",
"103 62 LINE SMOOTH",
"103 37 OFFCURVE",
"83 26 OFFCURVE",
"44 26 CURVE SMOOTH",
"16 26 LINE",
"16 0 LINE"
);
},
{
closed = 1;
nodes = (
"455 251 LINE",
"455 485 LINE",
"431 485 LINE",
"427 436 OFFCURVE",
"424 388 OFFCURVE",
"379 388 CURVE SMOOTH",
"162 388 LINE",
"162 348 LINE",
"379 348 LINE SMOOTH",
"424 348 OFFCURVE",
"427 300 OFFCURVE",
"431 251 CURVE"
);
},
{
closed = 1;
nodes = (
"304 868 LINE SMOOTH",
"312 874 OFFCURVE",
"322 879 OFFCURVE",
"328 879 CURVE SMOOTH",
"334 879 OFFCURVE",
"342 874 OFFCURVE",
"351 868 CURVE",
"459 782 LINE",
"478 803 LINE",
"354 932 LINE",
"301 932 LINE",
"177 803 LINE",
"196 782 LINE"
);
}
);
};
components = (
{
name = E;
transform = "{1, 0, -0.23087, 1, 107, 0}";
},
{
name = circumflex;
transform = "{1, 0, -0.23087, 1, 122, 230}";
}
);
layerId = "0B1DFD06-3317-40CA-B510-4969A0718C16";
width = 607;
}
);
note = Ecircumflex;
unicode = 00CA;
},
{
glyphname = Ecircumflexacute;
lastChange = "2018-02-05 08:42:07 +0000";
layers = (
{
background = {
paths = (
{
closed = 1;
nodes = (
"554 0 LINE",
"571 179 LINE",
"544 179 LINE",
"538 124 OFFCURVE",
"520 40 OFFCURVE",
"456 40 CURVE SMOOTH",
"201 40 LINE",
"201 659 LINE",
"441 659 LINE SMOOTH",
"516 659 OFFCURVE",
"525 567 OFFCURVE",
"528 527 CURVE",
"555 527 LINE",
"555 700 LINE",
"16 700 LINE",
"16 673 LINE",
"44 673 LINE SMOOTH",
"83 673 OFFCURVE",
"103 662 OFFCURVE",
"103 637 CURVE SMOOTH",
"103 62 LINE SMOOTH",
"103 37 OFFCURVE",
"83 26 OFFCURVE",
"44 26 CURVE SMOOTH",
"16 26 LINE",
"16 0 LINE"
);
},
{
closed = 1;
nodes = (
"455 251 LINE",
"455 485 LINE",
"431 485 LINE",
"427 436 OFFCURVE",
"424 388 OFFCURVE",
"379 388 CURVE SMOOTH",
"162 388 LINE",
"162 348 LINE",
"379 348 LINE SMOOTH",
"424 348 OFFCURVE",
"427 300 OFFCURVE",
"431 251 CURVE"
);
},
{
closed = 1;
nodes = (
"290 862 LINE SMOOTH",
"300 870 OFFCURVE",
"310 878 OFFCURVE",
"318 878 CURVE SMOOTH",
"324 878 OFFCURVE",
"332 873 OFFCURVE",
"341 867 CURVE",
"447 781 LINE",
"466 803 LINE",
"344 932 LINE",
"293 932 LINE",
"171 803 LINE",
"189 781 LINE"
);
},
{
closed = 1;
nodes = (
"555 960 LINE SMOOTH",
"578 972 OFFCURVE",
"591 988 OFFCURVE",
"591 1003 CURVE SMOOTH",
"591 1017 OFFCURVE",
"580 1034 OFFCURVE",
"557 1034 CURVE SMOOTH",
"538 1034 OFFCURVE",
"521 1018 OFFCURVE",
"511 1008 CURVE SMOOTH",
"415 915 LINE",
"433 893 LINE"
);
}
);
};
components = (
{
name = E;
transform = "{1, 0, -0.23087, 1, 120, 0}";
},
{
name = circumflexacute;
transform = "{1, 0, -0.23087, 1, 631, 230}";
}
);
layerId = "0B1DFD06-3317-40CA-B510-4969A0718C16";
width = 607;
}
);
note = Ecircumflexacute;
unicode = 1EBE;
},
{
glyphname = Ecircumflexdotbelow;
lastChange = "2018-02-05 08:42:07 +0000";
layers = (
{
background = {
paths = (
{
closed = 1;
nodes = (
"554 0 LINE",
"571 179 LINE",
"544 179 LINE",
"538 124 OFFCURVE",
"520 40 OFFCURVE",
"456 40 CURVE SMOOTH",
"201 40 LINE",
"201 659 LINE",
"441 659 LINE SMOOTH",
"516 659 OFFCURVE",
"525 567 OFFCURVE",
"528 527 CURVE",
"555 527 LINE",
"555 700 LINE",
"16 700 LINE",
"16 673 LINE",
"44 673 LINE SMOOTH",
"83 673 OFFCURVE",
"103 662 OFFCURVE",
"103 637 CURVE SMOOTH",
"103 62 LINE SMOOTH",
"103 37 OFFCURVE",
"83 26 OFFCURVE",
"44 26 CURVE SMOOTH",
"16 26 LINE",
"16 0 LINE"
);
},
{
closed = 1;
nodes = (
"350 -159 OFFCURVE",
"368 -140 OFFCURVE",
"368 -112 CURVE SMOOTH",
"368 -84 OFFCURVE",
"350 -64 OFFCURVE",
"322 -64 CURVE SMOOTH",
"294 -64 OFFCURVE",
"275 -84 OFFCURVE",
"275 -112 CURVE SMOOTH",
"275 -140 OFFCURVE",
"294 -159 OFFCURVE",
"322 -159 CURVE SMOOTH"
);
},
{
closed = 1;
nodes = (
"455 251 LINE",
"455 485 LINE",
"431 485 LINE",
"427 436 OFFCURVE",
"424 388 OFFCURVE",
"379 388 CURVE SMOOTH",
"162 388 LINE",
"162 348 LINE",
"379 348 LINE SMOOTH",
"424 348 OFFCURVE",
"427 300 OFFCURVE",
"431 251 CURVE"
);
},
{
closed = 1;
nodes = (
"294 868 LINE SMOOTH",
"302 874 OFFCURVE",
"312 879 OFFCURVE",
"318 879 CURVE SMOOTH",
"324 879 OFFCURVE",
"332 874 OFFCURVE",
"341 868 CURVE",
"449 782 LINE",
"468 803 LINE",
"344 932 LINE",
"291 932 LINE",
"167 803 LINE",
"186 782 LINE"
);
}
);
};
components = (
{
name = E;
transform = "{1, 0, -0.23087, 1, 91, 0}";
},
{
name = dotbelowcomb;
transform = "{1, 0, -0.23087, 1, 656, 0}";
},
{
name = circumflex;
transform = "{1, 0, -0.23087, 1, 105, 230}";
}
);
layerId = "0B1DFD06-3317-40CA-B510-4969A0718C16";
width = 607;
}
);
note = Ecircumflexdotbelow;
unicode = 1EC6;
},
{
glyphname = Ecircumflexgrave;
lastChange = "2018-02-05 08:42:07 +0000";
layers = (
{
background = {
paths = (
{
closed = 1;
nodes = (
"554 0 LINE",
"571 179 LINE",
"544 179 LINE",
"538 124 OFFCURVE",
"520 40 OFFCURVE",
"456 40 CURVE SMOOTH",
"201 40 LINE",
"201 659 LINE",
"441 659 LINE SMOOTH",
"516 659 OFFCURVE",
"525 567 OFFCURVE",
"528 527 CURVE",
"555 527 LINE",
"555 700 LINE",
"16 700 LINE",
"16 673 LINE",
"44 673 LINE SMOOTH",
"83 673 OFFCURVE",
"103 662 OFFCURVE",
"103 637 CURVE SMOOTH",
"103 62 LINE SMOOTH",
"103 37 OFFCURVE",
"83 26 OFFCURVE",
"44 26 CURVE SMOOTH",
"16 26 LINE",
"16 0 LINE"
);
},
{
closed = 1;
nodes = (
"455 251 LINE",
"455 485 LINE",
"431 485 LINE",
"427 436 OFFCURVE",
"424 388 OFFCURVE",
"379 388 CURVE SMOOTH",
"162 388 LINE",
"162 348 LINE",
"379 348 LINE SMOOTH",
"424 348 OFFCURVE",
"427 300 OFFCURVE",
"431 251 CURVE"
);
},
{
closed = 1;
nodes = (
"227 915 LINE",
"132 1008 LINE SMOOTH",
"122 1018 OFFCURVE",
"105 1034 OFFCURVE",
"85 1034 CURVE SMOOTH",
"63 1034 OFFCURVE",
"52 1017 OFFCURVE",
"52 1003 CURVE SMOOTH",
"52 988 OFFCURVE",
"65 972 OFFCURVE",
"88 960 CURVE SMOOTH",
"210 893 LINE"
);
},
{
closed = 1;
nodes = (
"290 862 LINE SMOOTH",
"300 870 OFFCURVE",
"310 878 OFFCURVE",
"318 878 CURVE SMOOTH",
"324 878 OFFCURVE",
"332 873 OFFCURVE",
"341 867 CURVE",
"447 781 LINE",
"466 803 LINE",
"344 932 LINE",
"293 932 LINE",
"171 803 LINE",
"189 781 LINE"
);
}
);
};
components = (
{
name = E;
transform = "{1, 0, -0.23087, 1, 120, 0}";
},
{
name = circumflexgrave;
transform = "{1, 0, -0.23087, 1, 631, 230}";
}
);
layerId = "0B1DFD06-3317-40CA-B510-4969A0718C16";
width = 607;
}
);
note = Ecircumflexgrave;
unicode = 1EC0;
},
{
glyphname = Ecircumflexhookabove;
lastChange = "2018-02-05 08:42:07 +0000";
layers = (
{
background = {
paths = (
{
closed = 1;
nodes = (
"554 0 LINE",
"571 179 LINE",
"544 179 LINE",
"538 124 OFFCURVE",
"520 40 OFFCURVE",
"456 40 CURVE SMOOTH",
"201 40 LINE",
"201 659 LINE",
"441 659 LINE SMOOTH",
"516 659 OFFCURVE",
"525 567 OFFCURVE",
"528 527 CURVE",
"555 527 LINE",
"555 700 LINE",
"16 700 LINE",
"16 673 LINE",
"44 673 LINE SMOOTH",
"83 673 OFFCURVE",
"103 662 OFFCURVE",
"103 637 CURVE SMOOTH",
"103 62 LINE SMOOTH",
"103 37 OFFCURVE",
"83 26 OFFCURVE",
"44 26 CURVE SMOOTH",
"16 26 LINE",
"16 0 LINE"
);
},
{
closed = 1;
nodes = (
"455 251 LINE",
"455 485 LINE",
"431 485 LINE",
"427 436 OFFCURVE",
"424 388 OFFCURVE",
"379 388 CURVE SMOOTH",
"162 388 LINE",
"162 348 LINE",
"379 348 LINE SMOOTH",
"424 348 OFFCURVE",
"427 300 OFFCURVE",
"431 251 CURVE"
);
},
{
closed = 1;
nodes = (
"286 858 LINE",
"297 868 OFFCURVE",
"309 878 OFFCURVE",
"318 878 CURVE SMOOTH",
"324 878 OFFCURVE",
"332 873 OFFCURVE",
"341 867 CURVE",
"447 781 LINE",
"466 803 LINE",
"344 932 LINE",
"293 932 LINE",
"171 803 LINE",
"189 781 LINE"
);
},
{
closed = 1;
nodes = (
"493 898 LINE",
"474 905 OFFCURVE",
"464 912 OFFCURVE",
"464 926 CURVE SMOOTH",
"464 954 OFFCURVE",
"544 965 OFFCURVE",
"544 1010 CURVE SMOOTH",
"544 1047 OFFCURVE",
"502 1063 OFFCURVE",
"460 1063 CURVE SMOOTH",
"429 1063 OFFCURVE",
"384 1053 OFFCURVE",
"384 1022 CURVE SMOOTH",
"384 1010 OFFCURVE",
"395 1001 OFFCURVE",
"405 1001 CURVE SMOOTH",
"434 1001 OFFCURVE",
"421 1040 OFFCURVE",
"464 1040 CURVE SMOOTH",
"483 1040 OFFCURVE",
"494 1028 OFFCURVE",
"494 1013 CURVE SMOOTH",
"494 973 OFFCURVE",
"421 965 OFFCURVE",
"421 925 CURVE SMOOTH",
"421 901 OFFCURVE",
"437 880 OFFCURVE",
"484 880 CURVE"
);
}
);
};
components = (
{
name = E;
transform = "{1, 0, -0.23087, 1, 124, 0}";
},
{
name = circumflexhookabove;
transform = "{1, 0, -0.23087, 1, 634, 230}";
}
);
layerId = "0B1DFD06-3317-40CA-B510-4969A0718C16";
width = 607;
}
);
note = Ecircumflexhookabove;
unicode = 1EC2;
},
{
glyphname = Ecircumflextilde;
lastChange = "2018-02-05 08:42:07 +0000";
layers = (
{
background = {
paths = (
{
closed = 1;
nodes = (
"554 0 LINE",
"571 179 LINE",
"544 179 LINE",
"538 124 OFFCURVE",
"520 40 OFFCURVE",
"456 40 CURVE SMOOTH",
"201 40 LINE",
"201 659 LINE",
"441 659 LINE SMOOTH",
"516 659 OFFCURVE",
"525 567 OFFCURVE",
"528 527 CURVE",
"555 527 LINE",
"555 700 LINE",
"16 700 LINE",
"16 673 LINE",
"44 673 LINE SMOOTH",
"83 673 OFFCURVE",
"103 662 OFFCURVE",
"103 637 CURVE SMOOTH",
"103 62 LINE SMOOTH",
"103 37 OFFCURVE",
"83 26 OFFCURVE",
"44 26 CURVE SMOOTH",
"16 26 LINE",
"16 0 LINE"
);
},
{
closed = 1;
nodes = (
"455 251 LINE",
"455 485 LINE",
"431 485 LINE",
"427 436 OFFCURVE",
"424 388 OFFCURVE",
"379 388 CURVE SMOOTH",
"162 388 LINE",
"162 348 LINE",
"379 348 LINE SMOOTH",
"424 348 OFFCURVE",
"427 300 OFFCURVE",
"431 251 CURVE"
);
},
{
closed = 1;
nodes = (
"290 862 LINE SMOOTH",
"300 870 OFFCURVE",
"310 878 OFFCURVE",
"318 878 CURVE SMOOTH",
"324 878 OFFCURVE",
"332 873 OFFCURVE",
"341 867 CURVE",
"447 781 LINE",
"466 803 LINE",
"344 932 LINE",
"293 932 LINE",
"171 803 LINE",
"189 781 LINE"
);
},
{
closed = 1;
nodes = (
"193 997 OFFCURVE",
"211 1018 OFFCURVE",
"242 1018 CURVE SMOOTH",
"291 1018 OFFCURVE",
"338 964 OFFCURVE",
"387 964 CURVE SMOOTH",
"440 964 OFFCURVE",
"469 1012 OFFCURVE",
"481 1063 CURVE",
"460 1075 LINE",
"447 1035 OFFCURVE",
"431 1012 OFFCURVE",
"398 1012 CURVE SMOOTH",
"351 1012 OFFCURVE",
"302 1065 OFFCURVE",
"253 1065 CURVE SMOOTH",
"202 1065 OFFCURVE",
"170 1021 OFFCURVE",
"160 970 CURVE",
"180 958 LINE"
);
}
);
};
components = (
{
name = E;
transform = "{1, 0, -0.23087, 1, 125, 0}";
},
{
name = circumflextilde;
transform = "{1, 0, -0.23087, 1, 636, 230}";
}
);
layerId = "0B1DFD06-3317-40CA-B510-4969A0718C16";
width = 607;
}
);
note = Ecircumflextilde;
unicode = 1EC4;
},
{
glyphname = Edieresis;
lastChange = "2018-02-05 08:42:07 +0000";
layers = (
{
background = {
paths = (
{
closed = 1;
nodes = (
"554 0 LINE",
"571 179 LINE",
"544 179 LINE",
"538 124 OFFCURVE",
"520 40 OFFCURVE",
"456 40 CURVE SMOOTH",
"201 40 LINE",
"201 659 LINE",
"441 659 LINE SMOOTH",
"516 659 OFFCURVE",
"525 567 OFFCURVE",
"528 527 CURVE",
"555 527 LINE",
"555 700 LINE",
"16 700 LINE",
"16 673 LINE",
"44 673 LINE SMOOTH",
"83 673 OFFCURVE",
"103 662 OFFCURVE",
"103 637 CURVE SMOOTH",
"103 62 LINE SMOOTH",
"103 37 OFFCURVE",
"83 26 OFFCURVE",
"44 26 CURVE SMOOTH",
"16 26 LINE",
"16 0 LINE"
);
},
{
closed = 1;
nodes = (
"455 251 LINE",
"455 485 LINE",
"431 485 LINE",
"427 436 OFFCURVE",
"424 388 OFFCURVE",
"379 388 CURVE SMOOTH",
"162 388 LINE",
"162 348 LINE",
"379 348 LINE SMOOTH",
"424 348 OFFCURVE",
"427 300 OFFCURVE",
"431 251 CURVE"
);
},
{
closed = 1;
nodes = (
"254 781 OFFCURVE",
"272 800 OFFCURVE",
"272 827 CURVE SMOOTH",
"272 855 OFFCURVE",
"254 875 OFFCURVE",
"225 875 CURVE SMOOTH",
"197 875 OFFCURVE",
"179 855 OFFCURVE",
"179 827 CURVE SMOOTH",
"179 800 OFFCURVE",
"197 781 OFFCURVE",
"225 781 CURVE SMOOTH"
);
},
{
closed = 1;
nodes = (
"470 781 OFFCURVE",
"488 800 OFFCURVE",
"488 827 CURVE SMOOTH",
"488 855 OFFCURVE",
"470 875 OFFCURVE",
"441 875 CURVE SMOOTH",
"412 875 OFFCURVE",
"394 855 OFFCURVE",
"394 827 CURVE SMOOTH",
"394 800 OFFCURVE",
"412 781 OFFCURVE",
"441 781 CURVE SMOOTH"
);
}
);
};
components = (
{
name = E;
transform = "{1, 0, -0.23087, 1, 93, 0}";
},
{
name = dieresis;
transform = "{1, 0, -0.23087, 1, 108, 230}";
}
);
layerId = "0B1DFD06-3317-40CA-B510-4969A0718C16";
width = 607;
}
);
note = Edieresis;
unicode = 00CB;
},
{
glyphname = Edotaccent;
lastChange = "2018-02-05 08:42:07 +0000";
layers = (
{
background = {
paths = (
{
closed = 1;
nodes = (
"554 0 LINE",
"571 179 LINE",
"544 179 LINE",
"538 124 OFFCURVE",
"520 40 OFFCURVE",
"456 40 CURVE SMOOTH",
"201 40 LINE",
"201 659 LINE",
"441 659 LINE SMOOTH",
"516 659 OFFCURVE",
"525 567 OFFCURVE",
"528 527 CURVE",
"555 527 LINE",
"555 700 LINE",
"16 700 LINE",
"16 673 LINE",
"44 673 LINE SMOOTH",
"83 673 OFFCURVE",
"103 662 OFFCURVE",
"103 637 CURVE SMOOTH",
"103 62 LINE SMOOTH",
"103 37 OFFCURVE",
"83 26 OFFCURVE",
"44 26 CURVE SMOOTH",
"16 26 LINE",
"16 0 LINE"
);
},
{
closed = 1;
nodes = (
"455 251 LINE",
"455 485 LINE",
"431 485 LINE",
"427 436 OFFCURVE",
"424 388 OFFCURVE",
"379 388 CURVE SMOOTH",
"162 388 LINE",
"162 348 LINE",
"379 348 LINE SMOOTH",
"424 348 OFFCURVE",
"427 300 OFFCURVE",
"431 251 CURVE"
);
},
{
closed = 1;
nodes = (
"362 765 OFFCURVE",
"380 784 OFFCURVE",
"380 811 CURVE SMOOTH",
"380 839 OFFCURVE",
"362 858 OFFCURVE",
"334 858 CURVE SMOOTH",
"305 858 OFFCURVE",
"287 839 OFFCURVE",
"287 811 CURVE SMOOTH",
"287 784 OFFCURVE",
"305 765 OFFCURVE",
"334 765 CURVE SMOOTH"
);
}
);
};
components = (
{
name = E;
transform = "{1, 0, -0.23087, 1, 98, 0}";
},
{
name = dotaccent;
transform = "{1, 0, -0.23087, 1, 113, 230}";
}
);
layerId = "0B1DFD06-3317-40CA-B510-4969A0718C16";
width = 607;
}
);
note = Edotaccent;
unicode = 0116;
},
{
glyphname = Edotbelow;
lastChange = "2018-02-05 08:42:07 +0000";
layers = (
{
background = {
paths = (
{
closed = 1;
nodes = (
"554 0 LINE",
"571 179 LINE",
"544 179 LINE",
"538 124 OFFCURVE",
"520 40 OFFCURVE",
"456 40 CURVE SMOOTH",
"201 40 LINE",
"201 659 LINE",
"441 659 LINE SMOOTH",
"516 659 OFFCURVE",
"525 567 OFFCURVE",
"528 527 CURVE",
"555 527 LINE",
"555 700 LINE",
"16 700 LINE",
"16 673 LINE",
"44 673 LINE SMOOTH",
"83 673 OFFCURVE",
"103 662 OFFCURVE",
"103 637 CURVE SMOOTH",
"103 62 LINE SMOOTH",
"103 37 OFFCURVE",
"83 26 OFFCURVE",
"44 26 CURVE SMOOTH",
"16 26 LINE",
"16 0 LINE"
);
},
{
closed = 1;
nodes = (
"343 -159 OFFCURVE",
"361 -140 OFFCURVE",
"361 -112 CURVE SMOOTH",
"361 -84 OFFCURVE",
"343 -64 OFFCURVE",
"315 -64 CURVE SMOOTH",
"287 -64 OFFCURVE",
"268 -84 OFFCURVE",
"268 -112 CURVE SMOOTH",
"268 -140 OFFCURVE",
"287 -159 OFFCURVE",
"315 -159 CURVE SMOOTH"
);
},
{
closed = 1;
nodes = (
"455 251 LINE",
"455 485 LINE",
"431 485 LINE",
"427 436 OFFCURVE",
"424 388 OFFCURVE",
"379 388 CURVE SMOOTH",
"162 388 LINE",
"162 348 LINE",
"379 348 LINE SMOOTH",
"424 348 OFFCURVE",
"427 300 OFFCURVE",
"431 251 CURVE"
);
}
);
};
components = (
{
name = E;
transform = "{1, 0, -0.23087, 1, 65, 0}";
},
{
name = dotbelowcomb;
transform = "{1, 0, -0.23087, 1, 630, 0}";
}
);
layerId = "0B1DFD06-3317-40CA-B510-4969A0718C16";
width = 607;
}
);
note = Edotbelow;
unicode = 1EB8;
},
{
glyphname = Egrave;
lastChange = "2018-02-05 08:42:07 +0000";
layers = (
{
background = {
paths = (
{
closed = 1;
nodes = (
"554 0 LINE",
"571 179 LINE",
"544 179 LINE",
"538 124 OFFCURVE",
"520 40 OFFCURVE",
"456 40 CURVE SMOOTH",
"201 40 LINE",
"201 659 LINE",
"441 659 LINE SMOOTH",
"516 659 OFFCURVE",
"525 567 OFFCURVE",
"528 527 CURVE",
"555 527 LINE",
"555 700 LINE",
"16 700 LINE",
"16 673 LINE",
"44 673 LINE SMOOTH",
"83 673 OFFCURVE",
"103 662 OFFCURVE",
"103 637 CURVE SMOOTH",
"103 62 LINE SMOOTH",
"103 37 OFFCURVE",
"83 26 OFFCURVE",
"44 26 CURVE SMOOTH",
"16 26 LINE",
"16 0 LINE"
);
},
{
closed = 1;
nodes = (
"455 251 LINE",
"455 485 LINE",
"431 485 LINE",
"427 436 OFFCURVE",
"424 388 OFFCURVE",
"379 388 CURVE SMOOTH",
"162 388 LINE",
"162 348 LINE",
"379 348 LINE SMOOTH",
"424 348 OFFCURVE",
"427 300 OFFCURVE",
"431 251 CURVE"
);
},
{
closed = 1;
nodes = (
"425 807 LINE",
"310 913 LINE",
"301 922 OFFCURVE",
"285 937 OFFCURVE",
"265 937 CURVE SMOOTH",
"245 937 OFFCURVE",
"233 924 OFFCURVE",
"233 908 CURVE SMOOTH",
"233 890 OFFCURVE",
"245 876 OFFCURVE",
"264 865 CURVE SMOOTH",
"407 782 LINE"
);
}
);
};
components = (
{
name = E;
transform = "{1, 0, -0.23087, 1, 97, 0}";
},
{
name = grave;
transform = "{1, 0, -0.23087, 1, 112, 230}";
}
);
layerId = "0B1DFD06-3317-40CA-B510-4969A0718C16";
width = 607;
}
);
note = Egrave;
unicode = 00C8;
},
{
glyphname = Ehookabove;
lastChange = "2018-02-05 08:42:07 +0000";
layers = (
{
background = {
paths = (
{
closed = 1;
nodes = (
"554 0 LINE",
"571 179 LINE",
"544 179 LINE",
"538 124 OFFCURVE",
"520 40 OFFCURVE",
"456 40 CURVE SMOOTH",
"201 40 LINE",
"201 659 LINE",
"441 659 LINE SMOOTH",
"516 659 OFFCURVE",
"525 567 OFFCURVE",
"528 527 CURVE",
"555 527 LINE",
"555 700 LINE",
"16 700 LINE",
"16 673 LINE",
"44 673 LINE SMOOTH",
"83 673 OFFCURVE",
"103 662 OFFCURVE",
"103 637 CURVE SMOOTH",
"103 62 LINE SMOOTH",
"103 37 OFFCURVE",
"83 26 OFFCURVE",
"44 26 CURVE SMOOTH",
"16 26 LINE",
"16 0 LINE"
);
},
{
closed = 1;
nodes = (
"455 251 LINE",
"455 485 LINE",
"431 485 LINE",
"427 436 OFFCURVE",
"424 388 OFFCURVE",
"379 388 CURVE SMOOTH",
"162 388 LINE",
"162 348 LINE",
"379 348 LINE SMOOTH",
"424 348 OFFCURVE",
"427 300 OFFCURVE",
"431 251 CURVE"
);
},
{
closed = 1;
nodes = (
"367 798 LINE",
"348 805 OFFCURVE",
"336 811 OFFCURVE",
"336 828 CURVE SMOOTH",
"336 861 OFFCURVE",
"425 876 OFFCURVE",
"425 927 CURVE SMOOTH",
"425 969 OFFCURVE",
"389 991 OFFCURVE",
"336 991 CURVE SMOOTH",
"289 991 OFFCURVE",
"248 974 OFFCURVE",
"248 940 CURVE SMOOTH",
"248 923 OFFCURVE",
"256 915 OFFCURVE",
"271 915 CURVE SMOOTH",
"294 915 OFFCURVE",
"296 934 OFFCURVE",
"299 942 CURVE SMOOTH",
"304 956 OFFCURVE",
"321 962 OFFCURVE",
"337 962 CURVE SMOOTH",
"358 962 OFFCURVE",
"371 947 OFFCURVE",
"371 930 CURVE SMOOTH",
"371 885 OFFCURVE",
"289 874 OFFCURVE",
"289 828 CURVE SMOOTH",
"289 801 OFFCURVE",
"307 778 OFFCURVE",
"358 778 CURVE"
);
}
);
};
components = (
{
name = E;
transform = "{1, 0, -0.23087, 1, 119, 0}";
},
{
name = hookabovecomb;
transform = "{1, 0, -0.23087, 1, 631, 230}";
}
);
layerId = "0B1DFD06-3317-40CA-B510-4969A0718C16";
width = 607;
}
);
note = Ehookabove;
unicode = 1EBA;
},
{
glyphname = Emacron;
lastChange = "2018-02-05 08:42:07 +0000";
layers = (
{
background = {
paths = (
{
closed = 1;
nodes = (
"554 0 LINE",
"571 179 LINE",
"544 179 LINE",
"538 124 OFFCURVE",
"520 40 OFFCURVE",
"456 40 CURVE SMOOTH",
"201 40 LINE",
"201 659 LINE",
"441 659 LINE SMOOTH",
"516 659 OFFCURVE",
"525 567 OFFCURVE",
"528 527 CURVE",
"555 527 LINE",
"555 700 LINE",
"16 700 LINE",
"16 673 LINE",
"44 673 LINE SMOOTH",
"83 673 OFFCURVE",
"103 662 OFFCURVE",
"103 637 CURVE SMOOTH",
"103 62 LINE SMOOTH",
"103 37 OFFCURVE",
"83 26 OFFCURVE",
"44 26 CURVE SMOOTH",
"16 26 LINE",
"16 0 LINE"
);
},
{
closed = 1;
nodes = (
"455 251 LINE",
"455 485 LINE",
"431 485 LINE",
"427 436 OFFCURVE",
"424 388 OFFCURVE",
"379 388 CURVE SMOOTH",
"162 388 LINE",
"162 348 LINE",
"379 348 LINE SMOOTH",
"424 348 OFFCURVE",
"427 300 OFFCURVE",
"431 251 CURVE"
);
},
{
closed = 1;
nodes = (
"495 782 LINE",
"495 824 LINE",
"162 824 LINE",
"162 782 LINE"
);
}
);
};
components = (
{
name = E;
transform = "{1, 0, -0.23087, 1, 92, 0}";
},
{
name = macron;
transform = "{1, 0, -0.23087, 1, 107, 230}";
}
);
layerId = "0B1DFD06-3317-40CA-B510-4969A0718C16";
width = 607;
}
);
note = Emacron;
unicode = 0112;
},
{
glyphname = Eogonek;
lastChange = "2018-02-05 08:42:07 +0000";
layers = (
{
background = {
paths = (
{
closed = 1;
nodes = (
"554 0 LINE",
"571 179 LINE",
"544 179 LINE",
"538 124 OFFCURVE",
"520 40 OFFCURVE",
"456 40 CURVE SMOOTH",
"201 40 LINE",
"201 659 LINE",
"441 659 LINE SMOOTH",
"516 659 OFFCURVE",
"525 567 OFFCURVE",
"528 527 CURVE",
"555 527 LINE",
"555 700 LINE",
"16 700 LINE",
"16 673 LINE",
"44 673 LINE SMOOTH",
"83 673 OFFCURVE",
"103 662 OFFCURVE",
"103 637 CURVE SMOOTH",
"103 62 LINE SMOOTH",
"103 37 OFFCURVE",
"83 26 OFFCURVE",
"44 26 CURVE SMOOTH",
"16 26 LINE",
"16 0 LINE"
);
},
{
closed = 1;
nodes = (
"496 -196 OFFCURVE",
"524 -189 OFFCURVE",
"549 -172 CURVE",
"543 -152 LINE",
"527 -158 OFFCURVE",
"510 -162 OFFCURVE",
"497 -162 CURVE SMOOTH",
"464 -162 OFFCURVE",
"437 -146 OFFCURVE",
"437 -106 CURVE SMOOTH",
"437 -66 OFFCURVE",
"464 -26 OFFCURVE",
"510 4 CURVE",
"469 4 LINE",
"416 -22 OFFCURVE",
"376 -64 OFFCURVE",
"376 -114 CURVE SMOOTH",
"376 -147 OFFCURVE",
"395 -196 OFFCURVE",
"470 -196 CURVE SMOOTH"
);
},
{
closed = 1;
nodes = (
"455 251 LINE",
"455 485 LINE",
"431 485 LINE",
"427 436 OFFCURVE",
"424 388 OFFCURVE",
"379 388 CURVE SMOOTH",
"162 388 LINE",
"162 348 LINE",
"379 348 LINE SMOOTH",
"424 348 OFFCURVE",
"427 300 OFFCURVE",
"431 251 CURVE"
);
}
);
};
components = (
{
name = E;
transform = "{1, 0, -0.23087, 1, 61, 0}";
},
{
name = ogonek;
transform = "{1, 0, -0.23087, 1, 317, 0}";
}
);
layerId = "0B1DFD06-3317-40CA-B510-4969A0718C16";
width = 607;
}
);
note = Eogonek;
unicode = 0118;
},
{
glyphname = Etilde;
lastChange = "2018-02-05 08:42:07 +0000";
layers = (
{
background = {
paths = (
{
closed = 1;
nodes = (
"554 0 LINE",
"571 179 LINE",
"544 179 LINE",
"538 124 OFFCURVE",
"520 40 OFFCURVE",
"456 40 CURVE SMOOTH",
"201 40 LINE",
"201 659 LINE",
"441 659 LINE SMOOTH",
"516 659 OFFCURVE",
"525 567 OFFCURVE",
"528 527 CURVE",
"555 527 LINE",
"555 700 LINE",
"16 700 LINE",
"16 673 LINE",
"44 673 LINE SMOOTH",
"83 673 OFFCURVE",
"103 662 OFFCURVE",
"103 637 CURVE SMOOTH",
"103 62 LINE SMOOTH",
"103 37 OFFCURVE",
"83 26 OFFCURVE",
"44 26 CURVE SMOOTH",
"16 26 LINE",
"16 0 LINE"
);
},
{
closed = 1;
nodes = (
"455 251 LINE",
"455 485 LINE",
"431 485 LINE",
"427 436 OFFCURVE",
"424 388 OFFCURVE",
"379 388 CURVE SMOOTH",
"162 388 LINE",
"162 348 LINE",
"379 348 LINE SMOOTH",
"424 348 OFFCURVE",
"427 300 OFFCURVE",
"431 251 CURVE"
);
},
{
closed = 1;
nodes = (
"190 817 OFFCURVE",
"208 838 OFFCURVE",
"241 838 CURVE SMOOTH",
"292 838 OFFCURVE",
"341 784 OFFCURVE",
"392 784 CURVE SMOOTH",
"450 784 OFFCURVE",
"480 832 OFFCURVE",
"492 884 CURVE",
"471 895 LINE",
"455 855 OFFCURVE",
"439 833 OFFCURVE",
"405 833 CURVE SMOOTH",
"356 833 OFFCURVE",
"304 886 OFFCURVE",
"253 886 CURVE SMOOTH",
"199 886 OFFCURVE",
"166 842 OFFCURVE",
"154 790 CURVE",
"176 779 LINE"
);
}
);
};
components = (
{
name = E;
transform = "{1, 0, -0.23087, 1, 94, 0}";
},
{
name = tilde;
transform = "{1, 0, -0.23087, 1, 109, 230}";
}
);
layerId = "0B1DFD06-3317-40CA-B510-4969A0718C16";
width = 607;
}
);
note = Etilde;
unicode = 1EBC;
},
{
glyphname = Hbar;
lastChange = "2018-02-05 08:42:07 +0000";
layers = (
{
components = (
{
name = H;
transform = "{1, 0, -0.23087, 1, 80, 0}";
}
);
layerId = "0B1DFD06-3317-40CA-B510-4969A0718C16";
paths = (
{
closed = 1;
nodes = (
"682 504 LINE",
"673 544 LINE",
"-3 544 LINE",
"6 504 LINE"
);
}
);
width = 773;
}
);
note = Hbar;
unicode = 0126;
},
{
color = 0;
glyphname = IJ;
lastChange = "2018-02-05 08:42:07 +0000";
layers = (
{
layerId = "0B1DFD06-3317-40CA-B510-4969A0718C16";
paths = (
{
closed = 1;
nodes = (
"472 -114 OFFCURVE",
"561 -45 OFFCURVE",
"561 89 CURVE SMOOTH",
"561 637 LINE SMOOTH",
"561 662 OFFCURVE",
"581 673 OFFCURVE",
"619 673 CURVE SMOOTH",
"649 673 LINE",
"649 700 LINE",
"376 700 LINE",
"376 673 LINE",
"405 673 LINE SMOOTH",
"444 673 OFFCURVE",
"463 662 OFFCURVE",
"463 637 CURVE SMOOTH",
"463 90 LINE SMOOTH",
"463 -8 OFFCURVE",
"424 -75 OFFCURVE",
"339 -93 CURVE",
"343 -114 LINE"
);
},
{
closed = 1;
nodes = (
"298 0 LINE",
"298 26 LINE",
"270 26 LINE SMOOTH",
"231 26 OFFCURVE",
"211 37 OFFCURVE",
"211 62 CURVE SMOOTH",
"211 637 LINE SMOOTH",
"211 662 OFFCURVE",
"231 673 OFFCURVE",
"270 673 CURVE SMOOTH",
"298 673 LINE",
"298 700 LINE",
"26 700 LINE",
"26 673 LINE",
"55 673 LINE SMOOTH",
"93 673 OFFCURVE",
"113 662 OFFCURVE",
"113 637 CURVE SMOOTH",
"113 62 LINE SMOOTH",
"113 37 OFFCURVE",
"93 26 OFFCURVE",
"55 26 CURVE SMOOTH",
"26 26 LINE",
"26 0 LINE"
);
}
);
width = 675;
}
);
note = IJ;
rightKerningGroup = J;
unicode = 0132;
},
